<svg width="24" height="25" viewBox="0 0 24 25" fill="none" xmlns="http://www.w3.org/2000/svg">
<circle cx="12" cy="12.501" r="12" fill="#656565"/>
<path d="M14.7741 6.50347L13.3349 6.50098C11.7181 6.50098 10.6733 7.66012 10.6733 9.45419V10.8158H9.22629C9.10125 10.8158 9 10.9254 9 11.0606V13.0335C9 13.1687 9.10137 13.2782 9.22629 13.2782H10.6733V18.2563C10.6733 18.3915 10.7745 18.501 10.8996 18.501H12.7875C12.9125 18.501 13.0137 18.3914 13.0137 18.2563V13.2782H14.7056C14.8306 13.2782 14.9319 13.1687 14.9319 13.0335L14.9326 11.0606C14.9326 10.9957 14.9087 10.9335 14.8663 10.8876C14.8239 10.8417 14.7662 10.8158 14.7062 10.8158H13.0137V9.66155C13.0137 9.10676 13.136 8.82512 13.8044 8.82512L14.7738 8.82475C14.8987 8.82475 15 8.71514 15 8.58006V6.74816C15 6.61321 14.8989 6.50372 14.7741 6.50347Z" fill="white"/>
</svg>
