<svg width="24" height="25" viewBox="0 0 24 25" fill="none" xmlns="http://www.w3.org/2000/svg">
<circle cx="12" cy="12.501" r="12" fill="#656565"/>
<path fill-rule="evenodd" clip-rule="evenodd" d="M12 9.4199C10.2984 9.4199 8.91892 10.7993 8.91892 12.501C8.91892 14.2026 10.2984 15.5821 12 15.5821C13.7016 15.5821 15.0811 14.2026 15.0811 12.501C15.0811 10.7993 13.7016 9.4199 12 9.4199ZM10 12.501C10 13.6056 10.8954 14.501 12 14.501C13.1046 14.501 14 13.6056 14 12.501C14 11.3964 13.1046 10.501 12 10.501C10.8954 10.501 10 11.3964 10 12.501Z" fill="white"/>
<path d="M15.2028 10.0182C15.6005 10.0182 15.9228 9.69582 15.9228 9.29817C15.9228 8.90052 15.6005 8.57816 15.2028 8.57816C14.8052 8.57816 14.4828 8.90052 14.4828 9.29817C14.4828 9.69582 14.8052 10.0182 15.2028 10.0182Z" fill="white"/>
<path fill-rule="evenodd" clip-rule="evenodd" d="M9.52621 6.53708C10.1662 6.50788 10.3705 6.50098 12 6.50098C13.6295 6.50098 13.8338 6.50788 14.4738 6.53708C15.1124 6.56621 15.5486 6.66765 15.9302 6.81598C16.3248 6.96929 16.6594 7.17445 16.993 7.50801C17.3265 7.84159 17.5317 8.1762 17.685 8.57075C17.8333 8.95239 17.9348 9.38855 17.9639 10.0272C17.9931 10.6671 18 10.8715 18 12.501C18 14.1305 17.9931 14.3348 17.9639 14.9748C17.9348 15.6134 17.8333 16.0496 17.685 16.4312C17.5317 16.8258 17.3265 17.1604 16.993 17.4939C16.6594 17.8275 16.3248 18.0327 15.9302 18.186C15.5486 18.3343 15.1124 18.4357 14.4738 18.4649C13.8338 18.4941 13.6295 18.501 12 18.501C10.3705 18.501 10.1662 18.4941 9.52621 18.4649C8.88758 18.4357 8.45142 18.3343 8.06977 18.186C7.67522 18.0327 7.34061 17.8275 7.00703 17.4939C6.67347 17.1604 6.46831 16.8258 6.315 16.4312C6.16667 16.0496 6.06523 15.6134 6.03611 14.9748C6.00691 14.3348 6 14.1305 6 12.501C6 10.8715 6.00691 10.6671 6.03611 10.0272C6.06523 9.38855 6.16667 8.95239 6.315 8.57075C6.46831 8.1762 6.67347 7.84159 7.00703 7.50801C7.34061 7.17445 7.67522 6.96929 8.06977 6.81598C8.45142 6.66765 8.88758 6.56621 9.52621 6.53708ZM15.5386 7.82363C15.3272 7.74146 15.0095 7.64372 14.4245 7.61704C13.7918 7.58818 13.6021 7.58206 12 7.58206C10.3979 7.58206 10.2082 7.58818 9.57549 7.61704C8.99049 7.64372 8.6728 7.74146 8.46137 7.82363C8.18131 7.93248 7.98144 8.06249 7.77149 8.27246C7.56152 8.48241 7.4315 8.68228 7.32266 8.96235C7.24049 9.17377 7.14274 9.49147 7.11607 10.0765C7.0872 10.7091 7.08108 10.8989 7.08108 12.501C7.08108 14.103 7.0872 14.2928 7.11607 14.9255C7.14274 15.5105 7.24049 15.8282 7.32266 16.0396C7.4315 16.3197 7.56154 16.5195 7.77149 16.7295C7.98144 16.9395 8.18131 17.0695 8.46137 17.1783C8.6728 17.2605 8.99049 17.3582 9.57549 17.3849C10.2081 17.4138 10.3978 17.4199 12 17.4199C13.6022 17.4199 13.7919 17.4138 14.4245 17.3849C15.0095 17.3582 15.3272 17.2605 15.5386 17.1783C15.8187 17.0695 16.0186 16.9395 16.2285 16.7295C16.4385 16.5195 16.5685 16.3197 16.6773 16.0396C16.7595 15.8282 16.8573 15.5105 16.8839 14.9255C16.9128 14.2928 16.9189 14.103 16.9189 12.501C16.9189 10.8989 16.9128 10.7091 16.8839 10.0765C16.8573 9.49147 16.7595 9.17377 16.6773 8.96235C16.5685 8.68228 16.4385 8.48241 16.2285 8.27246C16.0186 8.06249 15.8187 7.93248 15.5386 7.82363Z" fill="white"/>
</svg>
