<svg width="24" height="24" viewBox="0 0 24 24" fill="none" xmlns="http://www.w3.org/2000/svg">
<circle cx="12" cy="12" r="12" fill="#F7F7F7"/>
<path fill-rule="evenodd" clip-rule="evenodd" d="M12 8.91892C10.2984 8.91892 8.91892 10.2984 8.91892 12C8.91892 13.7016 10.2984 15.0811 12 15.0811C13.7016 15.0811 15.0811 13.7016 15.0811 12C15.0811 10.2984 13.7016 8.91892 12 8.91892ZM10 12C10 13.1046 10.8954 14 12 14C13.1046 14 14 13.1046 14 12C14 10.8954 13.1046 10 12 10C10.8954 10 10 10.8954 10 12Z" fill="#333333"/>
<path d="M15.2028 9.51718C15.6005 9.51718 15.9228 9.19484 15.9228 8.79719C15.9228 8.39954 15.6005 8.07718 15.2028 8.07718C14.8052 8.07718 14.4828 8.39954 14.4828 8.79719C14.4828 9.19484 14.8052 9.51718 15.2028 9.51718Z" fill="#333333"/>
<path fill-rule="evenodd" clip-rule="evenodd" d="M9.52621 6.03611C10.1662 6.00691 10.3705 6 12 6C13.6295 6 13.8338 6.00691 14.4738 6.03611C15.1124 6.06523 15.5486 6.16667 15.9302 6.315C16.3248 6.46831 16.6594 6.67347 16.993 7.00703C17.3265 7.34061 17.5317 7.67522 17.685 8.06977C17.8333 8.45142 17.9348 8.88758 17.9639 9.52621C17.9931 10.1662 18 10.3705 18 12C18 13.6295 17.9931 13.8338 17.9639 14.4738C17.9348 15.1124 17.8333 15.5486 17.685 15.9302C17.5317 16.3248 17.3265 16.6594 16.993 16.993C16.6594 17.3265 16.3248 17.5317 15.9302 17.685C15.5486 17.8333 15.1124 17.9348 14.4738 17.9639C13.8338 17.9931 13.6295 18 12 18C10.3705 18 10.1662 17.9931 9.52621 17.9639C8.88758 17.9348 8.45142 17.8333 8.06977 17.685C7.67522 17.5317 7.34061 17.3265 7.00703 16.993C6.67347 16.6594 6.46831 16.3248 6.315 15.9302C6.16667 15.5486 6.06523 15.1124 6.03611 14.4738C6.00691 13.8338 6 13.6295 6 12C6 10.3705 6.00691 10.1662 6.03611 9.52621C6.06523 8.88758 6.16667 8.45142 6.315 8.06977C6.46831 7.67522 6.67347 7.34061 7.00703 7.00703C7.34061 6.67347 7.67522 6.46831 8.06977 6.315C8.45142 6.16667 8.88758 6.06523 9.52621 6.03611ZM15.5386 7.32266C15.3272 7.24049 15.0095 7.14274 14.4245 7.11607C13.7918 7.0872 13.6021 7.08108 12 7.08108C10.3979 7.08108 10.2082 7.0872 9.57549 7.11607C8.99049 7.14274 8.6728 7.24049 8.46137 7.32266C8.18131 7.4315 7.98144 7.56152 7.77149 7.77149C7.56152 7.98143 7.4315 8.18131 7.32266 8.46137C7.24049 8.6728 7.14274 8.99049 7.11607 9.57549C7.0872 10.2082 7.08108 10.3979 7.08108 12C7.08108 13.6021 7.0872 13.7918 7.11607 14.4245C7.14274 15.0095 7.24049 15.3272 7.32266 15.5386C7.4315 15.8187 7.56154 16.0186 7.77149 16.2285C7.98144 16.4385 8.18131 16.5685 8.46137 16.6773C8.6728 16.7595 8.99049 16.8573 9.57549 16.8839C10.2081 16.9128 10.3978 16.9189 12 16.9189C13.6022 16.9189 13.7919 16.9128 14.4245 16.8839C15.0095 16.8573 15.3272 16.7595 15.5386 16.6773C15.8187 16.5685 16.0186 16.4385 16.2285 16.2285C16.4385 16.0186 16.5685 15.8187 16.6773 15.5386C16.7595 15.3272 16.8573 15.0095 16.8839 14.4245C16.9128 13.7918 16.9189 13.6021 16.9189 12C16.9189 10.3979 16.9128 10.2082 16.8839 9.57549C16.8573 8.99049 16.7595 8.6728 16.6773 8.46137C16.5685 8.18131 16.4385 7.98143 16.2285 7.77149C16.0186 7.56152 15.8187 7.4315 15.5386 7.32266Z" fill="#333333"/>
</svg>
