<svg width="25" height="24" viewBox="0 0 25 24" fill="none" xmlns="http://www.w3.org/2000/svg">
<circle cx="12.7305" cy="12" r="12" fill="#F7F7F7"/>
<path d="M10.3074 15.4406H8.41928V9.49895H10.3074V15.4406ZM9.36334 8.37664C8.73397 8.37664 8.23047 7.8485 8.23047 7.18832C8.23047 6.52814 8.73397 6 9.36334 6C9.99271 6 10.4962 6.52814 10.4962 7.18832C10.4962 7.8485 9.99271 8.37664 9.36334 8.37664ZM17.2305 15.4406H15.3424V11.9416C15.3424 11.4135 14.9018 10.9513 14.3983 10.9513C13.8948 10.9513 13.4542 11.4135 13.4542 11.9416V15.4406H11.5661V9.49895H13.4542V10.2912C13.7689 9.76302 14.4612 9.36691 15.0277 9.36691C16.2235 9.36691 17.2305 10.4232 17.2305 11.6775V15.4406Z" fill="#333333"/>
</svg>
