<svg width="25" height="25" viewBox="0 0 25 25" fill="none" xmlns="http://www.w3.org/2000/svg">
<circle cx="12.7305" cy="12.501" r="12" fill="#656565"/>
<path d="M10.3074 15.9415H8.41928V9.99993H10.3074V15.9415ZM9.36334 8.87762C8.73397 8.87762 8.23047 8.34948 8.23047 7.6893C8.23047 7.02912 8.73397 6.50098 9.36334 6.50098C9.99271 6.50098 10.4962 7.02912 10.4962 7.6893C10.4962 8.34948 9.99271 8.87762 9.36334 8.87762ZM17.2305 15.9415H15.3424V12.4426C15.3424 11.9145 14.9018 11.4523 14.3983 11.4523C13.8948 11.4523 13.4542 11.9145 13.4542 12.4426V15.9415H11.5661V9.99993H13.4542V10.7921C13.7689 10.264 14.4612 9.86789 15.0277 9.86789C16.2235 9.86789 17.2305 10.9242 17.2305 12.1785V15.9415Z" fill="white"/>
</svg>
