<svg xmlns="http://www.w3.org/2000/svg" viewBox="0 0 24 24" width="24" height="24">
	<style>
		tspan { white-space:pre }
		.shp0 { fill: #f7f7f7 } 
		.shp1 { fill: #333333 } 
	</style>
	<path id="Layer" class="shp0" d="M12 24C5.36 24 0 18.64 0 12C0 5.36 5.36 0 12 0C18.64 0 24 5.36 24 12C24 18.64 18.64 24 12 24Z" />
	<path id="Layer" class="shp1" d="M17.73 8.54C17.54 8.62 17.35 8.68 17.15 8.73C17.38 8.49 17.56 8.2 17.67 7.89C17.69 7.82 17.67 7.74 17.61 7.7C17.54 7.65 17.46 7.65 17.39 7.68C16.97 7.91 16.51 8.08 16.04 8.17C15.56 7.74 14.91 7.5 14.23 7.5C12.81 7.5 11.66 8.56 11.66 9.86C11.66 9.96 11.66 10.06 11.68 10.16C9.92 10.02 8.28 9.23 7.15 7.96C7.11 7.92 7.05 7.9 6.99 7.9C6.92 7.9 6.87 7.94 6.83 7.99C6.61 8.35 6.49 8.76 6.49 9.17C6.49 9.74 6.71 10.28 7.1 10.7C6.98 10.67 6.86 10.62 6.75 10.56C6.7 10.53 6.62 10.53 6.56 10.56C6.51 10.59 6.47 10.65 6.47 10.71C6.47 10.72 6.47 10.73 6.47 10.75C6.47 11.59 6.97 12.36 7.73 12.77C7.66 12.77 7.6 12.76 7.53 12.75C7.46 12.74 7.4 12.76 7.35 12.81C7.3 12.85 7.29 12.92 7.31 12.98C7.59 13.78 8.32 14.38 9.2 14.56C8.47 14.98 7.64 15.2 6.76 15.2C6.58 15.2 6.4 15.19 6.22 15.17C6.13 15.16 6.04 15.2 6.01 15.28C5.98 15.36 6.01 15.45 6.09 15.49C7.21 16.15 8.51 16.5 9.85 16.5C12.47 16.5 14.11 15.37 15.02 14.42C16.16 13.23 16.82 11.66 16.82 10.11C16.82 10.05 16.82 9.98 16.81 9.92C17.26 9.61 17.65 9.23 17.97 8.8C18.02 8.73 18.01 8.65 17.95 8.59C17.9 8.53 17.81 8.51 17.73 8.54Z" />
</svg>