<svg xmlns="http://www.w3.org/2000/svg" viewBox="0 0 24 25" width="24" height="25">
	<style>
		tspan { white-space:pre }
		.shp0 { fill: #656565 } 
		.shp1 { fill: #ffffff } 
	</style>
	<path id="Layer" class="shp0" d="M12 24.5C5.36 24.5 0 19.14 0 12.5C0 5.86 5.36 0.5 12 0.5C18.64 0.5 24 5.86 24 12.5C24 19.14 18.64 24.5 12 24.5Z" />
	<path id="Layer" class="shp1" d="M17.73 9.04C17.54 9.12 17.35 9.18 17.15 9.23C17.38 8.99 17.56 8.7 17.67 8.39C17.69 8.32 17.67 8.25 17.61 8.2C17.54 8.15 17.46 8.15 17.39 8.19C16.97 8.41 16.51 8.58 16.04 8.67C15.56 8.25 14.91 8 14.23 8C12.81 8 11.66 9.06 11.66 10.36C11.66 10.46 11.66 10.57 11.68 10.67C9.92 10.52 8.28 9.73 7.15 8.47C7.11 8.42 7.05 8.4 6.99 8.4C6.92 8.41 6.87 8.44 6.83 8.49C6.61 8.85 6.49 9.26 6.49 9.68C6.49 10.24 6.71 10.78 7.1 11.2C6.98 11.17 6.86 11.12 6.75 11.06C6.7 11.03 6.62 11.03 6.56 11.06C6.51 11.1 6.47 11.15 6.47 11.21C6.47 11.23 6.47 11.24 6.47 11.25C6.47 12.09 6.97 12.86 7.73 13.28C7.66 13.27 7.6 13.26 7.53 13.25C7.46 13.24 7.4 13.26 7.35 13.31C7.3 13.35 7.29 13.42 7.31 13.48C7.59 14.28 8.32 14.88 9.2 15.06C8.47 15.48 7.64 15.7 6.76 15.7C6.58 15.7 6.4 15.69 6.22 15.67C6.13 15.66 6.04 15.71 6.01 15.78C5.98 15.86 6.01 15.95 6.09 15.99C7.21 16.65 8.51 17 9.85 17C12.47 17 14.11 15.87 15.02 14.92C16.16 13.73 16.82 12.16 16.82 10.61C16.82 10.55 16.82 10.48 16.81 10.42C17.26 10.11 17.65 9.73 17.97 9.3C18.02 9.23 18.01 9.15 17.95 9.09C17.9 9.03 17.81 9.01 17.73 9.04Z" />
</svg>