<svg xmlns="http://www.w3.org/2000/svg" viewBox="0 0 24 25" width="24" height="25">
	<style>
		tspan { white-space:pre }
		.shp0 { fill: #656565 } 
		.shp1 { fill: #ffffff } 
	</style>
	<path id="Layer" class="shp0" d="M12 24.29C5.36 24.29 0 18.92 0 12.29C0 5.65 5.36 0.29 12 0.29C18.64 0.29 24 5.65 24 12.29C24 18.92 18.64 24.29 12 24.29Z" />
	<path id="Layer" fill-rule="evenodd" class="shp1" d="M17 12.18L17 12.82C17 13.51 16.91 14.2 16.91 14.2C16.91 14.2 16.82 14.79 16.55 15.05C16.21 15.39 15.82 15.39 15.65 15.41C14.39 15.5 12.5 15.5 12.5 15.5C12.5 15.5 10.16 15.48 9.44 15.41C9.24 15.38 8.79 15.39 8.45 15.05C8.18 14.79 8.09 14.2 8.09 14.2C8.09 14.2 8 13.51 8 12.82L8 12.18C8 11.49 8.09 10.79 8.09 10.79C8.09 10.79 8.18 10.21 8.45 9.95C8.79 9.61 9.17 9.61 9.35 9.59C10.61 9.5 12.5 9.5 12.5 9.5L12.5 9.5C12.5 9.5 14.39 9.5 15.64 9.59C15.82 9.61 16.21 9.61 16.55 9.95C16.82 10.21 16.91 10.79 16.91 10.79C16.91 10.79 17 11.49 17 12.18ZM11.57 13.61L14 12.41L11.57 11.21L11.57 13.61Z" />
</svg>