<svg xmlns="http://www.w3.org/2000/svg" viewBox="0 0 24 24" width="24" height="24">
	<style>
		tspan { white-space:pre }
		.shp0 { fill: #f7f7f7 } 
		.shp1 { fill: #333333 } 
	</style>
	<path id="Layer" class="shp0" d="M11.86 23.89C5.65 23.89 0.62 18.87 0.62 12.65C0.62 6.43 5.65 1.41 11.86 1.41C18.08 1.41 23.11 6.43 23.11 12.65C23.11 18.87 18.08 23.89 11.86 23.89Z" />
	<path id="Layer" fill-rule="evenodd" class="shp1" d="M17 11.68L17 12.32C17 13.01 16.91 13.7 16.91 13.7C16.91 13.7 16.82 14.29 16.55 14.55C16.21 14.89 15.82 14.89 15.65 14.91C14.39 15 12.5 15 12.5 15C12.5 15 10.16 14.98 9.44 14.91C9.24 14.88 8.79 14.89 8.45 14.55C8.18 14.29 8.09 13.7 8.09 13.7C8.09 13.7 8 13.01 8 12.32L8 11.68C8 10.99 8.09 10.29 8.09 10.29C8.09 10.29 8.18 9.71 8.45 9.45C8.79 9.11 9.17 9.11 9.35 9.09C10.61 9 12.5 9 12.5 9L12.5 9C12.5 9 14.39 9 15.64 9.09C15.82 9.11 16.21 9.11 16.55 9.45C16.82 9.71 16.91 10.29 16.91 10.29C16.91 10.29 17 10.99 17 11.68ZM11.57 13.11L14 11.91L11.57 10.71L11.57 13.11Z" />
</svg>