<svg width="82" height="28" viewBox="0 0 82 28" fill="none" xmlns="http://www.w3.org/2000/svg">
<path d="M53 21H53.7465V24.0163H57.5941V21H58.3406V27.8862H57.5941V24.6992H53.7465V27.8293H53V21Z" fill="#333333"/>
<path d="M64.3703 26.9756C64.2554 27.1463 64.0832 27.3171 63.8535 27.4878C63.5089 27.7154 63.0495 28 62.3604 28C61.0396 28 60.0059 26.9187 60.0059 25.5528C60.0059 24.187 61.097 23.1057 62.3604 23.1057C63.6812 23.1057 64.6574 24.0732 64.6574 25.439C64.6574 25.5528 64.6574 25.6098 64.6 25.6667V25.7805H60.7525C60.8099 26.6341 61.5564 27.374 62.4178 27.374C62.9346 27.374 63.2792 27.2033 63.5663 26.9756C63.7386 26.8618 63.8535 26.748 63.9683 26.5772L64.3703 26.9756ZM63.9109 25.1545C63.796 24.3008 63.1643 23.6748 62.303 23.6748C61.4416 23.6748 60.7525 24.3577 60.695 25.1545H63.9109Z" fill="#333333"/>
<path d="M68.9069 27.2033C68.7921 27.3171 68.6772 27.4878 68.505 27.6016C68.2178 27.7724 67.8733 27.9431 67.3565 27.9431C66.3802 27.9431 65.6911 27.2602 65.6911 26.5772C65.6911 25.7805 66.1505 25.3252 67.0693 25.1545L68.9069 24.8699C68.9069 24.187 68.4475 23.6748 67.701 23.6748C67.299 23.6748 66.9545 23.8455 66.7248 24.0163C66.6099 24.1301 66.4951 24.2439 66.3802 24.3577L65.9208 23.9024C66.0357 23.7317 66.2079 23.561 66.3802 23.4472C66.6673 23.2195 67.1267 22.9919 67.701 22.9919C68.7921 22.9919 69.5961 23.7886 69.5961 24.813V27.8293H68.9069V27.2033ZM68.9069 25.439L67.299 25.7236C66.7248 25.8374 66.3802 26.122 66.3802 26.5772C66.3802 26.9756 66.7248 27.3171 67.3565 27.3171C68.2753 27.3171 68.9069 26.6911 68.9069 25.7236V25.439Z" fill="#333333"/>
<path d="M71.4337 21H72.1228V27.8862H71.4337V21Z" fill="#333333"/>
<path d="M74.3624 23.7886H73.4436V23.1626H73.9604C74.2475 23.1626 74.3624 22.9919 74.3624 22.6504V21.5691H74.9941V23.1626H76.0277V23.7886H74.9941V26.5772C74.9941 27.0894 75.2238 27.3171 75.6258 27.3171C75.798 27.3171 75.9703 27.2602 76.0852 27.2602C76.1426 27.2033 76.2 27.2033 76.2574 27.2033V27.8293C76.2 27.8862 76.1426 27.8862 76.0852 27.8862C75.9703 27.9431 75.798 27.9431 75.6258 27.9431C74.8218 27.9431 74.305 27.4878 74.305 26.5772V23.7886H74.3624Z" fill="#333333"/>
<path d="M77.8079 21H78.497V23.8455C78.6119 23.6748 78.7267 23.561 78.899 23.4472C79.1861 23.2764 79.5307 23.0488 80.0475 23.0488C81.196 23.0488 82 23.8455 82 25.0407V27.8293H81.3109V25.0407C81.3109 24.187 80.7941 23.6748 80.0475 23.6748C79.1861 23.6748 78.5545 24.3008 78.5545 25.2683V27.8862H77.8653V21H77.8079Z" fill="#333333"/>
<path d="M7.63944 7.43986C10.9135 7.43986 12.997 8.79713 12.997 11.2603C12.997 13.8241 10.8639 15.2316 6.99456 15.2316H0V15.0808C1.24017 14.93 1.58742 14.4776 1.58742 12.9695V2.11131C1.58742 0.804309 1.19056 0.351885 0 0.150808V0H6.84574C10.4174 0 12.2033 1.20646 12.2033 3.61939C12.2033 5.78097 10.4174 7.18851 7.58984 7.33932V7.43986H7.63944ZM4.56382 0.452424V7.23878H5.80399C8.13551 7.23878 9.12765 6.13285 9.12765 3.7702C9.12765 1.55835 8.0363 0.452424 5.80399 0.452424H4.56382ZM6.34967 14.7792C8.48276 14.7792 9.77254 13.5224 9.77254 11.2603C9.77254 8.8474 8.58197 7.6912 6.20085 7.6912H4.56382V14.7792H6.34967Z" fill="#333333"/>
<path d="M24.3073 11.3609C23.8113 14.2262 22.075 15.5835 19.8923 15.5835C18.5033 15.5835 17.3128 15.0808 16.4198 14.1257C15.5269 13.1706 15.0309 11.763 15.0309 9.95332C15.0309 8.19389 15.4773 6.73608 16.3702 5.57989C17.2632 4.47397 18.4537 3.921 19.9915 3.921C21.2317 3.921 22.2238 4.32316 23.0672 5.17774C23.8609 5.98205 24.2081 7.18851 24.1585 8.74686H17.0647C17.2136 11.7127 18.7514 13.4722 21.0333 13.4722C22.4719 13.4722 23.5136 12.9695 24.1089 11.3609H24.3073ZM17.0647 8.24416H21.6782C21.6782 5.63016 20.8845 4.4237 19.4955 4.4237C18.0073 4.4237 17.0647 5.88151 17.0647 8.24416Z" fill="#333333"/>
<path d="M27.5318 14.0251C26.6389 13.0197 26.1924 11.6625 26.1924 10.0036C26.1924 8.14363 26.6885 6.68582 27.7302 5.57989C28.7223 4.47397 30.0617 3.921 31.6987 3.921C33.0381 3.921 34.2287 4.17235 35.2208 4.67504L34.4767 8.49551H34.3279C34.2287 6.23339 33.2366 4.92639 31.4011 4.92639C29.3176 4.92639 28.1767 6.3842 28.1767 8.84739C28.1767 10.1041 28.5735 11.1598 29.268 12.0646C30.0121 13.0197 31.0042 13.4722 32.2444 13.4722C33.8318 13.4722 34.8736 12.7684 35.2704 11.3609L35.4689 11.4111C35.2208 13.9749 33.5838 15.5835 31.2027 15.5835C29.6153 15.5332 28.4247 15.0305 27.5318 14.0251Z" fill="#333333"/>
<path d="M48.317 13.1203C47.9698 14.6786 46.9776 15.5332 45.539 15.5332C44.2989 15.5332 43.5548 14.7792 43.5052 13.623L43.4556 13.3716C43.1579 14.5278 41.9673 15.5332 40.2807 15.5332C38.3957 15.5332 37.2547 14.377 37.2547 12.8689C37.2547 11.009 38.5941 9.80251 41.2729 9.24955L43.4059 8.8474V8.3447C43.4059 6.33393 42.513 5.32855 40.7768 5.32855C39.1894 5.32855 38.1476 6.13286 37.7508 7.84201L37.602 7.79174C37.9492 5.37882 39.5366 3.87074 42.017 3.87074C44.6957 3.87074 46.0351 5.47935 46.0351 8.24417V13.0197C46.0351 13.8241 46.3327 14.2262 46.928 14.2262C47.5233 14.2262 47.9202 13.8241 48.1186 13.07L48.317 13.1203ZM43.4059 13.07V9.35009L42.1162 9.55117C40.5288 9.85278 39.735 10.7074 39.735 12.1149C39.735 13.3214 40.3799 14.2262 41.5209 14.2262C42.4634 14.2765 43.0587 13.8743 43.4059 13.07Z" fill="#333333"/>
<path d="M59.5778 13.5224C59.5778 14.5781 59.9746 14.93 61.0163 15.0808V15.2316H56.899V13.3214C56.4525 14.6284 55.1627 15.5835 53.6745 15.5835C51.5911 15.5835 50.4005 14.4273 50.4005 12.0144V6.28367C50.4005 5.0772 50.1029 4.77559 48.9123 4.82586V4.67505L53.0297 3.97128V11.8133C53.0297 13.3716 53.7738 14.2262 55.0139 14.1759C55.9068 14.1759 56.5021 13.7235 56.8494 12.9695V6.28367C56.8494 5.0772 56.6013 4.77559 55.5596 4.77559V4.62478L59.5281 3.97128V13.5224H59.5778Z" fill="#333333"/>
<path d="M62.6534 14.4273L63.2486 11.21H63.4471C63.7447 13.3716 65.2825 14.8294 67.1676 14.8294C68.507 14.8294 69.3007 14.1257 69.3007 13.07C69.3007 12.316 68.755 11.7127 67.7133 11.3106L65.0841 10.2047C63.6951 9.60143 62.951 8.64632 62.951 7.28905C62.951 5.32854 64.4888 3.82046 67.2668 3.82046C68.6062 3.82046 69.7967 4.12208 70.7393 4.67504L70.0944 7.54039H69.896C69.4495 5.47935 68.3581 4.4237 66.5723 4.4237C65.2329 4.4237 64.588 5.0772 64.588 5.98204C64.588 6.73608 65.0841 7.33931 66.0266 7.6912L68.6062 8.74685C70.0944 9.35009 70.8385 10.3555 70.8385 11.6625C70.8385 13.8743 69.1519 15.4829 66.4731 15.4829C65.0345 15.5332 63.7447 15.1813 62.6534 14.4273Z" fill="#333333"/>
<path d="M82 11.3609C81.504 14.2262 79.7677 15.5835 77.585 15.5835C76.196 15.5835 75.0055 15.0808 74.1125 14.1257C73.2196 13.1706 72.7235 11.763 72.7235 9.95332C72.7235 8.19389 73.17 6.73608 74.0629 5.57989C74.9559 4.47397 76.1464 3.921 77.6842 3.921C78.9244 3.921 79.9165 4.32316 80.7598 5.17774C81.5536 5.98205 81.9008 7.18851 81.8512 8.74686H74.7078C74.8566 11.7127 76.3945 13.4722 78.6764 13.4722C80.115 13.4722 81.1567 12.9695 81.752 11.3609H82ZM74.7574 8.24416H79.3709C79.3709 5.63016 78.5772 4.4237 77.1882 4.4237C75.7496 4.4237 74.7574 5.88151 74.7574 8.24416Z" fill="#333333"/>
</svg>
