<svg width="100" height="35" viewBox="0 0 100 35" fill="none" xmlns="http://www.w3.org/2000/svg">
<path d="M64.6348 25.6097H65.5452V29.2881H70.2373V25.6097H71.1477V34.0075H70.2373V30.1209H65.5452V33.9381H64.6348V25.6097Z" fill="white"/>
<path d="M78.501 32.8971C78.3609 33.1053 78.1508 33.3135 77.8707 33.5217C77.4505 33.7993 76.8902 34.1463 76.0499 34.1463C74.4391 34.1463 73.1786 32.8277 73.1786 31.162C73.1786 29.4963 74.5092 28.1777 76.0499 28.1777C77.6606 28.1777 78.8511 29.3575 78.8511 31.0232C78.8511 31.162 78.8511 31.2314 78.7811 31.3008V31.4396H74.089C74.159 32.4807 75.0694 33.3829 76.1199 33.3829C76.7502 33.3829 77.1704 33.1747 77.5205 32.8971C77.7306 32.7583 77.8707 32.6195 78.0107 32.4112L78.501 32.8971ZM77.9407 30.6762C77.8007 29.6351 77.0303 28.8717 75.9798 28.8717C74.9294 28.8717 74.089 29.7045 74.019 30.6762H77.9407Z" fill="white"/>
<path d="M84.0335 33.1747C83.8934 33.3135 83.7534 33.5217 83.5433 33.6605C83.1931 33.8687 82.7729 34.0769 82.1426 34.0769C80.9521 34.0769 80.1117 33.2441 80.1117 32.4112C80.1117 31.4396 80.672 30.8844 81.7925 30.6762L84.0335 30.3292C84.0335 29.4963 83.4732 28.8717 82.5628 28.8717C82.0726 28.8717 81.6524 29.0799 81.3723 29.2881C81.2322 29.4269 81.0922 29.5657 80.9521 29.7045L80.3918 29.1493C80.5319 28.9411 80.742 28.7329 80.9521 28.5941C81.3022 28.3165 81.8625 28.0388 82.5628 28.0388C83.8934 28.0388 84.8739 29.0105 84.8739 30.2597V33.9381H84.0335V33.1747ZM84.0335 31.0232L82.0726 31.3702C81.3723 31.509 80.9521 31.856 80.9521 32.4112C80.9521 32.8971 81.3723 33.3135 82.1426 33.3135C83.2631 33.3135 84.0335 32.5501 84.0335 31.3702V31.0232Z" fill="white"/>
<path d="M87.1149 25.6097H87.9552V34.0075H87.1149V25.6097Z" fill="white"/>
<path d="M90.6865 29.0105H89.566V28.2471H90.1962C90.5464 28.2471 90.6865 28.0389 90.6865 27.6224V26.3038H91.4568V28.2471H92.7174V29.0105H91.4568V32.4112C91.4568 33.0359 91.7369 33.3135 92.2271 33.3135C92.4372 33.3135 92.6473 33.2441 92.7874 33.2441C92.8574 33.1747 92.9275 33.1747 92.9975 33.1747V33.9381C92.9275 34.0075 92.8574 34.0075 92.7874 34.0075C92.6473 34.0769 92.4372 34.0769 92.2271 34.0769C91.2467 34.0769 90.6164 33.5217 90.6164 32.4112V29.0105H90.6865Z" fill="white"/>
<path d="M94.8883 25.6097H95.7287V29.0799C95.8688 28.8717 96.0088 28.7329 96.2189 28.5941C96.5691 28.3859 96.9893 28.1083 97.6195 28.1083C99.0202 28.1083 100.001 29.0799 100.001 30.5374V33.9381H99.1602V30.5374C99.1602 29.4963 98.5299 28.8717 97.6195 28.8717C96.5691 28.8717 95.7987 29.6351 95.7987 30.815V34.0075H94.9584V25.6097H94.8883Z" fill="white"/>
<path d="M9.31639 9.07299C13.3091 9.07299 15.85 10.7282 15.85 13.7321C15.85 16.8586 13.2486 18.5751 8.52994 18.5751H0V18.3912C1.5124 18.2073 1.93587 17.6556 1.93587 15.8164V2.57477C1.93587 0.980864 1.45191 0.429128 0 0.183912V0H8.34846C12.7042 0 14.882 1.4713 14.882 4.41389C14.882 7.04996 12.7042 8.76647 9.2559 8.95039V9.07299H9.31639ZM5.56564 0.551736V8.82778H7.07804C9.92135 8.82778 11.1313 7.47909 11.1313 4.5978C11.1313 1.90042 9.80036 0.551736 7.07804 0.551736H5.56564ZM7.74349 18.0234C10.3448 18.0234 11.9177 16.4908 11.9177 13.7321C11.9177 10.7895 10.4658 9.37951 7.56201 9.37951H5.56564V18.0234H7.74349Z" fill="white"/>
<path d="M29.6431 13.8547C29.0381 17.349 26.9207 19.0042 24.2589 19.0042C22.565 19.0042 21.1131 18.3912 20.0242 17.2264C18.9353 16.0616 18.3303 14.3451 18.3303 12.1382C18.3303 9.99255 18.8748 8.21474 19.9637 6.80474C21.0526 5.45605 22.5045 4.78171 24.3799 4.78171C25.8923 4.78171 27.1022 5.27214 28.1307 6.31431C29.0986 7.29518 29.5221 8.76647 29.4616 10.6669H20.8106C20.9921 14.2838 22.8675 16.4295 25.6503 16.4295C27.4047 16.4295 28.6751 15.8164 29.4011 13.8547H29.6431ZM20.8106 10.0539H26.4368C26.4368 6.86605 25.4688 5.39475 23.775 5.39475C21.9601 5.39475 20.8106 7.17257 20.8106 10.0539Z" fill="white"/>
<path d="M33.5753 17.1038C32.4864 15.8777 31.9419 14.2225 31.9419 12.1995C31.9419 9.93125 32.5469 8.15343 33.8173 6.80474C35.0272 5.45605 36.6606 4.78171 38.657 4.78171C40.2904 4.78171 41.7423 5.08823 42.9522 5.70127L42.0448 10.3604H41.8633C41.7423 7.60169 40.5324 6.00779 38.294 6.00779C35.7532 6.00779 34.3618 7.78561 34.3618 10.7895C34.3618 12.3221 34.8457 13.6095 35.6927 14.713C36.6001 15.8777 37.81 16.4295 39.3224 16.4295C41.2583 16.4295 42.5287 15.5712 43.0127 13.8547L43.2547 13.916C42.9522 17.0425 40.9558 19.0042 38.052 19.0042C36.1162 18.9429 34.6643 18.3299 33.5753 17.1038Z" fill="white"/>
<path d="M58.9232 16.0003C58.4997 17.9008 57.2898 18.9429 55.5354 18.9429C54.023 18.9429 53.1156 18.0234 53.0551 16.6134L52.9946 16.3069C52.6316 17.7169 51.1797 18.9429 49.1228 18.9429C46.824 18.9429 45.4326 17.5329 45.4326 15.6938C45.4326 13.4256 47.0659 11.9543 50.3327 11.2799L52.9341 10.7895V10.1765C52.9341 7.72431 51.8451 6.49823 49.7278 6.49823C47.7919 6.49823 46.5215 7.47909 46.0375 9.56343L45.856 9.50212C46.2795 6.55953 48.2154 4.72041 51.2402 4.72041C54.507 4.72041 56.1404 6.68214 56.1404 10.0539V15.8777C56.1404 16.8586 56.5033 17.349 57.2293 17.349C57.9552 17.349 58.4392 16.8586 58.6812 15.939L58.9232 16.0003ZM52.9341 15.939V11.4025L51.3612 11.6478C49.4253 12.0156 48.4574 13.0578 48.4574 14.7743C48.4574 16.2456 49.2438 17.349 50.6352 17.349C51.7846 17.4103 52.5106 16.9199 52.9341 15.939Z" fill="white"/>
<path d="M72.6558 16.4908C72.6558 17.7782 73.1397 18.2073 74.4102 18.3912V18.5751H69.389V16.2456C68.8445 17.8395 67.2716 19.0042 65.4567 19.0042C62.9159 19.0042 61.464 17.5943 61.464 14.6517V7.66301C61.464 6.19171 61.101 5.82389 59.6491 5.88519V5.70128L64.6703 4.84302V14.4064C64.6703 16.3069 65.5777 17.349 67.0901 17.2877C68.1791 17.2877 68.905 16.736 69.3285 15.8164V7.66301C69.3285 6.19171 69.026 5.82389 67.7556 5.82389V5.63998L72.5953 4.84302V16.4908H72.6558Z" fill="white"/>
<path d="M76.4065 17.5942L77.1325 13.6708H77.3745C77.7374 16.3069 79.6128 18.0847 81.9117 18.0847C83.5451 18.0847 84.513 17.2264 84.513 15.939C84.513 15.0195 83.8475 14.2838 82.5771 13.7934L79.3708 12.4447C77.6769 11.7091 76.7695 10.5443 76.7695 8.88908C76.7695 6.49822 78.6449 4.6591 82.0327 4.6591C83.6661 4.6591 85.118 5.02693 86.2674 5.70127L85.4809 9.1956H85.2389C84.6945 6.68213 83.3636 5.39475 81.1857 5.39475C79.5523 5.39475 78.7659 6.1917 78.7659 7.29517C78.7659 8.21473 79.3708 8.95038 80.5203 9.37951L83.666 10.6669C85.4809 11.4025 86.3884 12.6286 86.3884 14.2225C86.3884 16.9199 84.3315 18.8816 81.0647 18.8816C79.3103 18.9429 77.7374 18.5138 76.4065 17.5942Z" fill="white"/>
<path d="M100 13.8547C99.395 17.349 97.2777 19.0042 94.6158 19.0042C92.922 19.0042 91.47 18.3912 90.3811 17.2264C89.2922 16.0616 88.6872 14.3451 88.6872 12.1382C88.6872 9.99255 89.2317 8.21474 90.3206 6.80474C91.4096 5.45605 92.8615 4.78171 94.7368 4.78171C96.2493 4.78171 97.4592 5.27214 98.4876 6.31431C99.4555 7.29518 99.879 8.76647 99.8185 10.6669H91.1071C91.2886 14.2838 93.1639 16.4295 95.9468 16.4295C97.7011 16.4295 98.9716 15.8164 99.6975 13.8547H100ZM91.1676 10.0539H96.7937C96.7937 6.86605 95.8258 5.39475 94.1319 5.39475C92.3775 5.39475 91.1676 7.17257 91.1676 10.0539Z" fill="white"/>
</svg>
