<svg width="16" height="16" viewBox="0 0 16 16" fill="none" xmlns="http://www.w3.org/2000/svg">
<path d="M6.3678 9.26184L4.50966 7.43711L3.36842 8.56296L6.36942 11.5088L11.7895 6.17689L10.6466 5.05263L6.3678 9.26184Z" fill="#333333"/>
<path d="M8 0C3.5888 0 0 3.5888 0 8C0 12.4112 3.5888 16 8 16C12.4112 16 16 12.4112 16 8C16 3.5888 12.4112 0 8 0ZM8 14.4C4.4712 14.4 1.6 11.5288 1.6 8C1.6 4.4712 4.4712 1.6 8 1.6C11.5288 1.6 14.4 4.4712 14.4 8C14.4 11.5288 11.5288 14.4 8 14.4Z" fill="#333333"/>
</svg>
