<svg width="16" height="16" viewBox="0 0 16 16" fill="none" xmlns="http://www.w3.org/2000/svg">
<path d="M14.87 3.32308L12.27 0.246154C12.14 0.0615385 11.945 0 11.75 0H2.65C2.26 0 2 0.246154 2 0.615385V15.3846C2 15.7538 2.26 16 2.65 16H14.35C14.74 16 15 15.7538 15 15.3846V3.69231C15 3.56923 14.935 3.44615 14.87 3.32308ZM13.7 14.7692H3.3V1.23077H11.425L13.7 3.93846V14.7692Z" fill="#333333"/>
<path d="M3.95 13.0462C3.95 13.4154 4.21 13.6615 4.6 13.6615H12.4C12.79 13.6615 13.05 13.4154 13.05 13.0462C13.05 12.6769 12.79 12.4308 12.4 12.4308H4.6C4.21 12.4308 3.95 12.6769 3.95 13.0462Z" fill="#333333"/>
<path d="M8.76 9.23077H7.2C6.81 9.23077 6.55 9.47692 6.55 9.84615C6.55 10.2154 6.81 10.4615 7.2 10.4615H7.85C7.85 10.8308 8.11 11.0769 8.5 11.0769C8.89 11.0769 9.15 10.8308 9.15 10.4615V10.4C10.06 10.2154 10.58 9.29231 10.385 8.49231C10.19 7.75385 9.54 7.26154 8.76 7.26154H8.24C8.045 7.26154 7.85 7.07692 7.85 6.89231C7.85 6.70769 8.045 6.52308 8.24 6.52308H9.28C9.67 6.52308 9.93 6.27692 9.93 5.90769C9.93 5.53846 9.67 5.29231 9.28 5.29231H9.15V4.92308C9.15 4.55385 8.89 4.30769 8.5 4.30769C8.11 4.30769 7.85 4.55385 7.85 4.92308V5.35385C6.94 5.53846 6.42 6.4 6.615 7.26154C6.81 8 7.46 8.49231 8.24 8.49231H8.76C8.955 8.49231 9.15 8.67692 9.15 8.86154C9.15 9.04615 8.955 9.23077 8.76 9.23077Z" fill="#333333"/>
</svg>
