<svg width="12" height="16" viewBox="0 0 12 16" fill="none" xmlns="http://www.w3.org/2000/svg">
<path fill-rule="evenodd" clip-rule="evenodd" d="M11.4205 11.1728C11.2697 12.4984 10.6031 13.7248 9.54898 14.6159C8.49488 15.507 7.12774 16 5.71054 16C4.29335 16 2.9262 15.507 1.8721 14.6159C0.818008 13.7248 0.151414 12.4984 0.000555114 11.1728C-0.0647019 8.1801 5.64529 0 5.64529 0C5.64529 0 11.4205 8.1801 11.4205 11.1728Z" fill="#333333"/>
<path fill-rule="evenodd" clip-rule="evenodd" d="M11.4205 11.1728C11.2697 12.4984 10.6031 13.7248 9.54898 14.6159C8.49488 15.507 7.12774 16 5.71054 16C4.29335 16 2.9262 15.507 1.8721 14.6159C0.818008 13.7248 0.151414 12.4984 0.000555114 11.1728C-0.0647019 8.1801 5.64529 0 5.64529 0C5.64529 0 11.4205 8.1801 11.4205 11.1728Z" fill="#333333"/>
</svg>
