<svg width="28" height="18" viewBox="0 0 28 18" fill="none" xmlns="http://www.w3.org/2000/svg">
<path d="M6.20016 11.6111H5.70016V12.6111H6.20016V11.6111ZM21.8002 12.6111H22.3002V11.6111H21.8002V12.6111ZM1.5 2.77778C1.5 2.06007 2.06404 1.5 2.73333 1.5V0.5C1.48804 0.5 0.5 1.5318 0.5 2.77778H1.5ZM2.73333 1.5H25.2667V0.5H2.73333V1.5ZM25.2667 1.5C25.936 1.5 26.5 2.06007 26.5 2.77778H27.5C27.5 1.5318 26.512 0.5 25.2667 0.5V1.5ZM26.5 2.77778V15.2222H27.5V2.77778H26.5ZM26.5 15.2222C26.5 15.9399 25.936 16.5 25.2667 16.5V17.5C26.512 17.5 27.5 16.4682 27.5 15.2222H26.5ZM25.2667 16.5H2.73333V17.5H25.2667V16.5ZM2.73333 16.5C2.06404 16.5 1.5 15.9399 1.5 15.2222H0.5C0.5 16.4682 1.48804 17.5 2.73333 17.5V16.5ZM1.5 15.2222V2.77778H0.5V15.2222H1.5ZM6.70016 6.33333C6.70016 6.10655 6.87618 5.94444 7.06683 5.94444V4.94444C6.30018 4.94444 5.70016 5.57828 5.70016 6.33333H6.70016ZM7.06683 5.94444H9.66683V4.94444H7.06683V5.94444ZM9.66683 5.94444C9.85747 5.94444 10.0335 6.10655 10.0335 6.33333H11.0335C11.0335 5.57828 10.4335 4.94444 9.66683 4.94444V5.94444ZM10.0335 6.33333V7.22222H11.0335V6.33333H10.0335ZM10.0335 7.22222C10.0335 7.44901 9.85747 7.61111 9.66683 7.61111V8.61111C10.4335 8.61111 11.0335 7.97728 11.0335 7.22222H10.0335ZM9.66683 7.61111H7.06683V8.61111H9.66683V7.61111ZM7.06683 7.61111C6.87618 7.61111 6.70016 7.44901 6.70016 7.22222H5.70016C5.70016 7.97728 6.30018 8.61111 7.06683 8.61111V7.61111ZM6.70016 7.22222V6.33333H5.70016V7.22222H6.70016ZM6.20016 12.6111H21.8002V11.6111H6.20016V12.6111Z" fill="#333333"/>
</svg>
