<svg width="48" height="41" viewBox="0 0 48 41" fill="none" xmlns="http://www.w3.org/2000/svg">
<path d="M19.922 30.6785C18.0548 30.6785 14.9507 30.3005 13.1491 29.8535C12.9603 29.8071 12.7619 29.8471 12.6067 29.9641L5.89612 34.9925L8.39378 28.1234C8.49938 27.8335 8.38898 27.5131 8.12817 27.3513C3.84648 24.6937 1.29283 20.4438 1.29283 15.9856C1.29283 7.88469 9.6498 1.29277 19.9236 1.29277C29.0486 1.29277 36.6472 6.49581 38.236 13.336C38.7048 13.4338 39.1656 13.5475 39.6168 13.6805C38.2168 5.95596 29.9318 0 19.9236 0C8.93938 0 0 7.17182 0 15.9872C0 20.7386 2.60804 25.256 7.00174 28.1683L3.93768 36.5912C3.84008 36.8604 3.92967 37.1615 4.16007 37.3313C4.27528 37.4146 4.4097 37.4595 4.5457 37.4595C4.6817 37.4595 4.81769 37.4162 4.93289 37.3297L13.1395 31.1815C15.0755 31.6236 18.0356 31.9729 19.922 31.9729C20.2676 31.9729 20.6116 31.9504 20.9556 31.9376C20.682 31.5275 20.4356 31.103 20.2196 30.6689C20.1204 30.6689 20.0212 30.6785 19.922 30.6785Z" fill="#333333"/>
<path d="M47.9999 25.7636C47.9999 19.7627 41.9374 14.8817 34.4876 14.8817C27.0395 14.8817 20.9785 19.7627 20.9785 25.7636C20.9785 31.766 27.0395 36.6471 34.4876 36.6471C35.7356 36.6471 37.6765 36.4228 38.9821 36.1328L44.6654 40.0127C44.7758 40.088 44.9038 40.1248 45.0302 40.1248C45.0398 40.1232 45.0479 40.1232 45.0559 40.1248C45.4127 40.1248 45.7022 39.8349 45.7006 39.4777C45.7006 39.3607 45.6718 39.2518 45.6158 39.1573L44.1678 33.1645C46.8847 31.3511 47.9999 29.1757 47.9999 25.7636ZM43.0942 32.3202C42.8574 32.4676 42.7422 32.7512 42.8078 33.0219L44.0094 37.9959L39.4781 34.9025C39.3709 34.8273 39.2429 34.7888 39.1133 34.7888C39.0621 34.7888 39.0109 34.7952 38.9597 34.8096C37.7693 35.1044 35.7244 35.3527 34.4892 35.3527C27.7547 35.3527 22.273 31.0499 22.273 25.7636C22.273 20.4772 27.7547 16.176 34.4892 16.176C41.2269 16.176 46.7087 20.4772 46.7087 25.7636C46.7071 28.9066 45.7294 30.6831 43.0942 32.3202Z" fill="#333333"/>
</svg>
