<svg width="29" height="16" viewBox="0 0 29 16" fill="none" xmlns="http://www.w3.org/2000/svg">
<path d="M23.79 11.4141C22.8482 11.4141 22.0776 12.1846 22.0776 13.1264C22.0776 14.0736 22.8482 14.8388 23.79 14.8388C24.7372 14.8388 25.5024 14.0736 25.5024 13.1264C25.5024 12.1846 24.7318 11.4141 23.79 11.4141ZM23.79 13.699C23.4743 13.699 23.2174 13.4422 23.2174 13.1264C23.2174 12.8107 23.4743 12.5539 23.79 12.5539C24.1057 12.5539 24.3626 12.8107 24.3626 13.1264C24.3626 13.4422 24.1004 13.699 23.79 13.699Z" fill="#F7F7F7"/>
<path d="M10.6582 11.4141C9.71637 11.4141 8.9458 12.1846 8.9458 13.1264C8.9458 14.0736 9.71102 14.8388 10.6582 14.8388C11.6053 14.8388 12.3705 14.0736 12.3705 13.1264C12.3705 12.1846 11.6053 11.4141 10.6582 11.4141ZM10.6582 13.699C10.3425 13.699 10.0856 13.4422 10.0856 13.1264C10.0856 12.8107 10.3425 12.5539 10.6582 12.5539C10.9739 12.5539 11.2308 12.8107 11.2308 13.1264C11.2308 13.4422 10.9739 13.699 10.6582 13.699Z" fill="#F7F7F7"/>
<path d="M6.66602 12.5592H7.86468C8.12689 11.2589 9.28274 10.2742 10.658 10.2742C12.0386 10.2742 13.1891 11.2535 13.4567 12.5592H19.2199V1.14514H6.66602V12.5592Z" fill="#869CAE"/>
<path d="M20.392 4.56458H20.3599V12.5539H20.9913C21.2535 11.2535 22.4094 10.2689 23.7846 10.2689C25.1652 10.2689 26.3157 11.2482 26.5833 12.5539H27.204L27.2147 8.46023L23.303 4.56458H20.392Z" fill="white"/>
<path d="M10.658 12.5592C10.3423 12.5592 10.0854 12.8161 10.0854 13.1318C10.0854 13.4475 10.3423 13.7044 10.658 13.7044C10.9737 13.7044 11.2306 13.4475 11.2306 13.1318C11.2306 12.8161 10.9737 12.5592 10.658 12.5592Z" fill="#333333"/>
<path d="M23.7739 3.4301L20.3973 3.42475H20.3652V1.1398C20.3652 0.508361 19.8569 0 19.2254 0H6.66624C6.0348 0 5.52644 0.513712 5.52644 1.1398H1.52912C1.2134 1.1398 0.956543 1.39666 0.956543 1.71237C0.956543 2.02809 1.2134 2.28495 1.52912 2.28495H5.52644V4.5699H2.66892C2.3532 4.5699 2.09634 4.82676 2.09634 5.14247C2.09634 5.45819 2.3532 5.71505 2.66892 5.71505H5.52109V8H3.80872C3.493 8 3.23614 8.25686 3.23614 8.57257C3.23614 8.88829 3.493 9.14515 3.80872 9.14515H5.52109V11.4301H4.95387C4.63815 11.4301 4.38129 11.687 4.38129 12.0027C4.38129 12.3184 4.63815 12.5753 4.95387 12.5753H5.52644C5.52644 13.2067 6.0348 13.715 6.66624 13.715H7.8649C8.12711 15.0154 9.28296 16 10.6582 16C12.0388 16 13.1893 15.0207 13.4569 13.715H19.2201H20.9913C21.2535 15.0154 22.4094 16 23.7846 16C25.1652 16 26.3157 15.0207 26.5833 13.715H28.3438L28.3545 8.00535L23.7739 3.4301ZM10.6582 14.8388C9.71641 14.8388 8.94584 14.0736 8.94584 13.1264C8.94584 12.1846 9.71106 11.414 10.6582 11.414C11.6054 11.414 12.3706 12.1846 12.3706 13.1264C12.3706 14.0736 11.6054 14.8388 10.6582 14.8388ZM23.79 14.8388C22.8482 14.8388 22.0776 14.0736 22.0776 13.1264C22.0776 12.1846 22.8482 11.414 23.79 11.414C24.7371 11.414 25.5024 12.1846 25.5024 13.1264C25.5024 14.0736 24.7318 14.8388 23.79 14.8388ZM27.204 12.5592H26.5833C26.3211 11.2589 25.1652 10.2742 23.7846 10.2742C22.404 10.2742 21.2535 11.2535 20.9913 12.5592H20.3599V4.5699H20.392H23.2977L27.2094 8.46555L27.204 12.5592Z" fill="#333333"/>
<path d="M23.7899 12.5592C23.4741 12.5592 23.2173 12.8161 23.2173 13.1318C23.2173 13.4475 23.4741 13.7044 23.7899 13.7044C24.1056 13.7044 24.3624 13.4475 24.3624 13.1318C24.3624 12.8161 24.1002 12.5592 23.7899 12.5592Z" fill="#333333"/>
<path d="M19.2199 1.13977V12.5538H13.4567C13.1944 11.2535 12.0386 10.2689 10.658 10.2689C9.27739 10.2689 8.12689 11.2481 7.86468 12.5538H6.66602V1.13977H19.2199Z" fill="white"/>
</svg>
