<svg width="26" height="16" viewBox="0 0 26 16" fill="none" xmlns="http://www.w3.org/2000/svg">
<path d="M23.1616 8.1791C23.9069 7.52239 24.3942 6.53731 24.3942 5.46269C24.3942 3.49254 22.8463 1.91045 20.983 1.91045C19.0911 1.91045 17.5719 3.52239 17.5719 5.46269C17.5719 6.56716 18.0592 7.55224 18.8045 8.1791C18.1738 8.50746 17.6292 8.92537 17.1706 9.49254C16.5972 9.01493 15.9379 8.62687 15.2213 8.35821C16.5113 7.58209 17.3712 6.1194 17.3712 4.47761C17.3712 2 15.4506 0 13.0714 0C10.6922 0 8.7716 2 8.7716 4.47761C8.7716 6.1194 9.63156 7.58209 10.9215 8.35821C10.2049 8.62687 9.54557 9.01493 8.97226 9.49254C8.51361 8.95522 7.96897 8.50746 7.33833 8.1791C8.08363 7.52239 8.57094 6.53731 8.57094 5.46269C8.57094 3.49254 7.02302 1.91045 5.15977 1.91045C3.29652 1.91045 1.66259 3.49254 1.66259 5.46269C1.66259 6.56716 2.1499 7.55224 2.8952 8.1791C1.17528 9.04478 0 10.8657 0 12.9552C0 13.6119 0.515977 14.1194 1.11795 14.1194H6.44971C6.42104 14.3582 6.42104 14.597 6.42104 14.8358C6.42104 15.4925 6.93702 16 7.53899 16H18.4605C19.0911 16 19.5784 15.4627 19.5784 14.8358C19.5784 14.597 19.5498 14.3582 19.5498 14.1194H24.8815C25.5122 14.1194 25.9995 13.6119 25.9995 12.9552C26.0282 10.8657 24.8529 9.04478 23.1616 8.1791ZM18.6612 5.46269C18.6612 4.14925 19.6931 3.07463 20.9544 3.07463C22.2157 3.07463 23.2476 4.14925 23.2476 5.46269C23.2476 6.77612 22.2157 7.85075 20.9544 7.85075C19.6931 7.85075 18.6612 6.77612 18.6612 5.46269ZM9.83222 4.47761C9.83222 2.65672 11.2655 1.16418 13.0141 1.16418C14.7627 1.16418 16.1959 2.65672 16.1959 4.47761C16.1959 6.29851 14.7627 7.79105 13.0141 7.79105C11.2655 7.79105 9.83222 6.29851 9.83222 4.47761ZM2.78054 5.46269C2.78054 4.14925 3.81249 3.07463 5.07377 3.07463C6.33505 3.07463 7.367 4.14925 7.367 5.46269C7.367 6.77612 6.33505 7.85075 5.07377 7.85075C3.81249 7.85075 2.78054 6.77612 2.78054 5.46269ZM1.11795 12.9552C1.11795 10.6866 2.8952 8.83582 5.07377 8.83582C6.27772 8.83582 7.367 9.40299 8.08363 10.2985C7.453 11.0448 6.96568 11.9702 6.67903 12.9552H1.11795ZM18.4892 14.8358H7.53899C7.53899 14.597 7.56766 14.3582 7.59632 14.1194C7.65365 13.7015 7.73965 13.3134 7.85431 12.9552C8.05497 12.3582 8.34162 11.8209 8.71427 11.3433C8.97226 11.0149 9.23025 10.7164 9.54557 10.4478C10.4915 9.64179 11.6955 9.16418 13.0141 9.16418C14.3327 9.16418 15.5366 9.64179 16.4826 10.4478C16.7979 10.7164 17.0559 11.0149 17.3139 11.3433C17.6865 11.8209 17.9732 12.3582 18.1738 12.9552C18.2885 13.3134 18.4032 13.7313 18.4318 14.1194C18.4605 14.3582 18.4892 14.597 18.4892 14.8358ZM19.3491 12.9552C19.0625 11.9702 18.5752 11.0448 17.9445 10.2985C18.6612 9.40299 19.7504 8.83582 20.9544 8.83582C23.1329 8.83582 24.9102 10.6866 24.9102 12.9552H19.3491Z" fill="#333333"/>
</svg>
