<svg width="16" height="16" viewBox="0 0 16 16" fill="none" xmlns="http://www.w3.org/2000/svg">
<path d="M14.4624 3.20541C10.3878 2.68284 8.04989 0.289118 7.94969 0.187975C7.8161 0.0531172 7.6324 -0.0143115 7.44871 0.00254569C7.29842 0.0194029 7.16482 0.0868316 7.06462 0.187975C7.04792 0.204832 4.72671 2.66598 0.551868 3.20541C0.23458 3.23912 -0.0159104 3.55941 0.000789009 3.8797C0.635365 12.7803 6.98113 15.8314 7.24832 15.9494C7.33181 15.9831 7.41531 16 7.49881 16C7.58231 16 7.6658 15.9831 7.7493 15.9494C8.01649 15.8314 14.3623 12.7803 14.9968 3.8797C15.0302 3.54255 14.7964 3.23912 14.4624 3.20541ZM7.51551 14.6851C6.41335 14.0614 1.98801 11.1451 1.26994 4.33484C4.52632 3.77855 6.64714 2.21084 7.51551 1.45226C8.40057 2.22769 10.5381 3.79541 13.7444 4.3517C13.043 11.1957 8.65106 14.0614 7.51551 14.6851Z" fill="#333333"/>
<path d="M10.4701 6C8.99078 7.70897 6.68206 10.3761 6.68206 10.3761L5 8.72822" stroke="#333333" stroke-linecap="round" stroke-linejoin="round"/>
</svg>
