<svg width="16" height="16" viewBox="0 0 16 16" fill="none" xmlns="http://www.w3.org/2000/svg">
<path fill-rule="evenodd" clip-rule="evenodd" d="M13.5129 12.4444C11.7601 7.90489 9.71422 6.70844 9.71422 4.44444V1.77778H10.1428C10.2564 1.77778 10.3654 1.73095 10.4458 1.6476C10.5262 1.56425 10.5713 1.45121 10.5713 1.33333V0.444444C10.5713 0.32657 10.5262 0.213524 10.4458 0.130175C10.3654 0.0468252 10.2564 0 10.1428 0H5.85723C5.74357 0 5.63456 0.0468252 5.55419 0.130175C5.47382 0.213524 5.42867 0.32657 5.42867 0.444444V1.33333C5.42867 1.45121 5.47382 1.56425 5.55419 1.6476C5.63456 1.73095 5.74357 1.77778 5.85723 1.77778H6.28578V4.44444C6.28578 6.70844 4.23986 7.90489 2.48707 12.4444C1.9291 13.8889 0.496009 16 8 16C15.504 16 14.0709 13.8889 13.5129 12.4444ZM12.127 14.0009C11.5253 14.1876 10.3279 14.4 8 14.4C5.67209 14.4 4.47471 14.1876 3.87302 14.0009C3.6596 13.9351 3.57646 13.6782 3.65189 13.4427C3.84045 12.8471 4.19615 11.8178 4.86127 10.6684C6.48635 7.86044 8.17228 11.1102 9.57537 11.1102C10.9785 11.1102 10.5936 9.72267 11.1387 10.6684C11.6404 11.5435 12.046 12.474 12.3481 13.4427C12.4235 13.6782 12.3404 13.9342 12.127 14.0009Z" fill="#333333"/>
</svg>
