<svg width="16" height="16" viewBox="0 0 16 16" fill="none" xmlns="http://www.w3.org/2000/svg">
<path d="M8.87692 10.5508C9.05876 10.5508 9.20754 10.4026 9.20754 10.2214V10.0682C9.20754 9.88696 9.05876 9.7387 8.87692 9.7387H3.35543C3.17358 9.7387 3.0248 9.88696 3.0248 10.0682V10.2214C3.0248 10.4026 3.17358 10.5508 3.35543 10.5508H8.87692Z" fill="#333333"/>
<path d="M12.3436 3.75909C11.8245 3.24184 11.2211 2.83661 10.5466 2.55163L10.5433 2.54998C10.3234 2.45774 10.0688 2.53681 9.93989 2.73613L9.55636 3.33079C9.46047 3.29785 9.35798 3.27808 9.25218 3.26984C9.22077 3.2682 9.18771 3.26655 9.15464 3.26655C9.06537 3.26655 8.97776 3.27643 8.89345 3.29455L9.77953 1.91743C9.92666 1.68846 9.86053 1.38207 9.62909 1.23546L7.82221 0.077422C7.73955 0.0247092 7.64698 0 7.5544 0C7.39074 0 7.23039 0.0807166 7.13616 0.227324L3.99354 5.10985C3.84641 5.33882 3.91253 5.64522 4.14397 5.79183L4.48617 6.01091L4.17538 6.49521L4.07785 6.64676C3.93072 6.87573 3.99684 7.18213 4.22828 7.32873L4.52254 7.51652C4.75233 7.66313 5.05981 7.59724 5.20694 7.36662L5.30448 7.21507L5.61527 6.73077L5.95251 6.94657C6.03517 6.99928 6.12774 7.02399 6.22032 7.02399C6.38398 7.02399 6.54433 6.94327 6.63856 6.79666L7.92801 4.79193C7.95446 4.91053 7.99744 5.02255 8.05696 5.12633C8.10821 5.21693 8.16937 5.30094 8.24046 5.37506C8.47851 5.62545 8.8174 5.78029 9.19267 5.76876C9.85558 5.749 10.3945 5.21198 10.4127 4.55143C10.4176 4.38999 10.3912 4.23515 10.3399 4.09184C10.6855 4.27962 11.0062 4.51848 11.2922 4.80346C12.079 5.58756 12.5122 6.62864 12.5122 7.73726C12.5122 8.84588 12.079 9.88696 11.2922 10.6711C10.8028 11.1587 10.2143 11.5095 9.57123 11.7055C9.52329 11.7204 9.4737 11.727 9.42411 11.727H7.79741C7.52299 11.727 7.30147 11.5062 7.30147 11.2328V11.1224H4.93252V13.3462C4.98377 13.3429 5.03667 13.3413 5.08792 13.3413H12.1997C12.7651 13.2408 13.1966 12.7483 13.1966 12.1553C13.1966 11.7896 13.0329 11.4618 12.775 11.241C13.0924 10.8424 13.3553 10.4042 13.5553 9.93308C13.8496 9.23793 14 8.49995 14 7.74055C14 6.98116 13.8512 6.24318 13.5553 5.54803C13.2693 4.87759 12.8626 4.27468 12.3436 3.75909ZM9.15464 4.96983C8.94469 4.96983 8.76946 4.82817 8.71821 4.63379C8.7083 4.59755 8.70334 4.55801 8.70334 4.51848C8.70334 4.2961 8.86534 4.1116 9.0786 4.07536C9.1034 4.07042 9.12985 4.06877 9.1563 4.06877C9.40592 4.06877 9.6076 4.26974 9.6076 4.51848C9.6076 4.76722 9.40427 4.96983 9.15464 4.96983ZM12.1617 12.5391C12.1088 12.5638 12.0493 12.577 11.9865 12.577C11.8195 12.577 11.6757 12.4814 11.6079 12.3414C11.5798 12.2854 11.5649 12.2211 11.5649 12.1553C11.5649 11.923 11.7534 11.7336 11.9881 11.7336C12.0509 11.7336 12.1105 11.7467 12.1634 11.7714C12.1915 11.7846 12.2196 11.8011 12.2444 11.8192C12.3452 11.8966 12.4113 12.0169 12.4113 12.1536C12.4097 12.3266 12.3072 12.4732 12.1617 12.5391Z" fill="#333333"/>
<path d="M4.93252 13.9244C3.85137 14.0035 3 14.9029 3 16H11.6658C11.9402 16 12.1617 15.7793 12.1617 15.5058V13.9195H5.08792C5.03502 13.9195 4.98377 13.9211 4.93252 13.9244Z" fill="#333333"/>
</svg>
