<svg width="12" height="16" viewBox="0 0 12 16" fill="none" xmlns="http://www.w3.org/2000/svg">
<path d="M1.76648 8.81779C1.78415 8.62223 1.83715 8.42667 1.90781 8.23112C1.89015 8.17778 1.89015 8.10667 1.92548 8.05334C2.03148 7.82223 2.17281 7.62667 2.31414 7.48445C2.40247 7.41334 2.4908 7.34223 2.57914 7.2889C2.61447 7.20001 2.66747 7.14667 2.73813 7.09334C2.7558 6.68445 2.9148 6.31112 3.17979 6.02667C1.90781 6.34667 0.953831 7.44889 0.8125 8.80001C0.830166 8.80001 0.847833 8.80001 0.865499 8.80001C0.865499 8.81779 1.76648 8.81779 1.76648 8.81779Z" fill="#333333"/>
<path d="M3.53312 8.35556C3.48012 8.33778 3.44479 8.28445 3.42712 8.2489C3.28579 7.9289 3.07379 7.73334 2.9148 7.73334C2.73813 7.73334 2.52614 7.94667 2.38481 8.28445C2.36714 8.33778 2.31414 8.37334 2.26114 8.4089C2.20814 8.55112 2.17281 8.69334 2.15514 8.83556H3.65678C3.63912 8.67556 3.60379 8.51556 3.53312 8.35556Z" fill="#333333"/>
<path d="M10.3347 8.81779C10.211 7.43112 9.18636 6.31112 7.87905 6.02667C8.12637 6.29334 8.30304 6.63112 8.33837 7.02223C8.67403 7.09334 8.93903 7.41334 8.93903 7.78667C8.93903 8.21334 8.5857 8.5689 8.16171 8.5689C7.73772 8.5689 7.38439 8.21334 7.38439 7.78667C7.38439 7.43112 7.63172 7.11112 7.96738 7.04001C7.91438 6.54223 7.57872 6.13334 7.11939 5.99112H3.93945C3.44479 6.15112 3.09146 6.59556 3.07379 7.14667C3.14446 7.18223 3.19746 7.25334 3.23279 7.32445C3.48012 7.4489 3.70978 7.69778 3.88645 8.05334C3.92178 8.10667 3.92178 8.17778 3.90411 8.2489C3.97478 8.44445 4.02778 8.65779 4.04544 8.85334H10.264C10.2993 8.81779 10.317 8.81779 10.3347 8.81779Z" fill="#333333"/>
<path d="M5.56475 5.47556C7.06731 5.47556 8.28537 4.24981 8.28537 2.73778C8.28537 1.22575 7.06731 0 5.56475 0C4.06219 0 2.84413 1.22575 2.84413 2.73778C2.84413 4.24981 4.06219 5.47556 5.56475 5.47556Z" fill="#333333"/>
<path d="M8.16171 8.12445C8.35684 8.12445 8.51503 7.96526 8.51503 7.7689C8.51503 7.57253 8.35684 7.41334 8.16171 7.41334C7.96657 7.41334 7.80838 7.57253 7.80838 7.7689C7.80838 7.96526 7.96657 8.12445 8.16171 8.12445Z" fill="#333333"/>
<path d="M9.84016 15.6445H1.30731C1.20131 15.6445 1.13065 15.7333 1.13065 15.8222C1.13065 15.9111 1.21898 16 1.30731 16H9.84016C9.94616 16 10.0168 15.9111 10.0168 15.8222C10.0168 15.7333 9.94616 15.6445 9.84016 15.6445Z" fill="#333333"/>
<path d="M10.3348 9.17334C10.3172 9.17334 10.2995 9.17334 10.2818 9.17334H0.865652C0.847985 9.17334 0.830319 9.17334 0.812653 9.17334C0.353327 9.2089 0 9.58223 0 10.0445V10.08L0.77732 14.6489C0.794986 15.1111 1.16598 15.5022 1.64297 15.5022H9.48684C9.96383 15.5022 10.3348 15.1289 10.3525 14.6489L11.1298 10.08V10.0445C11.1475 9.58223 10.7941 9.2089 10.3348 9.17334ZM5.5649 12.7111C5.35291 12.7111 5.19391 12.5511 5.19391 12.3378C5.19391 12.1245 5.35291 11.9645 5.5649 11.9645C5.7769 11.9645 5.9359 12.1245 5.9359 12.3378C5.9359 12.5511 5.7769 12.7111 5.5649 12.7111Z" fill="#333333"/>
</svg>
