<svg width="48" height="41" viewBox="0 0 48 41" fill="none" xmlns="http://www.w3.org/2000/svg">
<path d="M29.041 5.13129C29.4897 4.68261 30.0224 4.3267 30.6086 4.08387C31.1948 3.84104 31.8231 3.71606 32.4577 3.71606C33.0922 3.71606 33.7205 3.84104 34.3068 4.08387C34.893 4.3267 35.4257 4.68261 35.8743 5.13129C36.323 5.57998 36.6789 6.11264 36.9218 6.69887C37.1646 7.28511 37.2896 7.91343 37.2896 8.54796C37.2896 9.18249 37.1646 9.81081 36.9218 10.397C36.6789 10.9833 36.323 11.5159 35.8743 11.9646L12.8118 35.0271L3.41602 37.5896L5.97852 28.1938L29.041 5.13129Z" stroke="#333333" stroke-width="1.5" stroke-linecap="round" stroke-linejoin="round"/>
</svg>
