<svg width="49" height="42" viewBox="0 0 49 42" fill="none" xmlns="http://www.w3.org/2000/svg">
<path d="M40.9988 30.9477V36.9693C41.001 37.5283 40.8863 38.0816 40.6619 38.5938C40.4375 39.106 40.1084 39.5658 39.6957 39.9437C39.2829 40.3216 38.7957 40.6093 38.2651 40.7884C37.7344 40.9675 37.1722 41.034 36.6144 40.9837C30.4256 40.3126 24.4809 38.202 19.2578 34.8216C14.3984 31.7399 10.2785 27.6281 7.19067 22.7784C3.79172 17.542 1.67648 11.5802 1.01632 5.3759C0.966066 4.82084 1.03216 4.26142 1.2104 3.73325C1.38865 3.20509 1.67513 2.71974 2.05162 2.30813C2.4281 1.89652 2.88634 1.56765 3.39715 1.34247C3.90797 1.11728 4.46016 1.00072 5.01859 1.00019H11.0522C12.0282 0.990607 12.9744 1.33556 13.7145 1.97074C14.4545 2.60593 14.9379 3.48802 15.0745 4.45259C15.3292 6.37964 15.8015 8.27175 16.4824 10.0928C16.753 10.8113 16.8115 11.592 16.6511 12.3427C16.4907 13.0933 16.1181 13.7823 15.5773 14.328L13.0231 16.8772C15.8862 21.9023 20.0552 26.063 25.0903 28.9204L27.6445 26.3713C28.1913 25.8316 28.8817 25.4597 29.6338 25.2996C30.3859 25.1395 31.1682 25.198 31.8881 25.468C33.7128 26.1476 35.6086 26.6189 37.5395 26.8731C38.5165 27.0106 39.4087 27.5017 40.0465 28.253C40.6843 29.0043 41.0232 29.9633 40.9988 30.9477Z" stroke="#333333" stroke-width="1.5" stroke-linecap="round" stroke-linejoin="round"/>
</svg>
