<svg width="16" height="16" viewBox="0 0 16 16" fill="none" xmlns="http://www.w3.org/2000/svg">
<path d="M12.9871 5.99998C12.9871 5.38714 12.8664 4.78031 12.6319 4.21412C12.3974 3.64794 12.0536 3.13349 11.6203 2.70015C11.187 2.26681 10.6725 1.92306 10.1063 1.68854C9.54015 1.45402 8.93331 1.33331 8.32048 1.33331C7.70764 1.33331 7.10081 1.45402 6.53462 1.68854C5.96843 1.92306 5.45398 2.26681 5.02064 2.70015C4.5873 3.13349 4.24356 3.64794 4.00904 4.21412C3.77452 4.78031 3.65381 5.38714 3.65381 5.99998C3.65381 6.92465 3.92714 7.78465 4.39048 8.50998H4.38514C5.95848 10.9733 8.32048 14.6666 8.32048 14.6666L12.2558 8.50998H12.2511C12.7314 7.76089 12.9868 6.88981 12.9871 5.99998ZM8.32048 7.99998C7.79004 7.99998 7.28133 7.78927 6.90626 7.41419C6.53119 7.03912 6.32048 6.53041 6.32048 5.99998C6.32048 5.46955 6.53119 4.96084 6.90626 4.58577C7.28133 4.21069 7.79004 3.99998 8.32048 3.99998C8.85091 3.99998 9.35962 4.21069 9.73469 4.58577C10.1098 4.96084 10.3205 5.46955 10.3205 5.99998C10.3205 6.53041 10.1098 7.03912 9.73469 7.41419C9.35962 7.78927 8.85091 7.99998 8.32048 7.99998Z" fill="black"/>
</svg>
