<svg width="12" height="16" viewBox="0 0 12 16" fill="none" xmlns="http://www.w3.org/2000/svg">
<path d="M10.876 0.736508L8.27576 0.736508L8.12575 0.177778C8.10074 0.0761905 8.00074 0 7.87573 0L3.95036 0C3.85035 0 3.75035 0.0761905 3.70034 0.177778L3.55033 0.736508L0.950087 0.736508C0.425039 0.736508 0 1.16825 0 1.70159L0 15.0349C0 15.5683 0.425039 16 0.950087 16H10.876C11.401 16 11.8261 15.5683 11.8261 15.0349V1.70159C11.8261 1.16825 11.401 0.736508 10.876 0.736508ZM2.95027 3.27619C3.00028 3.32698 3.07528 3.37778 3.15029 3.37778L8.6758 3.37778C8.7508 3.37778 8.82581 3.35238 8.87582 3.27619C8.92582 3.2254 8.92582 3.12381 8.92582 3.04762L8.75081 2.4381H10.876V15.0349H1L1 2.4381H3.07528L2.90027 3.04762C2.90027 3.12381 2.90027 3.2 2.95027 3.27619ZM4.12538 0.507937L7.70071 0.507937L8.35077 2.86984L3.47532 2.86984L4.12538 0.507937Z" fill="#333333"/>
<path d="M8.85634 7.83748H2.78078C2.63077 7.83748 2.53076 7.93907 2.53076 8.09145C2.53076 8.24383 2.63077 8.34542 2.78078 8.34542H8.83134C8.98135 8.34542 9.08136 8.24383 9.08136 8.09145C9.08136 7.93907 8.98135 7.83748 8.85634 7.83748Z" fill="#333333"/>
<path d="M8.85634 9.86923H5.70605C5.55604 9.86923 5.45603 9.97081 5.45603 10.1232C5.45603 10.2756 5.55604 10.3772 5.70605 10.3772H8.85634C9.00636 10.3772 9.10637 10.2756 9.10637 10.1232C9.10637 9.97081 8.98135 9.86923 8.85634 9.86923Z" fill="#333333"/>
<path d="M8.85634 5.80573H5.70605C5.55604 5.80573 5.45603 5.90732 5.45603 6.0597C5.45603 6.21208 5.55604 6.31367 5.70605 6.31367H8.85634C9.00636 6.31367 9.10637 6.21208 9.10637 6.0597C9.10637 5.90732 8.98135 5.80573 8.85634 5.80573Z" fill="#333333"/>
<path d="M8.85634 11.901H2.78078C2.63077 11.901 2.53076 12.0026 2.53076 12.1549C2.53076 12.3073 2.63077 12.4089 2.78078 12.4089H8.83134C8.98135 12.4089 9.08136 12.3073 9.08136 12.1549C9.08136 12.0026 8.98135 11.901 8.85634 11.901Z" fill="#333333"/>
<path d="M3.23083 6.8978C3.28083 6.94859 3.35584 6.97399 3.40584 6.97399C3.45585 6.97399 3.53085 6.94859 3.58086 6.8978L4.88098 5.57716C4.98099 5.47557 4.98099 5.32319 4.88098 5.22161C4.78097 5.12002 4.63095 5.12002 4.53095 5.22161L3.40584 6.36446L2.9808 5.93272C2.88079 5.83113 2.73078 5.83113 2.63077 5.93272C2.53076 6.0343 2.53076 6.18669 2.63077 6.28827L3.23083 6.8978Z" fill="#333333"/>
<path d="M3.23083 10.9613C3.28083 11.0121 3.35584 11.0375 3.40584 11.0375C3.45585 11.0375 3.53085 11.0121 3.58086 10.9613L4.88098 9.64065C4.98099 9.53907 4.98099 9.38669 4.88098 9.2851C4.78097 9.18351 4.63095 9.18351 4.53095 9.2851L3.40584 10.428L2.9808 9.99621C2.88079 9.89462 2.73078 9.89462 2.63077 9.99621C2.53076 10.0978 2.53076 10.2502 2.63077 10.3518L3.23083 10.9613Z" fill="#333333"/>
</svg>
