<svg width="19" height="22" viewBox="0 0 19 22" fill="none" xmlns="http://www.w3.org/2000/svg">
<path d="M14.1428 17.7596C11.544 17.3522 11.2336 16.3252 11.2336 14.8907C11.2336 14.03 11.964 14.3169 12.3018 12.7534C12.4448 12.1107 13.0899 12.7534 13.2147 11.2702C13.2147 10.6964 12.8495 10.5386 12.8495 10.5386C12.8495 10.5386 12.9865 9.65784 13.0595 8.98939C13.1447 8.16315 13.2147 6 9 6C5.54304 6 4.8979 8.16315 4.99528 8.98939C5.06527 9.65784 5.24786 10.5386 5.24786 10.5386C5.24786 10.5386 4.88268 10.682 4.88268 11.2702C5.01049 12.739 5.68302 12.1107 5.82604 12.7534C6.16078 14.3141 6.91852 14.0386 6.91852 14.8907C6.91852 16.3051 6.49857 17.3407 3.91193 17.7596C2.50602 17.9862 2.08607 18.7723 2.00086 19.7678C1.9962 19.8537 2.01045 19.9395 2.0427 20.0199C2.07496 20.1003 2.12452 20.1735 2.18827 20.235C2.25202 20.2964 2.32857 20.3447 2.41311 20.3769C2.49765 20.4091 2.58834 20.4244 2.67948 20.4219L7.61539 21.8105C8.51901 22.0632 9.48099 22.0632 10.3846 21.8105L15.3205 20.4219C15.4117 20.4244 15.5024 20.4091 15.5869 20.3769C15.6714 20.3447 15.748 20.2964 15.8117 20.235C15.8755 20.1735 15.925 20.1003 15.9573 20.0199C15.9895 19.9395 16.0038 19.8537 15.9991 19.7678C15.9139 18.7723 15.5396 17.9862 14.1428 17.7596Z" fill="#333333"/>
<path d="M16.4075 3.22468C16.4415 3.14209 16.5585 3.14209 16.5925 3.22468L17.1334 4.53897C17.1478 4.57389 17.1806 4.59774 17.2183 4.60062L18.6354 4.70894C18.7244 4.71575 18.7606 4.82699 18.6925 4.88484L17.6097 5.80543C17.581 5.82989 17.5684 5.86848 17.5773 5.90518L17.9122 7.28642C17.9333 7.37321 17.8386 7.44196 17.7626 7.39513L16.5524 6.6498C16.5203 6.62999 16.4797 6.62999 16.4476 6.6498L15.2374 7.39513C15.1614 7.44196 15.0667 7.37321 15.0878 7.28642L15.4227 5.90518C15.4316 5.86848 15.419 5.82989 15.3903 5.80543L14.3075 4.88484C14.2394 4.82699 14.2756 4.71575 14.3646 4.70894L15.7817 4.60062C15.8194 4.59774 15.8522 4.57389 15.8666 4.53897L16.4075 3.22468Z" fill="#333333"/>
<path d="M9.40753 0.22468C9.44152 0.142094 9.55848 0.142094 9.59247 0.22468L10.1334 1.53897C10.1478 1.57389 10.1806 1.59774 10.2183 1.60062L11.6354 1.70894C11.7244 1.71575 11.7606 1.82699 11.6925 1.88484L10.6097 2.80543C10.581 2.82989 10.5684 2.86848 10.5773 2.90518L10.9122 4.28642C10.9333 4.37321 10.8386 4.44196 10.7626 4.39513L9.55244 3.6498C9.52029 3.62999 9.47971 3.62999 9.44756 3.6498L8.23741 4.39513C8.16137 4.44196 8.06674 4.37321 8.08779 4.28642L8.42268 2.90518C8.43158 2.86848 8.41904 2.82989 8.39027 2.80543L7.30747 1.88484C7.23943 1.82699 7.27557 1.71575 7.36462 1.70894L8.78174 1.60062C8.8194 1.59774 8.85222 1.57389 8.86659 1.53897L9.40753 0.22468Z" fill="#333333"/>
<path d="M2.40753 2.22468C2.44152 2.14209 2.55848 2.14209 2.59247 2.22468L3.13341 3.53897C3.14778 3.57389 3.1806 3.59774 3.21826 3.60062L4.63538 3.70894C4.72443 3.71575 4.76057 3.82699 4.69253 3.88484L3.60973 4.80543C3.58096 4.82989 3.56842 4.86848 3.57732 4.90518L3.91221 6.28642C3.93326 6.37321 3.83863 6.44196 3.76259 6.39513L2.55244 5.6498C2.52029 5.62999 2.47971 5.62999 2.44756 5.6498L1.23741 6.39513C1.16137 6.44196 1.06674 6.37321 1.08779 6.28642L1.42268 4.90518C1.43158 4.86848 1.41904 4.82989 1.39027 4.80543L0.307466 3.88484C0.239426 3.82699 0.27557 3.71575 0.364618 3.70894L1.78174 3.60062C1.8194 3.59774 1.85222 3.57389 1.86659 3.53897L2.40753 2.22468Z" fill="#333333"/>
</svg>
