<svg width="16" height="16" viewBox="0 0 16 16" fill="none" xmlns="http://www.w3.org/2000/svg">
<path d="M15.7 14.275L12.95 11.525C13.9167 10.2417 14.4 8.8 14.4 7.2C14.4 5.21667 13.6958 3.52083 12.2875 2.1125C10.8792 0.704167 9.18333 0 7.2 0C5.21667 0 3.52083 0.704167 2.1125 2.1125C0.704167 3.52083 0 5.21667 0 7.2C0 9.18333 0.704167 10.8792 2.1125 12.2875C3.52083 13.6958 5.21667 14.4 7.2 14.4C8.8 14.4 10.2417 13.9167 11.525 12.95L14.275 15.7C14.475 15.9 14.7125 16 14.9875 16C15.2625 16 15.5 15.9 15.7 15.7C15.9 15.5 16 15.2625 16 14.9875C16 14.7125 15.9 14.475 15.7 14.275ZM7.2 12.8C5.65 12.8 4.32917 12.2542 3.2375 11.1625C2.14583 10.0708 1.6 8.75 1.6 7.2C1.6 5.65 2.14583 4.32917 3.2375 3.2375C4.32917 2.14583 5.65 1.6 7.2 1.6C8.75 1.6 10.0708 2.14583 11.1625 3.2375C12.2542 4.32917 12.8 5.65 12.8 7.2C12.8 8.75 12.2542 10.0708 11.1625 11.1625C10.0708 12.2542 8.75 12.8 7.2 12.8Z" fill="#333333"/>
</svg>
