<svg width="15" height="16" viewBox="0 0 15 16" fill="none" xmlns="http://www.w3.org/2000/svg">
<path d="M14.4624 3.20541C10.3878 2.68284 8.04989 0.289118 7.94969 0.187975C7.8161 0.0531172 7.6324 -0.0143115 7.44871 0.00254569C7.29842 0.0194029 7.16482 0.0868316 7.06462 0.187975C7.04792 0.204832 4.72671 2.66598 0.551868 3.20541C0.23458 3.23912 -0.0159104 3.55941 0.000789009 3.8797C0.635365 12.7803 6.98113 15.8314 7.24832 15.9494C7.33181 15.9831 7.41531 16 7.49881 16C7.58231 16 7.6658 15.9831 7.7493 15.9494C8.01649 15.8314 14.3623 12.7803 14.9968 3.8797C15.0302 3.54255 14.7964 3.23912 14.4624 3.20541ZM7.51551 14.6851C6.41335 14.0614 1.98801 11.1451 1.26994 4.33484C4.52632 3.77855 6.64714 2.21084 7.51551 1.45226C8.40057 2.22769 10.5381 3.79541 13.7444 4.3517C13.043 11.1957 8.65106 14.0614 7.51551 14.6851Z" fill="#333333"/>
<path d="M5.67823 5.56577V6.66149H5.61143C5.19395 6.66149 4.84326 7.01549 4.84326 7.43692V9.93178C4.84326 10.3532 5.19395 10.7072 5.61143 10.7072H9.41889C9.83638 10.7072 10.1871 10.3532 10.1871 9.93178V7.43692C10.1871 7.01549 9.83638 6.66149 9.41889 6.66149H9.35209V5.56577C9.35209 4.55434 8.53382 3.71149 7.51516 3.71149C6.4965 3.71149 5.67823 4.55434 5.67823 5.56577ZM8.65072 7.89206C8.78431 8.02692 8.78431 8.22921 8.65072 8.36407L7.54856 9.47664C7.48176 9.54407 7.39827 9.57778 7.31477 9.57778C7.23127 9.57778 7.14778 9.54407 7.08098 9.47664L6.3796 8.76864C6.24601 8.63378 6.24601 8.43149 6.3796 8.29664C6.5132 8.16178 6.71359 8.16178 6.84719 8.29664L7.31477 8.76864L8.19984 7.87521C8.31673 7.75721 8.51712 7.75721 8.65072 7.89206ZM8.36683 5.56577V6.66149H6.66349V5.56577C6.66349 5.09377 7.04758 4.70606 7.51516 4.70606C7.98274 4.70606 8.36683 5.09377 8.36683 5.56577Z" fill="#333333"/>
</svg>
