<svg width="18" height="18" viewBox="0 0 18 18" fill="none" xmlns="http://www.w3.org/2000/svg">
<path d="M10.9753 9.38791C11.2753 9.54629 11.5458 9.73882 11.7866 9.96558C12.0693 10.2217 12.307 10.5102 12.4995 10.8308C12.6971 11.1514 12.8466 11.4959 12.948 11.8641C13.0494 12.2323 13.1 12.611 13.1 13V13.1H13H12H11.9V13C11.9 12.5854 11.8242 12.2031 11.6737 11.8519L11.6732 11.8508L11.6732 11.8508C11.5271 11.4981 11.3236 11.1944 11.0628 10.9386L11.0614 10.9372C10.8056 10.6764 10.5019 10.4729 10.1492 10.3268L10.1481 10.3263C9.7969 10.1758 9.41459 10.1 9 10.1C8.59079 10.1 8.21106 10.1757 7.8597 10.3263C7.50639 10.4777 7.19942 10.6842 6.9379 10.9457C6.68177 11.2018 6.47781 11.5062 6.32629 11.8597C6.17571 12.2111 6.1 12.5908 6.1 13V13.1H6H5H4.9V13C4.9 12.611 4.95064 12.2323 5.05203 11.8641L5.05238 11.8628L5.05239 11.8628C5.15902 11.4949 5.31113 11.1531 5.50883 10.8378C5.7063 10.5177 5.94383 10.2295 6.22123 9.97339M10.9753 9.38791L6.22123 9.97339M10.9753 9.38791C11.3079 9.11509 11.5726 8.78447 11.7689 8.39672L11.7691 8.39628C11.9896 7.95542 12.1 7.4896 12.1 7C12.1 6.57526 12.0166 6.17358 11.8495 5.79599C11.6884 5.42037 11.4679 5.09211 11.1879 4.8121C10.9079 4.5321 10.5796 4.31158 10.204 4.15052M10.9753 9.38791L6.22123 9.97339M6.22123 9.97339C6.46608 9.74704 6.73683 9.55466 7.03327 9.39631C6.69972 9.12284 6.43228 8.78951 6.23131 8.39715L6.23087 8.39629L6.23087 8.39628C6.01044 7.95542 5.9 7.4896 5.9 7C5.9 6.57552 5.98068 6.17404 6.14246 5.79655L6.14293 5.79544C6.30918 5.42007 6.5322 5.092 6.8121 4.8121C7.09211 4.53209 7.42037 4.31157 7.79599 4.15051C8.17358 3.98338 8.57526 3.9 9 3.9C9.42475 3.9 9.82644 3.98339 10.204 4.15052M10.204 4.15052C10.2042 4.1506 10.2044 4.15068 10.2046 4.15075L10.1641 4.24219L10.2035 4.15027C10.2036 4.15036 10.2038 4.15044 10.204 4.15052ZM10.7446 7.74045L10.7442 7.74138C10.645 7.96961 10.5088 8.17005 10.3355 8.34335C10.1679 8.51102 9.96754 8.64739 9.73345 8.75209C9.50151 8.85065 9.25732 8.9 9 8.9C8.73735 8.9 8.49069 8.8506 8.2591 8.75224C8.03049 8.64773 7.8299 8.51141 7.65666 8.34334C7.48859 8.1701 7.35227 7.96951 7.24776 7.7409C7.1494 7.50931 7.1 7.26265 7.1 7C7.1 6.74268 7.14935 6.49849 7.24791 6.26655C7.35261 6.03246 7.48898 5.83213 7.65665 5.66446C7.82995 5.49116 8.03039 5.355 8.25862 5.25577L8.25862 5.25577L8.25954 5.25536C8.49112 5.15189 8.73759 5.1 9 5.1C9.25692 5.1 9.50082 5.15178 9.73264 5.25536L9.73264 5.25538L9.73428 5.25608C9.96742 5.35529 10.1671 5.49112 10.3345 5.66343L10.3345 5.66346L10.3366 5.66548C10.5089 5.83287 10.6447 6.03258 10.7439 6.26572L10.7439 6.26572L10.7446 6.26736C10.8482 6.49918 10.9 6.74308 10.9 7C10.9 7.26241 10.8481 7.50888 10.7446 7.74045ZM5.1 16V15.9H5H2.1V13V12.9H2H1H0.9V13V17V17.1H1H5H5.1V17V16ZM16 12.9H15.9V13V15.9H13H12.9V16V17V17.1H13H17H17.1V17V13V12.9H17H16ZM17.1 1V0.9H17H13H12.9V1V2V2.1H13H15.9V5V5.1H16H17H17.1V5V1ZM2 5.1H2.1V5V2.1H5H5.1V2V1V0.9H5H1H0.9V1V5V5.1H1H2Z" fill="#333333" stroke="#333333" stroke-width="0.2"/>
</svg>
