<svg width="16" height="15" viewBox="0 0 16 15" fill="none" xmlns="http://www.w3.org/2000/svg">
<g clip-path="url(#clip0)">
<path d="M12.4564 14.4172C12.3486 14.4176 12.2434 14.384 12.1559 14.3212L8.04004 11.3373L3.92423 14.3212C3.8363 14.385 3.73036 14.4192 3.62174 14.4188C3.51311 14.4184 3.40743 14.3834 3.31996 14.319C3.23249 14.2546 3.16778 14.164 3.13517 14.0604C3.10257 13.9568 3.10376 13.8455 3.13857 13.7426L4.74381 8.98803L0.58351 6.13503C0.493395 6.0733 0.425382 5.98437 0.389407 5.88124C0.353433 5.7781 0.351382 5.66617 0.383555 5.56178C0.415728 5.4574 0.480439 5.36604 0.568233 5.30105C0.656026 5.23606 0.762301 5.20085 0.871531 5.20056H6.00406L7.55297 0.433826C7.58633 0.330913 7.65144 0.241214 7.73894 0.177597C7.82645 0.113979 7.93185 0.0797119 8.04004 0.0797119C8.14823 0.0797119 8.25363 0.113979 8.34114 0.177597C8.42864 0.241214 8.49375 0.330913 8.52712 0.433826L10.076 5.20216H15.2086C15.3179 5.20211 15.4244 5.23708 15.5125 5.30194C15.6005 5.3668 15.6655 5.45815 15.6979 5.56262C15.7303 5.66708 15.7283 5.77917 15.6924 5.88246C15.6565 5.98575 15.5884 6.07482 15.4982 6.13663L11.3363 8.98803L12.9405 13.7413C12.9665 13.8183 12.9739 13.9003 12.9619 13.9807C12.9499 14.061 12.919 14.1373 12.8717 14.2034C12.8244 14.2694 12.762 14.3232 12.6898 14.3604C12.6176 14.3976 12.5376 14.4171 12.4564 14.4172Z" fill="black"/>
</g>
<defs>
<clipPath id="clip0">
<rect width="16" height="14.72" fill="white"/>
</clipPath>
</defs>
</svg>
