<svg width="13" height="16" viewBox="0 0 13 16" fill="none" xmlns="http://www.w3.org/2000/svg">
<path d="M2.34851 1.0596V0H2.33023e-07V3.99117C-0.000330532 4.92067 0.351477 5.8189 0.99047 6.52002C1.62946 7.22115 2.51249 7.67783 3.47653 7.80574V12.1854C3.47653 13.1971 3.89736 14.1674 4.64643 14.8827C5.39551 15.5981 6.41148 16 7.47084 16C8.53019 16 9.54616 15.5981 10.2952 14.8827C11.0443 14.1674 11.4651 13.1971 11.4651 12.1854V9.81898C11.9527 9.69077 12.375 9.39804 12.6538 8.99509C12.9326 8.59214 13.0489 8.10631 12.9812 7.6277C12.9134 7.1491 12.6662 6.71019 12.2854 6.39238C11.9047 6.07457 11.4161 5.89943 10.9104 5.89943C10.4047 5.89943 9.91611 6.07457 9.53532 6.39238C9.15453 6.71019 8.90734 7.1491 8.8396 7.6277C8.77186 8.10631 8.88816 8.59214 9.16694 8.99509C9.44571 9.39804 9.86805 9.69077 10.3556 9.81898V12.1854C10.3556 12.5472 10.281 12.9055 10.136 13.2397C9.99105 13.574 9.77856 13.8777 9.51068 14.1335C9.24281 14.3893 8.92479 14.5922 8.57479 14.7307C8.2248 14.8691 7.84967 14.9404 7.47084 14.9404C7.092 14.9404 6.71688 14.8691 6.36688 14.7307C6.01688 14.5922 5.69887 14.3893 5.43099 14.1335C5.16311 13.8777 4.95062 13.574 4.80565 13.2397C4.66068 12.9055 4.58606 12.5472 4.58606 12.1854V7.80574C5.54673 7.67394 6.42536 7.21558 7.0606 6.51484C7.69585 5.81411 8.04505 4.91803 8.04409 3.99117V0H5.69559V1.0596H6.93456V3.99117C6.93456 4.72886 6.62771 5.43633 6.08151 5.95796C5.5353 6.47958 4.7945 6.77263 4.02205 6.77263C3.2496 6.77263 2.50879 6.47958 1.96259 5.95796C1.41638 5.43633 1.10953 4.72886 1.10953 3.99117V1.0596H2.34851ZM9.9118 7.89404C9.9118 7.70892 9.96928 7.52796 10.077 7.37404C10.1847 7.22011 10.3377 7.10015 10.5168 7.0293C10.6959 6.95846 10.893 6.93993 11.0831 6.97604C11.2732 7.01216 11.4478 7.1013 11.5849 7.2322C11.722 7.3631 11.8153 7.52988 11.8531 7.71144C11.891 7.893 11.8715 8.0812 11.7974 8.25222C11.7232 8.42325 11.5976 8.56943 11.4364 8.67228C11.2752 8.77513 11.0857 8.83002 10.8919 8.83002C10.632 8.83002 10.3827 8.73141 10.1989 8.55588C10.0151 8.38035 9.9118 8.14228 9.9118 7.89404Z" fill="#333333"/>
</svg>
