<svg width="9" height="16" viewBox="0 0 9 16" fill="none" xmlns="http://www.w3.org/2000/svg">
<path d="M9 1.72127C9 0.774625 8.25184 0 7.33753 0H1.66247C0.748162 0 0 0.774625 0 1.72127V14.2787C0 15.2254 0.748162 16 1.66247 16H7.33753C8.25184 16 9 15.2254 9 14.2787V1.72127ZM5.21421 15.2762H3.61362C3.37612 15.2762 3.18361 15.0769 3.18361 14.831C3.18361 14.5851 3.37612 14.3858 3.61362 14.3858H5.21421C5.4517 14.3858 5.64422 14.5851 5.64422 14.831C5.64422 15.0769 5.4517 15.2762 5.21421 15.2762ZM8.11775 13.2154C8.11775 13.4584 7.92576 13.6572 7.69085 13.6572H1.30881C1.07407 13.6572 0.882076 13.4584 0.882076 13.2154V2.78462C0.882076 2.54158 1.07407 2.34279 1.30881 2.34279H7.69085C7.92558 2.34279 8.11775 2.54158 8.11775 2.78462V13.2154Z" fill="#333333"/>
<path fill-rule="evenodd" clip-rule="evenodd" d="M4.50724 5.14288C5.34938 5.14288 6.03618 5.84606 6.03618 6.70826C6.03618 7.57047 5.34938 8.27365 4.50724 8.27365C3.66511 8.27365 2.97831 7.57047 2.97831 6.70826C2.97831 5.84606 3.66511 5.14288 4.50724 5.14288ZM4.50724 8.24321C5.90541 8.24321 7.04572 9.41071 7.03111 10.8572L6.51172 10.8422C6.51172 9.70582 5.61716 8.78994 4.50724 8.78994C3.39731 8.78994 2.50275 9.70582 2.48814 10.8572L1.96875 10.8422C1.96875 9.41071 3.10906 8.24321 4.50724 8.24321ZM4.50693 5.69002C3.95502 5.69002 3.51199 6.1436 3.51199 6.70868C3.51199 7.27375 3.95502 7.72733 4.50693 7.72733C5.05885 7.72733 5.50187 7.27375 5.50187 6.70868C5.50187 6.1436 5.05885 5.69002 4.50693 5.69002Z" fill="#333333"/>
</svg>
