<svg width="9" height="16" viewBox="0 0 9 16" fill="none" xmlns="http://www.w3.org/2000/svg">
<path d="M9 1.72127C9 0.774625 8.25184 0 7.33753 0H1.66247C0.748162 0 0 0.774625 0 1.72127V14.2787C0 15.2254 0.748162 16 1.66247 16H7.33753C8.25184 16 9 15.2254 9 14.2787V1.72127ZM5.21421 15.2762H3.61362C3.37612 15.2762 3.18361 15.0769 3.18361 14.831C3.18361 14.5851 3.37612 14.3858 3.61362 14.3858H5.21421C5.4517 14.3858 5.64422 14.5851 5.64422 14.831C5.64422 15.0769 5.4517 15.2762 5.21421 15.2762ZM8.11775 13.2154C8.11775 13.4584 7.92576 13.6572 7.69085 13.6572H1.30881C1.07407 13.6572 0.882076 13.4584 0.882076 13.2154V2.78462C0.882076 2.54158 1.07407 2.34279 1.30881 2.34279H7.69085C7.92558 2.34279 8.11775 2.54158 8.11775 2.78462V13.2154Z" fill="#333333"/>
<path d="M4.5 6.05917L4.68068 5.88638C4.63351 5.83707 4.56824 5.80917 4.5 5.80917C4.43176 5.80917 4.36649 5.83707 4.31933 5.88638L4.5 6.05917ZM2.81933 7.45483C2.7239 7.55461 2.72743 7.71286 2.82721 7.80829C2.92699 7.90372 3.08525 7.90019 3.18068 7.80041L2.81933 7.45483ZM5.81933 7.80041C5.91475 7.90019 6.07301 7.90372 6.17279 7.80829C6.27257 7.71286 6.2761 7.55461 6.18067 7.45483L5.81933 7.80041ZM4.25 6.07225C4.25 6.21032 4.36193 6.32225 4.5 6.32225C4.63807 6.32225 4.75 6.21032 4.75 6.07225L4.25 6.07225ZM4.25 9.00001C4.25 9.13808 4.36193 9.25001 4.5 9.25001C4.63807 9.25001 4.75 9.13808 4.75 9.00001L4.25 9.00001ZM3.18068 7.80041L4.68068 6.23197L4.31933 5.88638L2.81933 7.45483L3.18068 7.80041ZM4.31933 6.23197L5.81933 7.80041L6.18067 7.45483L4.68068 5.88638L4.31933 6.23197ZM4.75 6.07225C4.75 6.07104 4.75 6.06985 4.75 6.06867C4.75 6.0675 4.75 6.06634 4.75 6.0652C4.75 6.06406 4.75 6.06293 4.75 6.06182C4.75 6.06071 4.75 6.05961 4.75 6.05853C4.75 6.05745 4.75 6.05638 4.75 6.05534C4.75 6.05429 4.75 6.05325 4.75 6.05224C4.75 6.05122 4.75 6.05022 4.75 6.04923C4.75 6.04824 4.75 6.04727 4.75 6.04631C4.75 6.04536 4.75 6.04442 4.75 6.04349C4.75 6.04257 4.75 6.04166 4.75 6.04076C4.75 6.03987 4.75 6.03899 4.75 6.03813C4.75 6.03726 4.75 6.03641 4.75 6.03558C4.75 6.03475 4.75 6.03393 4.75 6.03313C4.75 6.03232 4.75 6.03153 4.75 6.03076C4.75 6.02999 4.75 6.02923 4.75 6.02849C4.75 6.02775 4.75 6.02702 4.75 6.02631C4.75 6.02559 4.75 6.02489 4.75 6.02421C4.75 6.02353 4.75 6.02286 4.75 6.02221C4.75 6.02155 4.75 6.02092 4.75 6.02029C4.75 6.01967 4.75 6.01906 4.75 6.01847C4.75 6.01787 4.75 6.01729 4.75 6.01673C4.75 6.01616 4.75 6.01561 4.75 6.01508C4.75 6.01454 4.75 6.01402 4.75 6.01352C4.75 6.01301 4.75 6.01252 4.75 6.01204C4.75 6.01156 4.75 6.0111 4.75 6.01065C4.75 6.0102 4.75 6.00977 4.75 6.00935C4.75 6.00893 4.75 6.00853 4.75 6.00814C4.75 6.00775 4.75 6.00737 4.75 6.00701C4.75 6.00665 4.75 6.0063 4.75 6.00596C4.75 6.00563 4.75 6.00531 4.75 6.00501C4.75 6.0047 4.75 6.00441 4.75 6.00413C4.75 6.00386 4.75 6.00359 4.75 6.00335C4.75 6.0031 4.75 6.00286 4.75 6.00264C4.75 6.00242 4.75 6.00221 4.75 6.00202C4.75 6.00183 4.75 6.00165 4.75 6.00148C4.75 6.00132 4.75 6.00117 4.75 6.00103C4.75 6.00089 4.75 6.00077 4.75 6.00066C4.75 6.00055 4.75 6.00045 4.75 6.00037C4.75 6.00029 4.75 6.00022 4.75 6.00017C4.75 6.00011 4.75 6.00007 4.75 6.00004C4.75 6.00001 4.75 6 4.75 6C4.5 6 4.25 6.00001 4.25 6.00004C4.25 6.00006 4.25 6.0001 4.25 6.00016C4.25 6.00021 4.25 6.00028 4.25 6.00036C4.25 6.00044 4.25 6.00053 4.25 6.00064C4.25 6.00074 4.25 6.00086 4.25 6.001C4.25 6.00113 4.25 6.00128 4.25 6.00144C4.25 6.0016 4.25 6.00177 4.25 6.00196C4.25 6.00214 4.25 6.00234 4.25 6.00255C4.25 6.00276 4.25 6.00299 4.25 6.00323C4.25 6.00347 4.25 6.00372 4.25 6.00398C4.25 6.00425 4.25 6.00452 4.25 6.00481C4.25 6.0051 4.25 6.00541 4.25 6.00572C4.25 6.00604 4.25 6.00637 4.25 6.00671C4.25 6.00705 4.25 6.0074 4.25 6.00777C4.25 6.00814 4.25 6.00852 4.25 6.00891C4.25 6.0093 4.25 6.00971 4.25 6.01012C4.25 6.01054 4.25 6.01097 4.25 6.01141C4.25 6.01186 4.25 6.01231 4.25 6.01278C4.25 6.01325 4.25 6.01373 4.25 6.01422C4.25 6.01471 4.25 6.01522 4.25 6.01573C4.25 6.01625 4.25 6.01678 4.25 6.01732C4.25 6.01787 4.25 6.01842 4.25 6.01899C4.25 6.01955 4.25 6.02013 4.25 6.02072C4.25 6.02131 4.25 6.02192 4.25 6.02253C4.25 6.02315 4.25 6.02378 4.25 6.02442C4.25 6.02506 4.25 6.02571 4.25 6.02637C4.25 6.02704 4.25 6.02771 4.25 6.0284C4.25 6.02909 4.25 6.02979 4.25 6.0305C4.25 6.03121 4.25 6.03194 4.25 6.03267C4.25 6.03341 4.25 6.03415 4.25 6.03491C4.25 6.03567 4.25 6.03644 4.25 6.03723C4.25 6.03801 4.25 6.0388 4.25 6.03961C4.25 6.04042 4.25 6.04123 4.25 6.04206C4.25 6.04289 4.25 6.04373 4.25 6.04459C4.25 6.04544 4.25 6.0463 4.25 6.04718C4.25 6.04806 4.25 6.04894 4.25 6.04984C4.25 6.05074 4.25 6.05165 4.25 6.05257C4.25 6.05349 4.25 6.05443 4.25 6.05537C4.25 6.05632 4.25 6.05727 4.25 6.05824C4.25 6.05921 4.25 6.06018 4.25 6.06117C4.25 6.06216 4.25 6.06316 4.25 6.06418C4.25 6.06519 4.25 6.06621 4.25 6.06725C4.25 6.06828 4.25 6.06932 4.25 6.07038C4.25 6.07144 4.25 6.07251 4.25 6.07358C4.25 6.07466 4.25 6.07575 4.25 6.07685C4.25 6.07795 4.25 6.07906 4.25 6.08019C4.25 6.08131 4.25 6.08244 4.25 6.08359C4.25 6.08473 4.25 6.08588 4.25 6.08705C4.25 6.08821 4.25 6.08939 4.25 6.09058C4.25 6.09177 4.25 6.09296 4.25 6.09417C4.25 6.09538 4.25 6.0966 4.25 6.09783C4.25 6.09906 4.25 6.1003 4.25 6.10155C4.25 6.1028 4.25 6.10406 4.25 6.10533C4.25 6.1066 4.25 6.10789 4.25 6.10918C4.25 6.11047 4.25 6.11178 4.25 6.11309C4.25 6.1144 4.25 6.11573 4.25 6.11706C4.25 6.11839 4.25 6.11974 4.25 6.12109C4.25 6.12245 4.25 6.12381 4.25 6.12519C4.25 6.12656 4.25 6.12795 4.25 6.12934C4.25 6.13074 4.25 6.13215 4.25 6.13356C4.25 6.13498 4.25 6.1364 4.25 6.13784C4.25 6.13928 4.25 6.14072 4.25 6.14218C4.25 6.14363 4.25 6.1451 4.25 6.14657C4.25 6.14805 4.25 6.14954 4.25 6.15103C4.25 6.15253 4.25 6.15403 4.25 6.15555C4.25 6.15706 4.25 6.15859 4.25 6.16012C4.25 6.16166 4.25 6.1632 4.25 6.16475C4.25 6.16631 4.25 6.16787 4.25 6.16945C4.25 6.17102 4.25 6.1726 4.25 6.17419C4.25 6.17579 4.25 6.17739 4.25 6.179C4.25 6.18061 4.25 6.18223 4.25 6.18386C4.25 6.18549 4.25 6.18713 4.25 6.18878C4.25 6.19043 4.25 6.19209 4.25 6.19376C4.25 6.19543 4.25 6.19711 4.25 6.19879C4.25 6.20048 4.25 6.20217 4.25 6.20388C4.25 6.20558 4.25 6.2073 4.25 6.20902C4.25 6.21075 4.25 6.21248 4.25 6.21422C4.25 6.21596 4.25 6.21771 4.25 6.21947C4.25 6.22123 4.25 6.223 4.25 6.22478C4.25 6.22656 4.25 6.22835 4.25 6.23014C4.25 6.23194 4.25 6.23374 4.25 6.23556C4.25 6.23737 4.25 6.23919 4.25 6.24102C4.25 6.24286 4.25 6.2447 4.25 6.24655C4.25 6.24839 4.25 6.25025 4.25 6.25212C4.25 6.25398 4.25 6.25586 4.25 6.25774C4.25 6.25963 4.25 6.26152 4.25 6.26342C4.25 6.26532 4.25 6.26723 4.25 6.26915C4.25 6.27107 4.25 6.273 4.25 6.27493C4.25 6.27687 4.25 6.27881 4.25 6.28076C4.25 6.28271 4.25 6.28467 4.25 6.28664C4.25 6.28861 4.25 6.29059 4.25 6.29257C4.25 6.29456 4.25 6.29655 4.25 6.29856C4.25 6.30056 4.25 6.30257 4.25 6.30459C4.25 6.3066 4.25 6.30863 4.25 6.31067C4.25 6.3127 4.25 6.31474 4.25 6.31679C4.25 6.31885 4.25 6.3209 4.25 6.32297C4.25 6.32504 4.25 6.32711 4.25 6.3292C4.25 6.33128 4.25 6.33337 4.25 6.33547C4.25 6.33757 4.25 6.33968 4.25 6.34179C4.25 6.3439 4.25 6.34603 4.25 6.34816C4.25 6.35029 4.25 6.35243 4.25 6.35457C4.25 6.35672 4.25 6.35887 4.25 6.36103C4.25 6.36319 4.25 6.36536 4.25 6.36754C4.25 6.36971 4.25 6.3719 4.25 6.37409C4.25 6.37628 4.25 6.37848 4.25 6.38069C4.25 6.38289 4.25 6.38511 4.25 6.38733C4.25 6.38955 4.25 6.39178 4.25 6.39402C4.25 6.39625 4.25 6.3985 4.25 6.40075C4.25 6.403 4.25 6.40526 4.25 6.40752C4.25 6.40979 4.25 6.41206 4.25 6.41434C4.25 6.41662 4.25 6.41891 4.25 6.4212C4.25 6.4235 4.25 6.4258 4.25 6.42811C4.25 6.43042 4.25 6.43273 4.25 6.43506C4.25 6.43738 4.25 6.43971 4.25 6.44205C4.25 6.44438 4.25 6.44673 4.25 6.44908C4.25 6.45143 4.25 6.45379 4.25 6.45615C4.25 6.45851 4.25 6.46089 4.25 6.46326C4.25 6.46564 4.25 6.46803 4.25 6.47042C4.25 6.47281 4.25 6.47521 4.25 6.47762C4.25 6.48002 4.25 6.48243 4.25 6.48485C4.25 6.48727 4.25 6.48969 4.25 6.49213C4.25 6.49456 4.25 6.497 4.25 6.49944C4.25 6.50189 4.25 6.50434 4.25 6.5068C4.25 6.50925 4.25 6.51172 4.25 6.51419C4.25 6.51666 4.25 6.51914 4.25 6.52162C4.25 6.5241 4.25 6.52659 4.25 6.52909C4.25 6.53159 4.25 6.53409 4.25 6.5366C4.25 6.5391 4.25 6.54162 4.25 6.54414C4.25 6.54666 4.25 6.54919 4.25 6.55172C4.25 6.55426 4.25 6.5568 4.25 6.55934C4.25 6.56189 4.25 6.56444 4.25 6.567C4.25 6.56955 4.25 6.57212 4.25 6.57469C4.25 6.57726 4.25 6.57983 4.25 6.58241C4.25 6.58499 4.25 6.58758 4.25 6.59017C4.25 6.59277 4.25 6.59537 4.25 6.59797C4.25 6.60058 4.25 6.60319 4.25 6.6058C4.25 6.60842 4.25 6.61104 4.25 6.61367C4.25 6.61629 4.25 6.61893 4.25 6.62157C4.25 6.62421 4.25 6.62685 4.25 6.6295C4.25 6.63215 4.25 6.63481 4.25 6.63747C4.25 6.64013 4.25 6.64279 4.25 6.64547C4.25 6.64814 4.25 6.65081 4.25 6.6535C4.25 6.65618 4.25 6.65887 4.25 6.66156C4.25 6.66425 4.25 6.66695 4.25 6.66966C4.25 6.67236 4.25 6.67507 4.25 6.67778C4.25 6.6805 4.25 6.68322 4.25 6.68594C4.25 6.68867 4.25 6.6914 4.25 6.69413C4.25 6.69687 4.25 6.69961 4.25 6.70235C4.25 6.7051 4.25 6.70785 4.25 6.7106C4.25 6.71336 4.25 6.71612 4.25 6.71888C4.25 6.72165 4.25 6.72442 4.25 6.72719C4.25 6.72997 4.25 6.73275 4.25 6.73553C4.25 6.73832 4.25 6.7411 4.25 6.7439C4.25 6.74669 4.25 6.74949 4.25 6.75229C4.25 6.7551 4.25 6.75791 4.25 6.76072C4.25 6.76353 4.25 6.76635 4.25 6.76917C4.25 6.77199 4.25 6.77482 4.25 6.77765C4.25 6.78048 4.25 6.78331 4.25 6.78615C4.25 6.78899 4.25 6.79184 4.25 6.79469C4.25 6.79754 4.25 6.80039 4.25 6.80325C4.25 6.8061 4.25 6.80897 4.25 6.81183C4.25 6.8147 4.25 6.81757 4.25 6.82044C4.25 6.82332 4.25 6.8262 4.25 6.82908C4.25 6.83196 4.25 6.83485 4.25 6.83774C4.25 6.84063 4.25 6.84353 4.25 6.84643C4.25 6.84933 4.25 6.85223 4.25 6.85514C4.25 6.85804 4.25 6.86095 4.25 6.86387C4.25 6.86679 4.25 6.8697 4.25 6.87263C4.25 6.87555 4.25 6.87848 4.25 6.88141C4.25 6.88434 4.25 6.88727 4.25 6.89021C4.25 6.89315 4.25 6.89609 4.25 6.89904C4.25 6.90198 4.25 6.90493 4.25 6.90789C4.25 6.91084 4.25 6.9138 4.25 6.91676C4.25 6.91972 4.25 6.92268 4.25 6.92565C4.25 6.92862 4.25 6.93159 4.25 6.93456C4.25 6.93754 4.25 6.94052 4.25 6.9435C4.25 6.94648 4.25 6.94946 4.25 6.95245C4.25 6.95544 4.25 6.95843 4.25 6.96143C4.25 6.96442 4.25 6.96742 4.25 6.97042C4.25 6.97342 4.25 6.97643 4.25 6.97944C4.25 6.98244 4.25 6.98545 4.25 6.98847C4.25 6.99148 4.25 6.9945 4.25 6.99752C4.25 7.00054 4.25 7.00356 4.25 7.00659C4.25 7.00962 4.25 7.01265 4.25 7.01568C4.25 7.01871 4.25 7.02175 4.25 7.02479C4.25 7.02782 4.25 7.03087 4.25 7.03391C4.25 7.03695 4.25 7.04 4.25 7.04305C4.25 7.0461 4.25 7.04915 4.25 7.05221C4.25 7.05526 4.25 7.05832 4.25 7.06138C4.25 7.06444 4.25 7.06751 4.25 7.07057C4.25 7.07364 4.25 7.07671 4.25 7.07978C4.25 7.08285 4.25 7.08592 4.25 7.089C4.25 7.09207 4.25 7.09515 4.25 7.09823C4.25 7.10131 4.25 7.1044 4.25 7.10748C4.25 7.11057 4.25 7.11366 4.25 7.11675C4.25 7.11984 4.25 7.12293 4.25 7.12603C4.25 7.12912 4.25 7.13222 4.25 7.13532C4.25 7.13842 4.25 7.14152 4.25 7.14463C4.25 7.14773 4.25 7.15084 4.25 7.15394C4.25 7.15705 4.25 7.16016 4.25 7.16328C4.25 7.16639 4.25 7.1695 4.25 7.17262C4.25 7.17574 4.25 7.17885 4.25 7.18197C4.25 7.18509 4.25 7.18822 4.25 7.19134C4.25 7.19447 4.25 7.19759 4.25 7.20072C4.25 7.20385 4.25 7.20698 4.25 7.21011C4.25 7.21324 4.25 7.21637 4.25 7.21951C4.25 7.22264 4.25 7.22578 4.25 7.22892C4.25 7.23206 4.25 7.2352 4.25 7.23834C4.25 7.24148 4.25 7.24462 4.25 7.24777C4.25 7.25091 4.25 7.25406 4.25 7.2572C4.25 7.26035 4.25 7.2635 4.25 7.26665C4.25 7.2698 4.25 7.27295 4.25 7.27611C4.25 7.27926 4.25 7.28241 4.25 7.28557C4.25 7.28872 4.25 7.29188 4.25 7.29504C4.25 7.2982 4.25 7.30136 4.25 7.30452C4.25 7.30768 4.25 7.31084 4.25 7.314C4.25 7.31717 4.25 7.32033 4.25 7.3235C4.25 7.32666 4.25 7.32983 4.25 7.333C4.25 7.33616 4.25 7.33933 4.25 7.3425C4.25 7.34567 4.25 7.34884 4.25 7.35201C4.25 7.35518 4.25 7.35835 4.25 7.36153C4.25 7.3647 4.25 7.36787 4.25 7.37105C4.25 7.37422 4.25 7.3774 4.25 7.38057C4.25 7.38375 4.25 7.38693 4.25 7.3901C4.25 7.39328 4.25 7.39646 4.25 7.39964C4.25 7.40281 4.25 7.40599 4.25 7.40917C4.25 7.41235 4.25 7.41553 4.25 7.41871C4.25 7.42189 4.25 7.42508 4.25 7.42826C4.25 7.43144 4.25 7.43462 4.25 7.4378C4.25 7.44099 4.25 7.44417 4.25 7.44735C4.25 7.45054 4.25 7.45372 4.25 7.4569C4.25 7.46009 4.25 7.46327 4.25 7.46645C4.25 7.46964 4.25 7.47282 4.25 7.47601C4.25 7.47919 4.25 7.48238 4.25 7.48556C4.25 7.48875 4.25 7.49193 4.25 7.49512C4.25 7.4983 4.25 7.50149 4.25 7.50467C4.25 7.50785 4.25 7.51104 4.25 7.51422C4.25 7.51741 4.25 7.52059 4.25 7.52378C4.25 7.52696 4.25 7.53015 4.25 7.53333C4.25 7.53652 4.25 7.5397 4.25 7.54288C4.25 7.54607 4.25 7.54925 4.25 7.55243C4.25 7.55562 4.25 7.5588 4.25 7.56198C4.25 7.56516 4.25 7.56835 4.25 7.57153C4.25 7.57471 4.25 7.57789 4.25 7.58107C4.25 7.58425 4.25 7.58743 4.25 7.59061C4.25 7.59379 4.25 7.59697 4.25 7.60015C4.25 7.60333 4.25 7.60651 4.25 7.60968C4.25 7.61286 4.25 7.61604 4.25 7.61921C4.25 7.62239 4.25 7.62556 4.25 7.62874C4.25 7.63191 4.25 7.63509 4.25 7.63826C4.25 7.64143 4.25 7.64461 4.25 7.64778C4.25 7.65095 4.25 7.65412 4.25 7.65729C4.25 7.66046 4.25 7.66362 4.25 7.66679C4.25 7.66996 4.25 7.67313 4.25 7.67629C4.25 7.67946 4.25 7.68262 4.25 7.68578C4.25 7.68895 4.25 7.69211 4.25 7.69527C4.25 7.69843 4.25 7.70159 4.25 7.70475C4.25 7.70791 4.25 7.71106 4.25 7.71422C4.25 7.71737 4.25 7.72053 4.25 7.72368C4.25 7.72684 4.25 7.72999 4.25 7.73314C4.25 7.73629 4.25 7.73944 4.25 7.74258C4.25 7.74573 4.25 7.74888 4.25 7.75202C4.25 7.75517 4.25 7.75831 4.25 7.76145C4.25 7.76459 4.25 7.76773 4.25 7.77087C4.25 7.77401 4.25 7.77715 4.25 7.78028C4.25 7.78342 4.25 7.78655 4.25 7.78968C4.25 7.79281 4.25 7.79594 4.25 7.79907C4.25 7.8022 4.25 7.80532 4.25 7.80845C4.25 7.81157 4.25 7.8147 4.25 7.81782C4.25 7.82094 4.25 7.82405 4.25 7.82717C4.25 7.83029 4.25 7.8334 4.25 7.83652C4.25 7.83963 4.25 7.84274 4.25 7.84585C4.25 7.84896 4.25 7.85206 4.25 7.85517C4.25 7.85827 4.25 7.86137 4.25 7.86447C4.25 7.86757 4.25 7.87067 4.25 7.87376C4.25 7.87686 4.25 7.87995 4.25 7.88304C4.25 7.88613 4.25 7.88922 4.25 7.89231C4.25 7.89539 4.25 7.89848 4.25 7.90156C4.25 7.90464 4.25 7.90772 4.25 7.9108C4.25 7.91387 4.25 7.91695 4.25 7.92002C4.25 7.92309 4.25 7.92616 4.25 7.92922C4.25 7.93229 4.25 7.93535 4.25 7.93841C4.25 7.94147 4.25 7.94453 4.25 7.94759C4.25 7.95064 4.25 7.9537 4.25 7.95674C4.25 7.95979 4.25 7.96284 4.25 7.96589C4.25 7.96893 4.25 7.97197 4.25 7.97501C4.25 7.97805 4.25 7.98108 4.25 7.98412C4.25 7.98715 4.25 7.99018 4.25 7.99321C4.25 7.99623 4.25 7.99926 4.25 8.00228C4.25 8.0053 4.25 8.00831 4.25 8.01133C4.25 8.01434 4.25 8.01735 4.25 8.02036C4.25 8.02337 4.25 8.02638 4.25 8.02938C4.25 8.03238 4.25 8.03538 4.25 8.03837C4.25 8.04137 4.25 8.04436 4.25 8.04735C4.25 8.05034 4.25 8.05332 4.25 8.0563C4.25 8.05928 4.25 8.06226 4.25 8.06524C4.25 8.06821 4.25 8.07118 4.25 8.07415C4.25 8.07712 4.25 8.08008 4.25 8.08304C4.25 8.086 4.25 8.08896 4.25 8.09191C4.25 8.09487 4.25 8.09782 4.25 8.10076C4.25 8.10371 4.25 8.10665 4.25 8.10959C4.25 8.11253 4.25 8.11546 4.25 8.11839C4.25 8.12133 4.25 8.12425 4.25 8.12718C4.25 8.1301 4.25 8.13302 4.25 8.13593C4.25 8.13885 4.25 8.14176 4.25 8.14467C4.25 8.14758 4.25 8.15048 4.25 8.15338C4.25 8.15628 4.25 8.15917 4.25 8.16207C4.25 8.16496 4.25 8.16784 4.25 8.17073C4.25 8.17361 4.25 8.17649 4.25 8.17936C4.25 8.18224 4.25 8.18511 4.25 8.18798C4.25 8.19084 4.25 8.1937 4.25 8.19656C4.25 8.19942 4.25 8.20227 4.25 8.20512C4.25 8.20797 4.25 8.21081 4.25 8.21365C4.25 8.21649 4.25 8.21933 4.25 8.22216C4.25 8.22499 4.25 8.22782 4.25 8.23064C4.25 8.23346 4.25 8.23628 4.25 8.23909C4.25 8.24191 4.25 8.24471 4.25 8.24752C4.25 8.25032 4.25 8.25312 4.25 8.25591C4.25 8.25871 4.25 8.2615 4.25 8.26428C4.25 8.26707 4.25 8.26985 4.25 8.27262C4.25 8.2754 4.25 8.27817 4.25 8.28093C4.25 8.2837 4.25 8.28646 4.25 8.28921C4.25 8.29197 4.25 8.29472 4.25 8.29746C4.25 8.30021 4.25 8.30295 4.25 8.30568C4.25 8.30842 4.25 8.31115 4.25 8.31387C4.25 8.3166 4.25 8.31932 4.25 8.32203C4.25 8.32475 4.25 8.32746 4.25 8.33016C4.25 8.33287 4.25 8.33556 4.25 8.33826C4.25 8.34095 4.25 8.34364 4.25 8.34632C4.25 8.34901 4.25 8.35168 4.25 8.35436C4.25 8.35703 4.25 8.35969 4.25 8.36236C4.25 8.36502 4.25 8.36767 4.25 8.37032C4.25 8.37297 4.25 8.37562 4.25 8.37826C4.25 8.3809 4.25 8.38353 4.25 8.38616C4.25 8.38878 4.25 8.39141 4.25 8.39402C4.25 8.39664 4.25 8.39925 4.25 8.40186C4.25 8.40446 4.25 8.40706 4.25 8.40965C4.25 8.41225 4.25 8.41483 4.25 8.41742C4.25 8.42 4.25 8.42257 4.25 8.42514C4.25 8.42771 4.25 8.43028 4.25 8.43283C4.25 8.43539 4.25 8.43794 4.25 8.44049C4.25 8.44304 4.25 8.44557 4.25 8.44811C4.25 8.45064 4.25 8.45317 4.25 8.45569C4.25 8.45821 4.25 8.46073 4.25 8.46324C4.25 8.46575 4.25 8.46825 4.25 8.47074C4.25 8.47324 4.25 8.47573 4.25 8.47821C4.25 8.4807 4.25 8.48318 4.25 8.48565C4.25 8.48812 4.25 8.49058 4.25 8.49304C4.25 8.4955 4.25 8.49795 4.25 8.5004C4.25 8.50284 4.25 8.50528 4.25 8.50771C4.25 8.51014 4.25 8.51257 4.25 8.51499C4.25 8.51741 4.25 8.51982 4.25 8.52222C4.25 8.52463 4.25 8.52703 4.25 8.52942C4.25 8.53181 4.25 8.5342 4.25 8.53658C4.25 8.53896 4.25 8.54133 4.25 8.54369C4.25 8.54606 4.25 8.54842 4.25 8.55077C4.25 8.55312 4.25 8.55546 4.25 8.5578C4.25 8.56014 4.25 8.56247 4.25 8.56479C4.25 8.56711 4.25 8.56943 4.25 8.57174C4.25 8.57405 4.25 8.57635 4.25 8.57864C4.25 8.58094 4.25 8.58323 4.25 8.58551C4.25 8.58779 4.25 8.59006 4.25 8.59233C4.25 8.59459 4.25 8.59685 4.25 8.5991C4.25 8.60135 4.25 8.6036 4.25 8.60583C4.25 8.60807 4.25 8.6103 4.25 8.61252C4.25 8.61474 4.25 8.61696 4.25 8.61917C4.25 8.62137 4.25 8.62357 4.25 8.62576C4.25 8.62796 4.25 8.63014 4.25 8.63232C4.25 8.63449 4.25 8.63666 4.25 8.63883C4.25 8.64099 4.25 8.64314 4.25 8.64529C4.25 8.64743 4.25 8.64957 4.25 8.6517C4.25 8.65383 4.25 8.65595 4.25 8.65807C4.25 8.66018 4.25 8.66229 4.25 8.66439C4.25 8.66649 4.25 8.66858 4.25 8.67067C4.25 8.67275 4.25 8.67482 4.25 8.67689C4.25 8.67896 4.25 8.68102 4.25 8.68307C4.25 8.68512 4.25 8.68716 4.25 8.6892C4.25 8.69123 4.25 8.69326 4.25 8.69528C4.25 8.6973 4.25 8.69931 4.25 8.70131C4.25 8.70331 4.25 8.70531 4.25 8.70729C4.25 8.70928 4.25 8.71126 4.25 8.71323C4.25 8.7152 4.25 8.71716 4.25 8.71911C4.25 8.72106 4.25 8.72301 4.25 8.72494C4.25 8.72688 4.25 8.7288 4.25 8.73072C4.25 8.73264 4.25 8.73455 4.25 8.73645C4.25 8.73835 4.25 8.74025 4.25 8.74213C4.25 8.74402 4.25 8.74589 4.25 8.74776C4.25 8.74963 4.25 8.75148 4.25 8.75333C4.25 8.75518 4.25 8.75702 4.25 8.75886C4.25 8.76069 4.25 8.76251 4.25 8.76432C4.25 8.76614 4.25 8.76794 4.25 8.76974C4.25 8.77154 4.25 8.77332 4.25 8.7751C4.25 8.77688 4.25 8.77865 4.25 8.78041C4.25 8.78217 4.25 8.78392 4.25 8.78566C4.25 8.78741 4.25 8.78914 4.25 8.79086C4.25 8.79259 4.25 8.7943 4.25 8.79601C4.25 8.79771 4.25 8.79941 4.25 8.8011C4.25 8.80278 4.25 8.80446 4.25 8.80613C4.25 8.8078 4.25 8.80946 4.25 8.81111C4.25 8.81276 4.25 8.8144 4.25 8.81603C4.25 8.81766 4.25 8.81928 4.25 8.82089C4.25 8.82251 4.25 8.82411 4.25 8.8257C4.25 8.82729 4.25 8.82888 4.25 8.83045C4.25 8.83203 4.25 8.83359 4.25 8.83514C4.25 8.8367 4.25 8.83824 4.25 8.83978C4.25 8.84131 4.25 8.84284 4.25 8.84435C4.25 8.84587 4.25 8.84738 4.25 8.84887C4.25 8.85037 4.25 8.85185 4.25 8.85333C4.25 8.85481 4.25 8.85627 4.25 8.85773C4.25 8.85918 4.25 8.86063 4.25 8.86207C4.25 8.8635 4.25 8.86493 4.25 8.86635C4.25 8.86776 4.25 8.86917 4.25 8.87056C4.25 8.87196 4.25 8.87335 4.25 8.87472C4.25 8.8761 4.25 8.87746 4.25 8.87882C4.25 8.88017 4.25 8.88152 4.25 8.88285C4.25 8.88419 4.25 8.88551 4.25 8.88683C4.25 8.88814 4.25 8.88944 4.25 8.89074C4.25 8.89203 4.25 8.89331 4.25 8.89459C4.25 8.89586 4.25 8.89712 4.25 8.89837C4.25 8.89962 4.25 8.90086 4.25 8.90209C4.25 8.90332 4.25 8.90454 4.25 8.90575C4.25 8.90696 4.25 8.90816 4.25 8.90935C4.25 8.91053 4.25 8.91171 4.25 8.91288C4.25 8.91404 4.25 8.9152 4.25 8.91634C4.25 8.91749 4.25 8.91862 4.25 8.91974C4.25 8.92087 4.25 8.92198 4.25 8.92308C4.25 8.92418 4.25 8.92527 4.25 8.92635C4.25 8.92743 4.25 8.92849 4.25 8.92955C4.25 8.93061 4.25 8.93165 4.25 8.93269C4.25 8.93372 4.25 8.93475 4.25 8.93576C4.25 8.93677 4.25 8.93777 4.25 8.93876C4.25 8.93975 4.25 8.94073 4.25 8.9417C4.25 8.94267 4.25 8.94362 4.25 8.94457C4.25 8.94551 4.25 8.94645 4.25 8.94737C4.25 8.94829 4.25 8.9492 4.25 8.9501C4.25 8.951 4.25 8.95189 4.25 8.95277C4.25 8.95364 4.25 8.95451 4.25 8.95536C4.25 8.95621 4.25 8.95706 4.25 8.95789C4.25 8.95872 4.25 8.95953 4.25 8.96034C4.25 8.96115 4.25 8.96194 4.25 8.96273C4.25 8.96351 4.25 8.96428 4.25 8.96504C4.25 8.9658 4.25 8.96655 4.25 8.96728C4.25 8.96802 4.25 8.96874 4.25 8.96946C4.25 8.97017 4.25 8.97087 4.25 8.97156C4.25 8.97225 4.25 8.97292 4.25 8.97359C4.25 8.97425 4.25 8.9749 4.25 8.97554C4.25 8.97619 4.25 8.97681 4.25 8.97743C4.25 8.97805 4.25 8.97865 4.25 8.97924C4.25 8.97983 4.25 8.98041 4.25 8.98098C4.25 8.98155 4.25 8.9821 4.25 8.98264C4.25 8.98319 4.25 8.98372 4.25 8.98424C4.25 8.98475 4.25 8.98526 4.25 8.98575C4.25 8.98625 4.25 8.98673 4.25 8.9872C4.25 8.98766 4.25 8.98812 4.25 8.98856C4.25 8.98901 4.25 8.98944 4.25 8.98985C4.25 8.99027 4.25 8.99068 4.25 8.99107C4.25 8.99146 4.25 8.99184 4.25 8.99221C4.25 8.99258 4.25 8.99293 4.25 8.99328C4.25 8.99362 4.25 8.99395 4.25 8.99426C4.25 8.99458 4.25 8.99488 4.25 8.99517C4.25 8.99546 4.25 8.99574 4.25 8.99601C4.25 8.99627 4.25 8.99652 4.25 8.99676C4.25 8.997 4.25 8.99723 4.25 8.99744C4.25 8.99765 4.25 8.99785 4.25 8.99804C4.25 8.99822 4.25 8.9984 4.25 8.99856C4.25 8.99872 4.25 8.99887 4.25 8.999C4.25 8.99913 4.25 8.99925 4.25 8.99936C4.25 8.99947 4.25 8.99956 4.25 8.99964C4.25 8.99972 4.25 8.99979 4.25 8.99984C4.25 8.9999 4.25 8.99994 4.25 8.99997C4.25 8.99999 4.25 9.00001 4.5 9.00001C4.75 9.00001 4.75 8.99999 4.75 8.99997C4.75 8.99994 4.75 8.9999 4.75 8.99984C4.75 8.99979 4.75 8.99972 4.75 8.99964C4.75 8.99956 4.75 8.99947 4.75 8.99936C4.75 8.99925 4.75 8.99913 4.75 8.999C4.75 8.99887 4.75 8.99872 4.75 8.99856C4.75 8.9984 4.75 8.99822 4.75 8.99804C4.75 8.99785 4.75 8.99765 4.75 8.99744C4.75 8.99723 4.75 8.997 4.75 8.99676C4.75 8.99652 4.75 8.99627 4.75 8.99601C4.75 8.99574 4.75 8.99546 4.75 8.99517C4.75 8.99488 4.75 8.99458 4.75 8.99426C4.75 8.99395 4.75 8.99362 4.75 8.99328C4.75 8.99293 4.75 8.99258 4.75 8.99221C4.75 8.99184 4.75 8.99146 4.75 8.99107C4.75 8.99068 4.75 8.99027 4.75 8.98985C4.75 8.98944 4.75 8.98901 4.75 8.98856C4.75 8.98812 4.75 8.98766 4.75 8.9872C4.75 8.98673 4.75 8.98625 4.75 8.98575C4.75 8.98526 4.75 8.98475 4.75 8.98424C4.75 8.98372 4.75 8.98319 4.75 8.98264C4.75 8.9821 4.75 8.98155 4.75 8.98098C4.75 8.98041 4.75 8.97983 4.75 8.97924C4.75 8.97865 4.75 8.97805 4.75 8.97743C4.75 8.97681 4.75 8.97619 4.75 8.97554C4.75 8.9749 4.75 8.97425 4.75 8.97359C4.75 8.97292 4.75 8.97225 4.75 8.97156C4.75 8.97087 4.75 8.97017 4.75 8.96946C4.75 8.96874 4.75 8.96802 4.75 8.96728C4.75 8.96655 4.75 8.9658 4.75 8.96504C4.75 8.96428 4.75 8.96351 4.75 8.96273C4.75 8.96194 4.75 8.96115 4.75 8.96034C4.75 8.95953 4.75 8.95872 4.75 8.95789C4.75 8.95706 4.75 8.95621 4.75 8.95536C4.75 8.95451 4.75 8.95364 4.75 8.95277C4.75 8.95189 4.75 8.951 4.75 8.9501C4.75 8.9492 4.75 8.94829 4.75 8.94737C4.75 8.94645 4.75 8.94551 4.75 8.94457C4.75 8.94362 4.75 8.94267 4.75 8.9417C4.75 8.94073 4.75 8.93975 4.75 8.93876C4.75 8.93777 4.75 8.93677 4.75 8.93576C4.75 8.93475 4.75 8.93372 4.75 8.93269C4.75 8.93165 4.75 8.93061 4.75 8.92955C4.75 8.92849 4.75 8.92743 4.75 8.92635C4.75 8.92527 4.75 8.92418 4.75 8.92308C4.75 8.92198 4.75 8.92087 4.75 8.91974C4.75 8.91862 4.75 8.91749 4.75 8.91634C4.75 8.9152 4.75 8.91404 4.75 8.91288C4.75 8.91171 4.75 8.91053 4.75 8.90935C4.75 8.90816 4.75 8.90696 4.75 8.90575C4.75 8.90454 4.75 8.90332 4.75 8.90209C4.75 8.90086 4.75 8.89962 4.75 8.89837C4.75 8.89712 4.75 8.89586 4.75 8.89459C4.75 8.89331 4.75 8.89203 4.75 8.89074C4.75 8.88944 4.75 8.88814 4.75 8.88683C4.75 8.88551 4.75 8.88419 4.75 8.88285C4.75 8.88152 4.75 8.88017 4.75 8.87882C4.75 8.87746 4.75 8.8761 4.75 8.87472C4.75 8.87335 4.75 8.87196 4.75 8.87056C4.75 8.86917 4.75 8.86776 4.75 8.86635C4.75 8.86493 4.75 8.8635 4.75 8.86207C4.75 8.86063 4.75 8.85918 4.75 8.85773C4.75 8.85627 4.75 8.85481 4.75 8.85333C4.75 8.85185 4.75 8.85037 4.75 8.84887C4.75 8.84738 4.75 8.84587 4.75 8.84435C4.75 8.84284 4.75 8.84131 4.75 8.83978C4.75 8.83824 4.75 8.8367 4.75 8.83514C4.75 8.83359 4.75 8.83203 4.75 8.83045C4.75 8.82888 4.75 8.82729 4.75 8.8257C4.75 8.82411 4.75 8.82251 4.75 8.82089C4.75 8.81928 4.75 8.81766 4.75 8.81603C4.75 8.8144 4.75 8.81276 4.75 8.81111C4.75 8.80946 4.75 8.8078 4.75 8.80613C4.75 8.80446 4.75 8.80278 4.75 8.8011C4.75 8.79941 4.75 8.79771 4.75 8.79601C4.75 8.7943 4.75 8.79259 4.75 8.79086C4.75 8.78914 4.75 8.78741 4.75 8.78566C4.75 8.78392 4.75 8.78217 4.75 8.78041C4.75 8.77865 4.75 8.77688 4.75 8.7751C4.75 8.77332 4.75 8.77154 4.75 8.76974C4.75 8.76794 4.75 8.76614 4.75 8.76432C4.75 8.76251 4.75 8.76069 4.75 8.75886C4.75 8.75702 4.75 8.75518 4.75 8.75333C4.75 8.75148 4.75 8.74963 4.75 8.74776C4.75 8.74589 4.75 8.74402 4.75 8.74213C4.75 8.74025 4.75 8.73835 4.75 8.73645C4.75 8.73455 4.75 8.73264 4.75 8.73072C4.75 8.7288 4.75 8.72688 4.75 8.72494C4.75 8.72301 4.75 8.72106 4.75 8.71911C4.75 8.71716 4.75 8.7152 4.75 8.71323C4.75 8.71126 4.75 8.70928 4.75 8.70729C4.75 8.70531 4.75 8.70331 4.75 8.70131C4.75 8.69931 4.75 8.6973 4.75 8.69528C4.75 8.69326 4.75 8.69123 4.75 8.6892C4.75 8.68716 4.75 8.68512 4.75 8.68307C4.75 8.68102 4.75 8.67896 4.75 8.67689C4.75 8.67482 4.75 8.67275 4.75 8.67067C4.75 8.66858 4.75 8.66649 4.75 8.66439C4.75 8.66229 4.75 8.66018 4.75 8.65807C4.75 8.65596 4.75 8.65383 4.75 8.6517C4.75 8.64957 4.75 8.64743 4.75 8.64529C4.75 8.64314 4.75 8.64099 4.75 8.63883C4.75 8.63666 4.75 8.63449 4.75 8.63232C4.75 8.63014 4.75 8.62796 4.75 8.62576C4.75 8.62357 4.75 8.62137 4.75 8.61917C4.75 8.61696 4.75 8.61474 4.75 8.61252C4.75 8.6103 4.75 8.60807 4.75 8.60583C4.75 8.6036 4.75 8.60135 4.75 8.5991C4.75 8.59685 4.75 8.59459 4.75 8.59233C4.75 8.59006 4.75 8.58779 4.75 8.58551C4.75 8.58323 4.75 8.58094 4.75 8.57864C4.75 8.57635 4.75 8.57405 4.75 8.57174C4.75 8.56943 4.75 8.56711 4.75 8.56479C4.75 8.56247 4.75 8.56014 4.75 8.5578C4.75 8.55546 4.75 8.55312 4.75 8.55077C4.75 8.54842 4.75 8.54606 4.75 8.54369C4.75 8.54133 4.75 8.53896 4.75 8.53658C4.75 8.5342 4.75 8.53181 4.75 8.52942C4.75 8.52703 4.75 8.52463 4.75 8.52222C4.75 8.51982 4.75 8.51741 4.75 8.51499C4.75 8.51257 4.75 8.51014 4.75 8.50771C4.75 8.50528 4.75 8.50284 4.75 8.5004C4.75 8.49795 4.75 8.4955 4.75 8.49304C4.75 8.49058 4.75 8.48812 4.75 8.48565C4.75 8.48318 4.75 8.4807 4.75 8.47821C4.75 8.47573 4.75 8.47324 4.75 8.47074C4.75 8.46825 4.75 8.46575 4.75 8.46324C4.75 8.46073 4.75 8.45821 4.75 8.45569C4.75 8.45317 4.75 8.45064 4.75 8.44811C4.75 8.44557 4.75 8.44304 4.75 8.44049C4.75 8.43794 4.75 8.43539 4.75 8.43283C4.75 8.43028 4.75 8.42771 4.75 8.42514C4.75 8.42257 4.75 8.42 4.75 8.41742C4.75 8.41483 4.75 8.41225 4.75 8.40965C4.75 8.40706 4.75 8.40446 4.75 8.40186C4.75 8.39925 4.75 8.39664 4.75 8.39402C4.75 8.39141 4.75 8.38878 4.75 8.38616C4.75 8.38353 4.75 8.3809 4.75 8.37826C4.75 8.37562 4.75 8.37297 4.75 8.37032C4.75 8.36767 4.75 8.36502 4.75 8.36236C4.75 8.35969 4.75 8.35703 4.75 8.35436C4.75 8.35168 4.75 8.34901 4.75 8.34632C4.75 8.34364 4.75 8.34095 4.75 8.33826C4.75 8.33556 4.75 8.33287 4.75 8.33016C4.75 8.32746 4.75 8.32475 4.75 8.32203C4.75 8.31932 4.75 8.3166 4.75 8.31387C4.75 8.31115 4.75 8.30842 4.75 8.30568C4.75 8.30295 4.75 8.30021 4.75 8.29746C4.75 8.29472 4.75 8.29197 4.75 8.28921C4.75 8.28646 4.75 8.2837 4.75 8.28093C4.75 8.27817 4.75 8.2754 4.75 8.27262C4.75 8.26985 4.75 8.26707 4.75 8.26428C4.75 8.2615 4.75 8.25871 4.75 8.25591C4.75 8.25312 4.75 8.25032 4.75 8.24752C4.75 8.24471 4.75 8.24191 4.75 8.23909C4.75 8.23628 4.75 8.23346 4.75 8.23064C4.75 8.22782 4.75 8.22499 4.75 8.22216C4.75 8.21933 4.75 8.21649 4.75 8.21365C4.75 8.21081 4.75 8.20797 4.75 8.20512C4.75 8.20227 4.75 8.19942 4.75 8.19656C4.75 8.1937 4.75 8.19084 4.75 8.18798C4.75 8.18511 4.75 8.18224 4.75 8.17936C4.75 8.17649 4.75 8.17361 4.75 8.17073C4.75 8.16784 4.75 8.16496 4.75 8.16207C4.75 8.15917 4.75 8.15628 4.75 8.15338C4.75 8.15048 4.75 8.14758 4.75 8.14467C4.75 8.14176 4.75 8.13885 4.75 8.13593C4.75 8.13302 4.75 8.1301 4.75 8.12718C4.75 8.12425 4.75 8.12133 4.75 8.11839C4.75 8.11546 4.75 8.11253 4.75 8.10959C4.75 8.10665 4.75 8.10371 4.75 8.10076C4.75 8.09782 4.75 8.09487 4.75 8.09191C4.75 8.08896 4.75 8.086 4.75 8.08304C4.75 8.08008 4.75 8.07712 4.75 8.07415C4.75 8.07118 4.75 8.06821 4.75 8.06524C4.75 8.06226 4.75 8.05928 4.75 8.0563C4.75 8.05332 4.75 8.05034 4.75 8.04735C4.75 8.04436 4.75 8.04137 4.75 8.03837C4.75 8.03538 4.75 8.03238 4.75 8.02938C4.75 8.02638 4.75 8.02337 4.75 8.02036C4.75 8.01735 4.75 8.01434 4.75 8.01133C4.75 8.00831 4.75 8.0053 4.75 8.00228C4.75 7.99926 4.75 7.99623 4.75 7.99321C4.75 7.99018 4.75 7.98715 4.75 7.98412C4.75 7.98108 4.75 7.97805 4.75 7.97501C4.75 7.97197 4.75 7.96893 4.75 7.96589C4.75 7.96284 4.75 7.95979 4.75 7.95674C4.75 7.9537 4.75 7.95064 4.75 7.94759C4.75 7.94453 4.75 7.94147 4.75 7.93841C4.75 7.93535 4.75 7.93229 4.75 7.92922C4.75 7.92616 4.75 7.92309 4.75 7.92002C4.75 7.91695 4.75 7.91387 4.75 7.9108C4.75 7.90772 4.75 7.90464 4.75 7.90156C4.75 7.89848 4.75 7.89539 4.75 7.89231C4.75 7.88922 4.75 7.88613 4.75 7.88304C4.75 7.87995 4.75 7.87686 4.75 7.87376C4.75 7.87067 4.75 7.86757 4.75 7.86447C4.75 7.86137 4.75 7.85827 4.75 7.85517C4.75 7.85206 4.75 7.84896 4.75 7.84585C4.75 7.84274 4.75 7.83963 4.75 7.83652C4.75 7.8334 4.75 7.83029 4.75 7.82717C4.75 7.82406 4.75 7.82094 4.75 7.81782C4.75 7.8147 4.75 7.81157 4.75 7.80845C4.75 7.80532 4.75 7.8022 4.75 7.79907C4.75 7.79594 4.75 7.79281 4.75 7.78968C4.75 7.78655 4.75 7.78342 4.75 7.78028C4.75 7.77715 4.75 7.77401 4.75 7.77087C4.75 7.76773 4.75 7.76459 4.75 7.76145C4.75 7.75831 4.75 7.75517 4.75 7.75202C4.75 7.74888 4.75 7.74573 4.75 7.74258C4.75 7.73944 4.75 7.73629 4.75 7.73314C4.75 7.72999 4.75 7.72684 4.75 7.72368C4.75 7.72053 4.75 7.71737 4.75 7.71422C4.75 7.71106 4.75 7.70791 4.75 7.70475C4.75 7.70159 4.75 7.69843 4.75 7.69527C4.75 7.69211 4.75 7.68895 4.75 7.68578C4.75 7.68262 4.75 7.67946 4.75 7.67629C4.75 7.67313 4.75 7.66996 4.75 7.66679C4.75 7.66362 4.75 7.66046 4.75 7.65729C4.75 7.65412 4.75 7.65095 4.75 7.64778C4.75 7.64461 4.75 7.64143 4.75 7.63826C4.75 7.63509 4.75 7.63191 4.75 7.62874C4.75 7.62556 4.75 7.62239 4.75 7.61921C4.75 7.61604 4.75 7.61286 4.75 7.60968C4.75 7.60651 4.75 7.60333 4.75 7.60015C4.75 7.59697 4.75 7.59379 4.75 7.59061C4.75 7.58743 4.75 7.58425 4.75 7.58107C4.75 7.57789 4.75 7.57471 4.75 7.57153C4.75 7.56835 4.75 7.56516 4.75 7.56198C4.75 7.5588 4.75 7.55562 4.75 7.55243C4.75 7.54925 4.75 7.54607 4.75 7.54288C4.75 7.5397 4.75 7.53652 4.75 7.53333C4.75 7.53015 4.75 7.52696 4.75 7.52378C4.75 7.52059 4.75 7.51741 4.75 7.51422C4.75 7.51104 4.75 7.50786 4.75 7.50467C4.75 7.50149 4.75 7.4983 4.75 7.49512C4.75 7.49193 4.75 7.48875 4.75 7.48556C4.75 7.48238 4.75 7.47919 4.75 7.47601C4.75 7.47282 4.75 7.46964 4.75 7.46645C4.75 7.46327 4.75 7.46009 4.75 7.4569C4.75 7.45372 4.75 7.45054 4.75 7.44735C4.75 7.44417 4.75 7.44099 4.75 7.4378C4.75 7.43462 4.75 7.43144 4.75 7.42826C4.75 7.42508 4.75 7.42189 4.75 7.41871C4.75 7.41553 4.75 7.41235 4.75 7.40917C4.75 7.40599 4.75 7.40281 4.75 7.39964C4.75 7.39646 4.75 7.39328 4.75 7.3901C4.75 7.38693 4.75 7.38375 4.75 7.38057C4.75 7.3774 4.75 7.37422 4.75 7.37105C4.75 7.36787 4.75 7.3647 4.75 7.36153C4.75 7.35835 4.75 7.35518 4.75 7.35201C4.75 7.34884 4.75 7.34567 4.75 7.3425C4.75 7.33933 4.75 7.33616 4.75 7.333C4.75 7.32983 4.75 7.32666 4.75 7.3235C4.75 7.32033 4.75 7.31717 4.75 7.314C4.75 7.31084 4.75 7.30768 4.75 7.30452C4.75 7.30136 4.75 7.2982 4.75 7.29504C4.75 7.29188 4.75 7.28872 4.75 7.28557C4.75 7.28241 4.75 7.27926 4.75 7.27611C4.75 7.27295 4.75 7.2698 4.75 7.26665C4.75 7.2635 4.75 7.26035 4.75 7.2572C4.75 7.25406 4.75 7.25091 4.75 7.24777C4.75 7.24462 4.75 7.24148 4.75 7.23834C4.75 7.2352 4.75 7.23206 4.75 7.22892C4.75 7.22578 4.75 7.22264 4.75 7.21951C4.75 7.21637 4.75 7.21324 4.75 7.21011C4.75 7.20698 4.75 7.20385 4.75 7.20072C4.75 7.19759 4.75 7.19447 4.75 7.19134C4.75 7.18822 4.75 7.18509 4.75 7.18197C4.75 7.17885 4.75 7.17574 4.75 7.17262C4.75 7.1695 4.75 7.16639 4.75 7.16328C4.75 7.16016 4.75 7.15705 4.75 7.15394C4.75 7.15084 4.75 7.14773 4.75 7.14463C4.75 7.14152 4.75 7.13842 4.75 7.13532C4.75 7.13222 4.75 7.12912 4.75 7.12603C4.75 7.12293 4.75 7.11984 4.75 7.11675C4.75 7.11366 4.75 7.11057 4.75 7.10748C4.75 7.1044 4.75 7.10131 4.75 7.09823C4.75 7.09515 4.75 7.09207 4.75 7.089C4.75 7.08592 4.75 7.08285 4.75 7.07978C4.75 7.07671 4.75 7.07364 4.75 7.07057C4.75 7.06751 4.75 7.06444 4.75 7.06138C4.75 7.05832 4.75 7.05526 4.75 7.05221C4.75 7.04915 4.75 7.0461 4.75 7.04305C4.75 7.04 4.75 7.03695 4.75 7.03391C4.75 7.03087 4.75 7.02782 4.75 7.02479C4.75 7.02175 4.75 7.01871 4.75 7.01568C4.75 7.01265 4.75 7.00962 4.75 7.00659C4.75 7.00356 4.75 7.00054 4.75 6.99752C4.75 6.9945 4.75 6.99148 4.75 6.98847C4.75 6.98545 4.75 6.98244 4.75 6.97944C4.75 6.97643 4.75 6.97342 4.75 6.97042C4.75 6.96742 4.75 6.96442 4.75 6.96143C4.75 6.95843 4.75 6.95544 4.75 6.95245C4.75 6.94946 4.75 6.94648 4.75 6.9435C4.75 6.94052 4.75 6.93754 4.75 6.93456C4.75 6.93159 4.75 6.92862 4.75 6.92565C4.75 6.92268 4.75 6.91972 4.75 6.91676C4.75 6.9138 4.75 6.91084 4.75 6.90789C4.75 6.90493 4.75 6.90198 4.75 6.89904C4.75 6.89609 4.75 6.89315 4.75 6.89021C4.75 6.88727 4.75 6.88434 4.75 6.88141C4.75 6.87848 4.75 6.87555 4.75 6.87263C4.75 6.8697 4.75 6.86679 4.75 6.86387C4.75 6.86095 4.75 6.85804 4.75 6.85514C4.75 6.85223 4.75 6.84933 4.75 6.84643C4.75 6.84353 4.75 6.84063 4.75 6.83774C4.75 6.83485 4.75 6.83196 4.75 6.82908C4.75 6.8262 4.75 6.82332 4.75 6.82044C4.75 6.81757 4.75 6.8147 4.75 6.81183C4.75 6.80897 4.75 6.8061 4.75 6.80325C4.75 6.80039 4.75 6.79754 4.75 6.79469C4.75 6.79184 4.75 6.78899 4.75 6.78615C4.75 6.78332 4.75 6.78048 4.75 6.77765C4.75 6.77482 4.75 6.77199 4.75 6.76917C4.75 6.76635 4.75 6.76353 4.75 6.76072C4.75 6.75791 4.75 6.7551 4.75 6.75229C4.75 6.74949 4.75 6.74669 4.75 6.7439C4.75 6.7411 4.75 6.73832 4.75 6.73553C4.75 6.73275 4.75 6.72997 4.75 6.72719C4.75 6.72442 4.75 6.72165 4.75 6.71888C4.75 6.71612 4.75 6.71336 4.75 6.7106C4.75 6.70785 4.75 6.7051 4.75 6.70235C4.75 6.69961 4.75 6.69687 4.75 6.69413C4.75 6.6914 4.75 6.68867 4.75 6.68594C4.75 6.68322 4.75 6.6805 4.75 6.67778C4.75 6.67507 4.75 6.67236 4.75 6.66966C4.75 6.66695 4.75 6.66425 4.75 6.66156C4.75 6.65887 4.75 6.65618 4.75 6.6535C4.75 6.65081 4.75 6.64814 4.75 6.64547C4.75 6.64279 4.75 6.64013 4.75 6.63747C4.75 6.63481 4.75 6.63215 4.75 6.6295C4.75 6.62685 4.75 6.62421 4.75 6.62157C4.75 6.61893 4.75 6.61629 4.75 6.61367C4.75 6.61104 4.75 6.60842 4.75 6.6058C4.75 6.60319 4.75 6.60058 4.75 6.59797C4.75 6.59537 4.75 6.59277 4.75 6.59017C4.75 6.58758 4.75 6.58499 4.75 6.58241C4.75 6.57983 4.75 6.57726 4.75 6.57469C4.75 6.57212 4.75 6.56955 4.75 6.567C4.75 6.56444 4.75 6.56189 4.75 6.55934C4.75 6.5568 4.75 6.55426 4.75 6.55172C4.75 6.54919 4.75 6.54666 4.75 6.54414C4.75 6.54162 4.75 6.5391 4.75 6.5366C4.75 6.53409 4.75 6.53159 4.75 6.52909C4.75 6.52659 4.75 6.5241 4.75 6.52162C4.75 6.51914 4.75 6.51666 4.75 6.51419C4.75 6.51172 4.75 6.50925 4.75 6.5068C4.75 6.50434 4.75 6.50189 4.75 6.49944C4.75 6.497 4.75 6.49456 4.75 6.49213C4.75 6.48969 4.75 6.48727 4.75 6.48485C4.75 6.48243 4.75 6.48002 4.75 6.47762C4.75 6.47521 4.75 6.47281 4.75 6.47042C4.75 6.46803 4.75 6.46564 4.75 6.46326C4.75 6.46089 4.75 6.45851 4.75 6.45615C4.75 6.45379 4.75 6.45143 4.75 6.44908C4.75 6.44673 4.75 6.44438 4.75 6.44205C4.75 6.43971 4.75 6.43738 4.75 6.43506C4.75 6.43273 4.75 6.43042 4.75 6.42811C4.75 6.4258 4.75 6.4235 4.75 6.4212C4.75 6.41891 4.75 6.41662 4.75 6.41434C4.75 6.41206 4.75 6.40979 4.75 6.40752C4.75 6.40526 4.75 6.403 4.75 6.40075C4.75 6.3985 4.75 6.39625 4.75 6.39402C4.75 6.39178 4.75 6.38955 4.75 6.38733C4.75 6.38511 4.75 6.38289 4.75 6.38069C4.75 6.37848 4.75 6.37628 4.75 6.37409C4.75 6.3719 4.75 6.36971 4.75 6.36754C4.75 6.36536 4.75 6.36319 4.75 6.36103C4.75 6.35887 4.75 6.35672 4.75 6.35457C4.75 6.35243 4.75 6.35029 4.75 6.34816C4.75 6.34603 4.75 6.3439 4.75 6.34179C4.75 6.33968 4.75 6.33757 4.75 6.33547C4.75 6.33337 4.75 6.33128 4.75 6.3292C4.75 6.32711 4.75 6.32504 4.75 6.32297C4.75 6.3209 4.75 6.31885 4.75 6.31679C4.75 6.31474 4.75 6.3127 4.75 6.31067C4.75 6.30863 4.75 6.3066 4.75 6.30459C4.75 6.30257 4.75 6.30056 4.75 6.29856C4.75 6.29655 4.75 6.29456 4.75 6.29257C4.75 6.29059 4.75 6.28861 4.75 6.28664C4.75 6.28467 4.75 6.28271 4.75 6.28076C4.75 6.27881 4.75 6.27687 4.75 6.27493C4.75 6.273 4.75 6.27107 4.75 6.26915C4.75 6.26723 4.75 6.26532 4.75 6.26342C4.75 6.26152 4.75 6.25963 4.75 6.25774C4.75 6.25586 4.75 6.25398 4.75 6.25212C4.75 6.25025 4.75 6.24839 4.75 6.24655C4.75 6.2447 4.75 6.24286 4.75 6.24102C4.75 6.23919 4.75 6.23737 4.75 6.23556C4.75 6.23374 4.75 6.23194 4.75 6.23014C4.75 6.22835 4.75 6.22656 4.75 6.22478C4.75 6.223 4.75 6.22123 4.75 6.21947C4.75 6.21771 4.75 6.21596 4.75 6.21422C4.75 6.21248 4.75 6.21075 4.75 6.20902C4.75 6.2073 4.75 6.20558 4.75 6.20388C4.75 6.20217 4.75 6.20048 4.75 6.19879C4.75 6.19711 4.75 6.19543 4.75 6.19376C4.75 6.19209 4.75 6.19043 4.75 6.18878C4.75 6.18713 4.75 6.18549 4.75 6.18386C4.75 6.18223 4.75 6.18061 4.75 6.179C4.75 6.17739 4.75 6.17579 4.75 6.17419C4.75 6.1726 4.75 6.17102 4.75 6.16945C4.75 6.16787 4.75 6.16631 4.75 6.16475C4.75 6.1632 4.75 6.16166 4.75 6.16012C4.75 6.15859 4.75 6.15706 4.75 6.15555C4.75 6.15403 4.75 6.15253 4.75 6.15103C4.75 6.14954 4.75 6.14805 4.75 6.14657C4.75 6.1451 4.75 6.14363 4.75 6.14218C4.75 6.14072 4.75 6.13928 4.75 6.13784C4.75 6.1364 4.75 6.13498 4.75 6.13356C4.75 6.13215 4.75 6.13074 4.75 6.12934C4.75 6.12795 4.75 6.12656 4.75 6.12519C4.75 6.12381 4.75 6.12245 4.75 6.12109C4.75 6.11974 4.75 6.11839 4.75 6.11706C4.75 6.11573 4.75 6.1144 4.75 6.11309C4.75 6.11178 4.75 6.11047 4.75 6.10918C4.75 6.10789 4.75 6.1066 4.75 6.10533C4.75 6.10406 4.75 6.1028 4.75 6.10155C4.75 6.1003 4.75 6.09906 4.75 6.09783C4.75 6.0966 4.75 6.09538 4.75 6.09417C4.75 6.09296 4.75 6.09177 4.75 6.09058C4.75 6.08939 4.75 6.08822 4.75 6.08705C4.75 6.08588 4.75 6.08473 4.75 6.08359C4.75 6.08244 4.75 6.08131 4.75 6.08019C4.75 6.07906 4.75 6.07795 4.75 6.07685C4.75 6.07575 4.75 6.07466 4.75 6.07358C4.75 6.07251 4.75 6.07144 4.75 6.07038C4.75 6.06932 4.75 6.06828 4.75 6.06725C4.75 6.06621 4.75 6.06519 4.75 6.06418C4.75 6.06316 4.75 6.06216 4.75 6.06117C4.75 6.06018 4.75 6.05921 4.75 6.05824C4.75 6.05727 4.75 6.05632 4.75 6.05537C4.75 6.05443 4.75 6.05349 4.75 6.05257C4.75 6.05165 4.75 6.05074 4.75 6.04984C4.75 6.04894 4.75 6.04806 4.75 6.04718C4.75 6.0463 4.75 6.04544 4.75 6.04459C4.75 6.04373 4.75 6.04289 4.75 6.04206C4.75 6.04123 4.75 6.04042 4.75 6.03961C4.75 6.0388 4.75 6.03801 4.75 6.03723C4.75 6.03644 4.75 6.03567 4.75 6.03491C4.75 6.03415 4.75 6.03341 4.75 6.03267C4.75 6.03194 4.75 6.03121 4.75 6.0305C4.75 6.02979 4.75 6.02909 4.75 6.0284C4.75 6.02771 4.75 6.02704 4.75 6.02637C4.75 6.02571 4.75 6.02506 4.75 6.02442C4.75 6.02378 4.75 6.02315 4.75 6.02253C4.75 6.02192 4.75 6.02131 4.75 6.02072C4.75 6.02013 4.75 6.01955 4.75 6.01899C4.75 6.01842 4.75 6.01787 4.75 6.01732C4.75 6.01678 4.75 6.01625 4.75 6.01573C4.75 6.01522 4.75 6.01471 4.75 6.01422C4.75 6.01373 4.75 6.01325 4.75 6.01278C4.75 6.01231 4.75 6.01186 4.75 6.01141C4.75 6.01097 4.75 6.01054 4.75 6.01012C4.75 6.00971 4.75 6.0093 4.75 6.00891C4.75 6.00852 4.75 6.00814 4.75 6.00777C4.75 6.0074 4.75 6.00705 4.75 6.00671C4.75 6.00637 4.75 6.00604 4.75 6.00572C4.75 6.00541 4.75 6.0051 4.75 6.00481C4.75 6.00452 4.75 6.00425 4.75 6.00398C4.75 6.00372 4.75 6.00347 4.75 6.00323C4.75 6.00299 4.75 6.00276 4.75 6.00255C4.75 6.00234 4.75 6.00214 4.75 6.00196C4.75 6.00177 4.75 6.0016 4.75 6.00144C4.75 6.00128 4.75 6.00113 4.75 6.001C4.75 6.00086 4.75 6.00074 4.75 6.00064C4.75 6.00053 4.75 6.00044 4.75 6.00036C4.75 6.00028 4.75 6.00021 4.75 6.00016C4.75 6.0001 4.75 6.00006 4.75 6.00004C4.75 6.00001 4.5 6 4.25 6C4.25 6 4.25 6.00001 4.25 6.00004C4.25 6.00007 4.25 6.00011 4.25 6.00017C4.25 6.00022 4.25 6.00029 4.25 6.00037C4.25 6.00045 4.25 6.00055 4.25 6.00066C4.25 6.00077 4.25 6.00089 4.25 6.00103C4.25 6.00117 4.25 6.00132 4.25 6.00148C4.25 6.00165 4.25 6.00183 4.25 6.00202C4.25 6.00221 4.25 6.00242 4.25 6.00264C4.25 6.00286 4.25 6.0031 4.25 6.00335C4.25 6.00359 4.25 6.00386 4.25 6.00413C4.25 6.00441 4.25 6.0047 4.25 6.00501C4.25 6.00531 4.25 6.00563 4.25 6.00596C4.25 6.0063 4.25 6.00665 4.25 6.00701C4.25 6.00737 4.25 6.00775 4.25 6.00814C4.25 6.00853 4.25 6.00893 4.25 6.00935C4.25 6.00977 4.25 6.0102 4.25 6.01065C4.25 6.0111 4.25 6.01156 4.25 6.01204C4.25 6.01252 4.25 6.01301 4.25 6.01352C4.25 6.01402 4.25 6.01454 4.25 6.01508C4.25 6.01561 4.25 6.01616 4.25 6.01673C4.25 6.01729 4.25 6.01787 4.25 6.01847C4.25 6.01906 4.25 6.01967 4.25 6.02029C4.25 6.02092 4.25 6.02155 4.25 6.02221C4.25 6.02286 4.25 6.02353 4.25 6.02421C4.25 6.02489 4.25 6.02559 4.25 6.02631C4.25 6.02702 4.25 6.02775 4.25 6.02849C4.25 6.02923 4.25 6.02999 4.25 6.03076C4.25 6.03153 4.25 6.03232 4.25 6.03313C4.25 6.03393 4.25 6.03475 4.25 6.03558C4.25 6.03641 4.25 6.03726 4.25 6.03813C4.25 6.03899 4.25 6.03987 4.25 6.04076C4.25 6.04166 4.25 6.04257 4.25 6.04349C4.25 6.04442 4.25 6.04536 4.25 6.04631C4.25 6.04727 4.25 6.04824 4.25 6.04923C4.25 6.05022 4.25 6.05122 4.25 6.05224C4.25 6.05325 4.25 6.05429 4.25 6.05534C4.25 6.05638 4.25 6.05745 4.25 6.05853C4.25 6.05961 4.25 6.06071 4.25 6.06182C4.25 6.06293 4.25 6.06406 4.25 6.0652C4.25 6.06634 4.25 6.0675 4.25 6.06867C4.25 6.06985 4.25 6.07104 4.25 6.07225L4.75 6.07225Z" fill="#333333"/>
</svg>
