<svg width="16" height="16" viewBox="0 0 16 16" fill="none" xmlns="http://www.w3.org/2000/svg">
<path d="M0.937259 8.00003L0.421227 7.45577C0.271857 7.5974 0.187259 7.79419 0.187259 8.00003C0.187259 8.20586 0.271857 8.40265 0.421227 8.54428L0.937259 8.00003ZM7.92123 15.6554C8.22181 15.9404 8.69652 15.9278 8.98151 15.6272C9.26651 15.3266 9.25387 14.8519 8.95329 14.5669L7.92123 15.6554ZM8.95329 1.43317C9.25387 1.14817 9.26651 0.673466 8.98151 0.372884C8.69652 0.0723016 8.22181 0.0596668 7.92123 0.344663L8.95329 1.43317ZM0.999764 8.75003C1.41398 8.75003 1.74976 8.41424 1.74976 8.00003C1.74976 7.58581 1.41398 7.25003 0.999764 7.25003V8.75003ZM14.9998 8.75003C15.414 8.75003 15.7498 8.41424 15.7498 8.00003C15.7498 7.58581 15.414 7.25003 14.9998 7.25003V8.75003ZM8.95329 14.5669L1.45329 7.45577L0.421227 8.54428L7.92123 15.6554L8.95329 14.5669ZM1.45329 8.54428L8.95329 1.43317L7.92123 0.344663L0.421227 7.45577L1.45329 8.54428ZM0.999764 7.25003C0.993996 7.25003 0.988303 7.25003 0.982687 7.25003C0.97707 7.25003 0.971529 7.25003 0.966064 7.25003C0.960598 7.25003 0.955208 7.25003 0.949893 7.25003C0.944578 7.25003 0.939338 7.25003 0.934173 7.25003C0.929007 7.25003 0.923917 7.25003 0.918901 7.25003C0.913886 7.25003 0.908945 7.25003 0.904078 7.25003C0.899211 7.25003 0.894418 7.25003 0.8897 7.25003C0.884981 7.25003 0.880336 7.25003 0.875766 7.25003C0.871195 7.25003 0.866698 7.25003 0.862274 7.25003C0.857851 7.25003 0.8535 7.25003 0.849224 7.25003C0.844947 7.25003 0.840743 7.25003 0.836612 7.25003C0.832481 7.25003 0.828423 7.25003 0.824438 7.25003C0.820453 7.25003 0.81654 7.25003 0.8127 7.25003C0.808859 7.25003 0.805092 7.25003 0.801396 7.25003C0.7977 7.25003 0.794076 7.25003 0.790524 7.25003C0.786972 7.25003 0.783492 7.25003 0.780084 7.25003C0.776675 7.25003 0.773338 7.25003 0.770073 7.25003C0.766807 7.25003 0.763612 7.25003 0.760489 7.25003C0.757366 7.25003 0.754313 7.25003 0.751331 7.25003C0.74835 7.25003 0.745439 7.25003 0.742598 7.25003C0.739757 7.25003 0.736987 7.25003 0.734287 7.25003C0.731587 7.25003 0.728958 7.25003 0.726398 7.25003C0.723838 7.25003 0.721348 7.25003 0.718927 7.25003C0.716507 7.25003 0.714156 7.25003 0.711875 7.25003C0.709593 7.25003 0.707381 7.25003 0.705238 7.25003C0.703095 7.25003 0.701021 7.25003 0.699016 7.25003C0.697011 7.25003 0.695075 7.25003 0.693207 7.25003C0.691339 7.25003 0.68954 7.25003 0.687809 7.25003C0.686078 7.25003 0.684415 7.25003 0.68282 7.25003C0.681226 7.25003 0.679699 7.25003 0.67824 7.25003C0.676781 7.25003 0.675389 7.25003 0.674065 7.25003C0.672741 7.25003 0.671484 7.25003 0.670295 7.25003C0.669106 7.25003 0.667983 7.25003 0.666928 7.25003C0.665873 7.25003 0.664884 7.25003 0.663962 7.25003C0.66304 7.25003 0.662185 7.25003 0.661396 7.25003C0.660607 7.25003 0.659884 7.25003 0.659227 7.25003C0.658571 7.25003 0.65798 7.25003 0.657455 7.25003C0.656931 7.25003 0.656472 7.25003 0.656078 7.25003C0.655685 7.25003 0.655357 7.25003 0.655094 7.25003C0.654831 7.25003 0.654633 7.25003 0.654501 7.25003C0.654368 7.25003 0.654301 7.25003 0.654298 7.25003C0.654295 8.00003 0.654356 8.75003 0.654482 8.75003C0.654608 8.75003 0.654799 8.75003 0.655054 8.75003C0.655308 8.75003 0.655627 8.75003 0.65601 8.75003C0.656392 8.75003 0.656839 8.75003 0.657349 8.75003C0.657859 8.75003 0.658432 8.75003 0.659069 8.75003C0.659706 8.75003 0.660406 8.75003 0.66117 8.75003C0.661933 8.75003 0.662759 8.75003 0.663648 8.75003C0.664537 8.75003 0.665489 8.75003 0.666504 8.75003C0.667518 8.75003 0.668595 8.75003 0.669734 8.75003C0.670873 8.75003 0.672074 8.75003 0.673337 8.75003C0.6746 8.75003 0.675925 8.75003 0.677312 8.75003C0.678698 8.75003 0.680147 8.75003 0.681657 8.75003C0.683166 8.75003 0.684737 8.75003 0.68637 8.75003C0.688002 8.75003 0.689695 8.75003 0.691449 8.75003C0.693204 8.75003 0.695019 8.75003 0.696894 8.75003C0.69877 8.75003 0.700706 8.75003 0.702702 8.75003C0.704699 8.75003 0.706755 8.75003 0.708872 8.75003C0.710989 8.75003 0.713166 8.75003 0.715402 8.75003C0.717638 8.75003 0.719935 8.75003 0.72229 8.75003C0.724646 8.75003 0.727061 8.75003 0.729535 8.75003C0.73201 8.75003 0.734543 8.75003 0.737135 8.75003C0.739728 8.75003 0.742379 8.75003 0.745089 8.75003C0.747799 8.75003 0.750568 8.75003 0.753395 8.75003C0.756221 8.75003 0.759107 8.75003 0.76205 8.75003C0.764994 8.75003 0.767995 8.75003 0.771054 8.75003C0.774114 8.75003 0.777231 8.75003 0.780405 8.75003C0.78358 8.75003 0.786812 8.75003 0.790102 8.75003C0.793391 8.75003 0.796738 8.75003 0.800141 8.75003C0.803545 8.75003 0.807006 8.75003 0.810523 8.75003C0.814041 8.75003 0.817615 8.75003 0.821245 8.75003C0.824876 8.75003 0.828563 8.75003 0.832306 8.75003C0.836049 8.75003 0.839848 8.75003 0.843703 8.75003C0.847559 8.75003 0.85147 8.75003 0.855436 8.75003C0.859403 8.75003 0.863425 8.75003 0.867503 8.75003C0.871581 8.75003 0.875714 8.75003 0.879902 8.75003C0.88409 8.75003 0.888333 8.75003 0.892631 8.75003C0.896929 8.75003 0.901282 8.75003 0.905689 8.75003C0.910096 8.75003 0.914558 8.75003 0.919074 8.75003C0.92359 8.75003 0.92816 8.75003 0.932784 8.75003C0.937409 8.75003 0.942087 8.75003 0.946819 8.75003C0.95155 8.75003 0.956336 8.75003 0.961175 8.75003C0.966014 8.75003 0.970906 8.75003 0.975852 8.75003C0.980797 8.75003 0.985796 8.75003 0.990848 8.75003C0.995899 8.75003 1.001 8.75003 1.00616 8.75003C1.01132 8.75003 1.01653 8.75003 1.02179 8.75003C1.02705 8.75003 1.03237 8.75003 1.03773 8.75003C1.0431 8.75003 1.04852 8.75003 1.05399 8.75003C1.05946 8.75003 1.06498 8.75003 1.07055 8.75003C1.07613 8.75003 1.08175 8.75003 1.08743 8.75003C1.0931 8.75003 1.09883 8.75003 1.10461 8.75003C1.11039 8.75003 1.11622 8.75003 1.1221 8.75003C1.12798 8.75003 1.13391 8.75003 1.13989 8.75003C1.14587 8.75003 1.1519 8.75003 1.15798 8.75003C1.16406 8.75003 1.17019 8.75003 1.17637 8.75003C1.18256 8.75003 1.18879 8.75003 1.19507 8.75003C1.20135 8.75003 1.20768 8.75003 1.21406 8.75003C1.22044 8.75003 1.22687 8.75003 1.23335 8.75003C1.23982 8.75003 1.24635 8.75003 1.25293 8.75003C1.2595 8.75003 1.26613 8.75003 1.2728 8.75003C1.27947 8.75003 1.2862 8.75003 1.29297 8.75003C1.29973 8.75003 1.30655 8.75003 1.31342 8.75003C1.32028 8.75003 1.3272 8.75003 1.33416 8.75003C1.34112 8.75003 1.34813 8.75003 1.35519 8.75003C1.36224 8.75003 1.36935 8.75003 1.3765 8.75003C1.38365 8.75003 1.39085 8.75003 1.39809 8.75003C1.40534 8.75003 1.41263 8.75003 1.41997 8.75003C1.4273 8.75003 1.43469 8.75003 1.44212 8.75003C1.44955 8.75003 1.45703 8.75003 1.46455 8.75003C1.47208 8.75003 1.47965 8.75003 1.48726 8.75003C1.49488 8.75003 1.50254 8.75003 1.51024 8.75003C1.51795 8.75003 1.5257 8.75003 1.5335 8.75003C1.54129 8.75003 1.54914 8.75003 1.55702 8.75003C1.56491 8.75003 1.57284 8.75003 1.58082 8.75003C1.5888 8.75003 1.59682 8.75003 1.60488 8.75003C1.61295 8.75003 1.62106 8.75003 1.62921 8.75003C1.63737 8.75003 1.64556 8.75003 1.65381 8.75003C1.66205 8.75003 1.67033 8.75003 1.67866 8.75003C1.68699 8.75003 1.69536 8.75003 1.70378 8.75003C1.7122 8.75003 1.72066 8.75003 1.72916 8.75003C1.73766 8.75003 1.7462 8.75003 1.75479 8.75003C1.76338 8.75003 1.77201 8.75003 1.78068 8.75003C1.78936 8.75003 1.79807 8.75003 1.80683 8.75003C1.81559 8.75003 1.82439 8.75003 1.83323 8.75003C1.84207 8.75003 1.85095 8.75003 1.85988 8.75003C1.86881 8.75003 1.87777 8.75003 1.88678 8.75003C1.89579 8.75003 1.90484 8.75003 1.91393 8.75003C1.92302 8.75003 1.93215 8.75003 1.94132 8.75003C1.95049 8.75003 1.95971 8.75003 1.96896 8.75003C1.97822 8.75003 1.98751 8.75003 1.99684 8.75003C2.00618 8.75003 2.01555 8.75003 2.02497 8.75003C2.03438 8.75003 2.04384 8.75003 2.05333 8.75003C2.06283 8.75003 2.07236 8.75003 2.08193 8.75003C2.09151 8.75003 2.10112 8.75003 2.11077 8.75003C2.12042 8.75003 2.13011 8.75003 2.13984 8.75003C2.14957 8.75003 2.15934 8.75003 2.16915 8.75003C2.17896 8.75003 2.1888 8.75003 2.19869 8.75003C2.20857 8.75003 2.21849 8.75003 2.22845 8.75003C2.23841 8.75003 2.24841 8.75003 2.25845 8.75003C2.26849 8.75003 2.27856 8.75003 2.28867 8.75003C2.29878 8.75003 2.30893 8.75003 2.31912 8.75003C2.32931 8.75003 2.33953 8.75003 2.34979 8.75003C2.36005 8.75003 2.37035 8.75003 2.38068 8.75003C2.39102 8.75003 2.40139 8.75003 2.41179 8.75003C2.4222 8.75003 2.43264 8.75003 2.44312 8.75003C2.4536 8.75003 2.46412 8.75003 2.47467 8.75003C2.48522 8.75003 2.49581 8.75003 2.50643 8.75003C2.51706 8.75003 2.52772 8.75003 2.53841 8.75003C2.5491 8.75003 2.55983 8.75003 2.5706 8.75003C2.58136 8.75003 2.59216 8.75003 2.60299 8.75003C2.61383 8.75003 2.6247 8.75003 2.6356 8.75003C2.6465 8.75003 2.65744 8.75003 2.66841 8.75003C2.67938 8.75003 2.69039 8.75003 2.70143 8.75003C2.71247 8.75003 2.72354 8.75003 2.73465 8.75003C2.74576 8.75003 2.7569 8.75003 2.76808 8.75003C2.77925 8.75003 2.79046 8.75003 2.8017 8.75003C2.81294 8.75003 2.82421 8.75003 2.83552 8.75003C2.84683 8.75003 2.85817 8.75003 2.86954 8.75003C2.88091 8.75003 2.89232 8.75003 2.90375 8.75003C2.91519 8.75003 2.92666 8.75003 2.93816 8.75003C2.94966 8.75003 2.9612 8.75003 2.97276 8.75003C2.98433 8.75003 2.99592 8.75003 3.00755 8.75003C3.01918 8.75003 3.03084 8.75003 3.04253 8.75003C3.05422 8.75003 3.06594 8.75003 3.0777 8.75003C3.08945 8.75003 3.10123 8.75003 3.11305 8.75003C3.12486 8.75003 3.13671 8.75003 3.14858 8.75003C3.16046 8.75003 3.17237 8.75003 3.1843 8.75003C3.19624 8.75003 3.2082 8.75003 3.2202 8.75003C3.23219 8.75003 3.24422 8.75003 3.25628 8.75003C3.26833 8.75003 3.28042 8.75003 3.29253 8.75003C3.30464 8.75003 3.31679 8.75003 3.32896 8.75003C3.34113 8.75003 3.35333 8.75003 3.36556 8.75003C3.37779 8.75003 3.39005 8.75003 3.40234 8.75003C3.41462 8.75003 3.42694 8.75003 3.43928 8.75003C3.45163 8.75003 3.464 8.75003 3.4764 8.75003C3.4888 8.75003 3.50122 8.75003 3.51368 8.75003C3.52613 8.75003 3.53862 8.75003 3.55113 8.75003C3.56364 8.75003 3.57617 8.75003 3.58874 8.75003C3.6013 8.75003 3.61389 8.75003 3.62651 8.75003C3.63913 8.75003 3.65178 8.75003 3.66445 8.75003C3.67712 8.75003 3.68982 8.75003 3.70254 8.75003C3.71526 8.75003 3.72801 8.75003 3.74079 8.75003C3.75357 8.75003 3.76637 8.75003 3.7792 8.75003C3.79203 8.75003 3.80488 8.75003 3.81776 8.75003C3.83064 8.75003 3.84354 8.75003 3.85647 8.75003C3.8694 8.75003 3.88236 8.75003 3.89534 8.75003C3.90832 8.75003 3.92132 8.75003 3.93435 8.75003C3.94738 8.75003 3.96043 8.75003 3.97351 8.75003C3.98659 8.75003 3.99969 8.75003 4.01282 8.75003C4.02594 8.75003 4.03909 8.75003 4.05227 8.75003C4.06544 8.75003 4.07864 8.75003 4.09186 8.75003C4.10508 8.75003 4.11833 8.75003 4.13159 8.75003C4.14486 8.75003 4.15815 8.75003 4.17147 8.75003C4.18478 8.75003 4.19812 8.75003 4.21148 8.75003C4.22484 8.75003 4.23822 8.75003 4.25163 8.75003C4.26503 8.75003 4.27846 8.75003 4.29191 8.75003C4.30536 8.75003 4.31883 8.75003 4.33232 8.75003C4.34581 8.75003 4.35933 8.75003 4.37287 8.75003C4.3864 8.75003 4.39996 8.75003 4.41354 8.75003C4.42712 8.75003 4.44072 8.75003 4.45434 8.75003C4.46796 8.75003 4.48161 8.75003 4.49527 8.75003C4.50893 8.75003 4.52262 8.75003 4.53632 8.75003C4.55003 8.75003 4.56375 8.75003 4.5775 8.75003C4.59124 8.75003 4.60501 8.75003 4.61879 8.75003C4.63258 8.75003 4.64639 8.75003 4.66021 8.75003C4.67404 8.75003 4.68788 8.75003 4.70174 8.75003C4.71561 8.75003 4.72949 8.75003 4.74339 8.75003C4.7573 8.75003 4.77122 8.75003 4.78516 8.75003C4.7991 8.75003 4.81306 8.75003 4.82704 8.75003C4.84101 8.75003 4.85501 8.75003 4.86903 8.75003C4.88304 8.75003 4.89707 8.75003 4.91112 8.75003C4.92517 8.75003 4.93924 8.75003 4.95333 8.75003C4.96742 8.75003 4.98152 8.75003 4.99564 8.75003C5.00976 8.75003 5.0239 8.75003 5.03806 8.75003C5.05222 8.75003 5.06639 8.75003 5.08058 8.75003C5.09477 8.75003 5.10898 8.75003 5.1232 8.75003C5.13742 8.75003 5.15167 8.75003 5.16592 8.75003C5.18018 8.75003 5.19445 8.75003 5.20874 8.75003C5.22303 8.75003 5.23734 8.75003 5.25166 8.75003C5.26598 8.75003 5.28032 8.75003 5.29467 8.75003C5.30902 8.75003 5.32339 8.75003 5.33777 8.75003C5.35215 8.75003 5.36655 8.75003 5.38097 8.75003C5.39538 8.75003 5.40981 8.75003 5.42425 8.75003C5.43869 8.75003 5.45315 8.75003 5.46762 8.75003C5.4821 8.75003 5.49658 8.75003 5.51108 8.75003C5.52558 8.75003 5.5401 8.75003 5.55463 8.75003C5.56916 8.75003 5.5837 8.75003 5.59826 8.75003C5.61281 8.75003 5.62738 8.75003 5.64196 8.75003C5.65655 8.75003 5.67114 8.75003 5.68575 8.75003C5.70036 8.75003 5.71499 8.75003 5.72962 8.75003C5.74426 8.75003 5.75891 8.75003 5.77357 8.75003C5.78823 8.75003 5.8029 8.75003 5.81758 8.75003C5.83227 8.75003 5.84697 8.75003 5.86168 8.75003C5.87639 8.75003 5.89111 8.75003 5.90584 8.75003C5.92057 8.75003 5.93532 8.75003 5.95008 8.75003C5.96483 8.75003 5.9796 8.75003 5.99438 8.75003C6.00916 8.75003 6.02395 8.75003 6.03875 8.75003C6.05355 8.75003 6.06836 8.75003 6.08318 8.75003C6.098 8.75003 6.11284 8.75003 6.12768 8.75003C6.14252 8.75003 6.15738 8.75003 6.17224 8.75003C6.1871 8.75003 6.20198 8.75003 6.21686 8.75003C6.23174 8.75003 6.24664 8.75003 6.26154 8.75003C6.27644 8.75003 6.29135 8.75003 6.30627 8.75003C6.32119 8.75003 6.33612 8.75003 6.35106 8.75003C6.366 8.75003 6.38095 8.75003 6.39591 8.75003C6.41086 8.75003 6.42583 8.75003 6.4408 8.75003C6.45578 8.75003 6.47076 8.75003 6.48575 8.75003C6.50074 8.75003 6.51574 8.75003 6.53075 8.75003C6.54575 8.75003 6.56077 8.75003 6.57579 8.75003C6.59081 8.75003 6.60584 8.75003 6.62087 8.75003C6.63591 8.75003 6.65095 8.75003 6.66601 8.75003C6.68106 8.75003 6.69611 8.75003 6.71118 8.75003C6.72624 8.75003 6.74131 8.75003 6.75639 8.75003C6.77147 8.75003 6.78655 8.75003 6.80164 8.75003C6.81673 8.75003 6.83183 8.75003 6.84693 8.75003C6.86204 8.75003 6.87714 8.75003 6.89226 8.75003C6.90737 8.75003 6.92249 8.75003 6.93762 8.75003C6.95274 8.75003 6.96787 8.75003 6.98301 8.75003C6.99814 8.75003 7.01328 8.75003 7.02843 8.75003C7.04357 8.75003 7.05872 8.75003 7.07388 8.75003C7.08903 8.75003 7.10419 8.75003 7.11935 8.75003C7.13452 8.75003 7.14969 8.75003 7.16486 8.75003C7.18003 8.75003 7.1952 8.75003 7.21038 8.75003C7.22556 8.75003 7.24075 8.75003 7.25593 8.75003C7.27112 8.75003 7.28631 8.75003 7.3015 8.75003C7.3167 8.75003 7.33189 8.75003 7.34709 8.75003C7.36229 8.75003 7.37749 8.75003 7.3927 8.75003C7.4079 8.75003 7.42311 8.75003 7.43832 8.75003C7.45353 8.75003 7.46874 8.75003 7.48395 8.75003C7.49917 8.75003 7.51438 8.75003 7.5296 8.75003C7.54482 8.75003 7.56004 8.75003 7.57526 8.75003C7.59048 8.75003 7.6057 8.75003 7.62093 8.75003C7.63615 8.75003 7.65138 8.75003 7.6666 8.75003C7.68183 8.75003 7.69706 8.75003 7.71228 8.75003C7.72751 8.75003 7.74274 8.75003 7.75797 8.75003C7.7732 8.75003 7.78843 8.75003 7.80366 8.75003C7.81889 8.75003 7.83411 8.75003 7.84934 8.75003C7.86457 8.75003 7.8798 8.75003 7.89503 8.75003C7.91026 8.75003 7.92549 8.75003 7.94072 8.75003C7.95594 8.75003 7.97117 8.75003 7.9864 8.75003C8.00162 8.75003 8.01685 8.75003 8.03207 8.75003C8.0473 8.75003 8.06252 8.75003 8.07774 8.75003C8.09296 8.75003 8.10818 8.75003 8.1234 8.75003C8.13862 8.75003 8.15383 8.75003 8.16905 8.75003C8.18426 8.75003 8.19947 8.75003 8.21468 8.75003C8.22989 8.75003 8.2451 8.75003 8.26031 8.75003C8.27551 8.75003 8.29071 8.75003 8.30591 8.75003C8.32111 8.75003 8.33631 8.75003 8.3515 8.75003C8.36669 8.75003 8.38188 8.75003 8.39707 8.75003C8.41226 8.75003 8.42744 8.75003 8.44262 8.75003C8.4578 8.75003 8.47297 8.75003 8.48815 8.75003C8.50332 8.75003 8.51849 8.75003 8.53365 8.75003C8.54881 8.75003 8.56397 8.75003 8.57913 8.75003C8.59428 8.75003 8.60943 8.75003 8.62458 8.75003C8.63972 8.75003 8.65486 8.75003 8.67 8.75003C8.68514 8.75003 8.70027 8.75003 8.71539 8.75003C8.73052 8.75003 8.74564 8.75003 8.76075 8.75003C8.77586 8.75003 8.79097 8.75003 8.80608 8.75003C8.82118 8.75003 8.83628 8.75003 8.85137 8.75003C8.86646 8.75003 8.88154 8.75003 8.89662 8.75003C8.9117 8.75003 8.92677 8.75003 8.94183 8.75003C8.9569 8.75003 8.97196 8.75003 8.98701 8.75003C9.00206 8.75003 9.0171 8.75003 9.03214 8.75003C9.04718 8.75003 9.06221 8.75003 9.07723 8.75003C9.09225 8.75003 9.10726 8.75003 9.12227 8.75003C9.13728 8.75003 9.15228 8.75003 9.16727 8.75003C9.18226 8.75003 9.19724 8.75003 9.21221 8.75003C9.22719 8.75003 9.24215 8.75003 9.25711 8.75003C9.27207 8.75003 9.28702 8.75003 9.30196 8.75003C9.3169 8.75003 9.33183 8.75003 9.34675 8.75003C9.36167 8.75003 9.37658 8.75003 9.39148 8.75003C9.40639 8.75003 9.42128 8.75003 9.43616 8.75003C9.45105 8.75003 9.46592 8.75003 9.48079 8.75003C9.49565 8.75003 9.5105 8.75003 9.52535 8.75003C9.54019 8.75003 9.55502 8.75003 9.56985 8.75003C9.58467 8.75003 9.59948 8.75003 9.61428 8.75003C9.62908 8.75003 9.64387 8.75003 9.65865 8.75003C9.67343 8.75003 9.6882 8.75003 9.70296 8.75003C9.71771 8.75003 9.73246 8.75003 9.74719 8.75003C9.76193 8.75003 9.77665 8.75003 9.79136 8.75003C9.80607 8.75003 9.82077 8.75003 9.83545 8.75003C9.85014 8.75003 9.86481 8.75003 9.87947 8.75003C9.89413 8.75003 9.90878 8.75003 9.92342 8.75003C9.93806 8.75003 9.95268 8.75003 9.96729 8.75003C9.9819 8.75003 9.9965 8.75003 10.0111 8.75003C10.0257 8.75003 10.0402 8.75003 10.0548 8.75003C10.0693 8.75003 10.0839 8.75003 10.0984 8.75003C10.1129 8.75003 10.1275 8.75003 10.142 8.75003C10.1565 8.75003 10.171 8.75003 10.1854 8.75003C10.1999 8.75003 10.2144 8.75003 10.2288 8.75003C10.2432 8.75003 10.2577 8.75003 10.2721 8.75003C10.2865 8.75003 10.3009 8.75003 10.3153 8.75003C10.3297 8.75003 10.344 8.75003 10.3584 8.75003C10.3727 8.75003 10.3871 8.75003 10.4014 8.75003C10.4157 8.75003 10.43 8.75003 10.4443 8.75003C10.4586 8.75003 10.4729 8.75003 10.4871 8.75003C10.5014 8.75003 10.5156 8.75003 10.5299 8.75003C10.5441 8.75003 10.5583 8.75003 10.5725 8.75003C10.5867 8.75003 10.6009 8.75003 10.615 8.75003C10.6292 8.75003 10.6433 8.75003 10.6574 8.75003C10.6716 8.75003 10.6857 8.75003 10.6997 8.75003C10.7138 8.75003 10.7279 8.75003 10.742 8.75003C10.756 8.75003 10.77 8.75003 10.7841 8.75003C10.7981 8.75003 10.8121 8.75003 10.826 8.75003C10.84 8.75003 10.854 8.75003 10.8679 8.75003C10.8819 8.75003 10.8958 8.75003 10.9097 8.75003C10.9236 8.75003 10.9375 8.75003 10.9513 8.75003C10.9652 8.75003 10.9791 8.75003 10.9929 8.75003C11.0067 8.75003 11.0205 8.75003 11.0343 8.75003C11.0481 8.75003 11.0619 8.75003 11.0756 8.75003C11.0893 8.75003 11.1031 8.75003 11.1168 8.75003C11.1305 8.75003 11.1442 8.75003 11.1578 8.75003C11.1715 8.75003 11.1851 8.75003 11.1988 8.75003C11.2124 8.75003 11.226 8.75003 11.2396 8.75003C11.2532 8.75003 11.2667 8.75003 11.2803 8.75003C11.2938 8.75003 11.3073 8.75003 11.3208 8.75003C11.3343 8.75003 11.3478 8.75003 11.3612 8.75003C11.3747 8.75003 11.3881 8.75003 11.4015 8.75003C11.4149 8.75003 11.4283 8.75003 11.4417 8.75003C11.455 8.75003 11.4683 8.75003 11.4817 8.75003C11.495 8.75003 11.5083 8.75003 11.5215 8.75003C11.5348 8.75003 11.5481 8.75003 11.5613 8.75003C11.5745 8.75003 11.5877 8.75003 11.6009 8.75003C11.614 8.75003 11.6272 8.75003 11.6403 8.75003C11.6535 8.75003 11.6666 8.75003 11.6796 8.75003C11.6927 8.75003 11.7058 8.75003 11.7188 8.75003C11.7318 8.75003 11.7448 8.75003 11.7578 8.75003C11.7708 8.75003 11.7838 8.75003 11.7967 8.75003C11.8096 8.75003 11.8225 8.75003 11.8354 8.75003C11.8483 8.75003 11.8611 8.75003 11.874 8.75003C11.8868 8.75003 11.8996 8.75003 11.9124 8.75003C11.9252 8.75003 11.9379 8.75003 11.9506 8.75003C11.9634 8.75003 11.9761 8.75003 11.9887 8.75003C12.0014 8.75003 12.014 8.75003 12.0267 8.75003C12.0393 8.75003 12.0519 8.75003 12.0644 8.75003C12.077 8.75003 12.0896 8.75003 12.1021 8.75003C12.1146 8.75003 12.1271 8.75003 12.1395 8.75003C12.152 8.75003 12.1644 8.75003 12.1768 8.75003C12.1892 8.75003 12.2016 8.75003 12.2139 8.75003C12.2263 8.75003 12.2386 8.75003 12.2509 8.75003C12.2632 8.75003 12.2754 8.75003 12.2876 8.75003C12.2999 8.75003 12.3121 8.75003 12.3243 8.75003C12.3364 8.75003 12.3486 8.75003 12.3607 8.75003C12.3728 8.75003 12.3849 8.75003 12.3969 8.75003C12.409 8.75003 12.421 8.75003 12.433 8.75003C12.445 8.75003 12.457 8.75003 12.4689 8.75003C12.4809 8.75003 12.4928 8.75003 12.5046 8.75003C12.5165 8.75003 12.5284 8.75003 12.5402 8.75003C12.552 8.75003 12.5638 8.75003 12.5755 8.75003C12.5873 8.75003 12.599 8.75003 12.6107 8.75003C12.6224 8.75003 12.6341 8.75003 12.6457 8.75003C12.6573 8.75003 12.6689 8.75003 12.6805 8.75003C12.6921 8.75003 12.7036 8.75003 12.7151 8.75003C12.7266 8.75003 12.7381 8.75003 12.7495 8.75003C12.7609 8.75003 12.7724 8.75003 12.7837 8.75003C12.7951 8.75003 12.8064 8.75003 12.8177 8.75003C12.8291 8.75003 12.8403 8.75003 12.8516 8.75003C12.8628 8.75003 12.874 8.75003 12.8852 8.75003C12.8964 8.75003 12.9075 8.75003 12.9186 8.75003C12.9297 8.75003 12.9408 8.75003 12.9519 8.75003C12.9629 8.75003 12.9739 8.75003 12.9849 8.75003C12.9959 8.75003 13.0068 8.75003 13.0177 8.75003C13.0286 8.75003 13.0395 8.75003 13.0503 8.75003C13.0611 8.75003 13.0719 8.75003 13.0827 8.75003C13.0935 8.75003 13.1042 8.75003 13.1149 8.75003C13.1256 8.75003 13.1363 8.75003 13.1469 8.75003C13.1575 8.75003 13.1681 8.75003 13.1787 8.75003C13.1892 8.75003 13.1997 8.75003 13.2102 8.75003C13.2207 8.75003 13.2311 8.75003 13.2415 8.75003C13.2519 8.75003 13.2623 8.75003 13.2727 8.75003C13.283 8.75003 13.2933 8.75003 13.3036 8.75003C13.3138 8.75003 13.324 8.75003 13.3342 8.75003C13.3444 8.75003 13.3546 8.75003 13.3647 8.75003C13.3748 8.75003 13.3849 8.75003 13.3949 8.75003C13.4049 8.75003 13.4149 8.75003 13.4249 8.75003C13.4349 8.75003 13.4448 8.75003 13.4547 8.75003C13.4646 8.75003 13.4744 8.75003 13.4842 8.75003C13.494 8.75003 13.5038 8.75003 13.5135 8.75003C13.5233 8.75003 13.533 8.75003 13.5426 8.75003C13.5523 8.75003 13.5619 8.75003 13.5715 8.75003C13.581 8.75003 13.5906 8.75003 13.6001 8.75003C13.6096 8.75003 13.619 8.75003 13.6284 8.75003C13.6379 8.75003 13.6472 8.75003 13.6566 8.75003C13.6659 8.75003 13.6752 8.75003 13.6845 8.75003C13.6937 8.75003 13.7029 8.75003 13.7121 8.75003C13.7213 8.75003 13.7304 8.75003 13.7395 8.75003C13.7486 8.75003 13.7576 8.75003 13.7667 8.75003C13.7757 8.75003 13.7846 8.75003 13.7936 8.75003C13.8025 8.75003 13.8114 8.75003 13.8202 8.75003C13.8291 8.75003 13.8379 8.75003 13.8466 8.75003C13.8554 8.75003 13.8641 8.75003 13.8728 8.75003C13.8814 8.75003 13.8901 8.75003 13.8987 8.75003C13.9073 8.75003 13.9158 8.75003 13.9243 8.75003C13.9328 8.75003 13.9413 8.75003 13.9497 8.75003C13.9581 8.75003 13.9665 8.75003 13.9748 8.75003C13.9831 8.75003 13.9914 8.75003 13.9997 8.75003C14.0079 8.75003 14.0161 8.75003 14.0243 8.75003C14.0324 8.75003 14.0405 8.75003 14.0486 8.75003C14.0567 8.75003 14.0647 8.75003 14.0727 8.75003C14.0807 8.75003 14.0886 8.75003 14.0965 8.75003C14.1044 8.75003 14.1122 8.75003 14.12 8.75003C14.1278 8.75003 14.1356 8.75003 14.1433 8.75003C14.151 8.75003 14.1586 8.75003 14.1663 8.75003C14.1739 8.75003 14.1815 8.75003 14.189 8.75003C14.1965 8.75003 14.204 8.75003 14.2114 8.75003C14.2189 8.75003 14.2262 8.75003 14.2336 8.75003C14.2409 8.75003 14.2482 8.75003 14.2555 8.75003C14.2627 8.75003 14.2699 8.75003 14.2771 8.75003C14.2842 8.75003 14.2913 8.75003 14.2984 8.75003C14.3054 8.75003 14.3124 8.75003 14.3194 8.75003C14.3264 8.75003 14.3333 8.75003 14.3402 8.75003C14.347 8.75003 14.3538 8.75003 14.3606 8.75003C14.3674 8.75003 14.3741 8.75003 14.3808 8.75003C14.3875 8.75003 14.3941 8.75003 14.4007 8.75003C14.4072 8.75003 14.4138 8.75003 14.4203 8.75003C14.4267 8.75003 14.4332 8.75003 14.4396 8.75003C14.4459 8.75003 14.4523 8.75003 14.4586 8.75003C14.4648 8.75003 14.4711 8.75003 14.4773 8.75003C14.4834 8.75003 14.4896 8.75003 14.4957 8.75003C14.5017 8.75003 14.5078 8.75003 14.5138 8.75003C14.5197 8.75003 14.5257 8.75003 14.5316 8.75003C14.5374 8.75003 14.5433 8.75003 14.549 8.75003C14.5548 8.75003 14.5606 8.75003 14.5662 8.75003C14.5719 8.75003 14.5775 8.75003 14.5831 8.75003C14.5887 8.75003 14.5942 8.75003 14.5997 8.75003C14.6052 8.75003 14.6106 8.75003 14.616 8.75003C14.6213 8.75003 14.6266 8.75003 14.6319 8.75003C14.6372 8.75003 14.6424 8.75003 14.6475 8.75003C14.6527 8.75003 14.6578 8.75003 14.6629 8.75003C14.6679 8.75003 14.6729 8.75003 14.6779 8.75003C14.6828 8.75003 14.6877 8.75003 14.6925 8.75003C14.6974 8.75003 14.7022 8.75003 14.7069 8.75003C14.7116 8.75003 14.7163 8.75003 14.7209 8.75003C14.7256 8.75003 14.7301 8.75003 14.7347 8.75003C14.7392 8.75003 14.7436 8.75003 14.7481 8.75003C14.7525 8.75003 14.7568 8.75003 14.7611 8.75003C14.7654 8.75003 14.7697 8.75003 14.7739 8.75003C14.7781 8.75003 14.7822 8.75003 14.7863 8.75003C14.7903 8.75003 14.7944 8.75003 14.7983 8.75003C14.8023 8.75003 14.8062 8.75003 14.8101 8.75003C14.8139 8.75003 14.8177 8.75003 14.8215 8.75003C14.8252 8.75003 14.8289 8.75003 14.8326 8.75003C14.8362 8.75003 14.8398 8.75003 14.8433 8.75003C14.8468 8.75003 14.8503 8.75003 14.8537 8.75003C14.8571 8.75003 14.8604 8.75003 14.8637 8.75003C14.867 8.75003 14.8703 8.75003 14.8734 8.75003C14.8766 8.75003 14.8797 8.75003 14.8828 8.75003C14.8858 8.75003 14.8889 8.75003 14.8918 8.75003C14.8947 8.75003 14.8976 8.75003 14.9005 8.75003C14.9033 8.75003 14.9061 8.75003 14.9088 8.75003C14.9115 8.75003 14.9141 8.75003 14.9167 8.75003C14.9193 8.75003 14.9219 8.75003 14.9243 8.75003C14.9268 8.75003 14.9292 8.75003 14.9316 8.75003C14.934 8.75003 14.9363 8.75003 14.9385 8.75003C14.9407 8.75003 14.9429 8.75003 14.945 8.75003C14.9472 8.75003 14.9492 8.75003 14.9512 8.75003C14.9532 8.75003 14.9552 8.75003 14.957 8.75003C14.9589 8.75003 14.9607 8.75003 14.9625 8.75003C14.9642 8.75003 14.9659 8.75003 14.9676 8.75003C14.9692 8.75003 14.9708 8.75003 14.9723 8.75003C14.9738 8.75003 14.9753 8.75003 14.9766 8.75003C14.978 8.75003 14.9794 8.75003 14.9806 8.75003C14.9819 8.75003 14.9831 8.75003 14.9842 8.75003C14.9854 8.75003 14.9865 8.75003 14.9875 8.75003C14.9885 8.75003 14.9895 8.75003 14.9903 8.75003C14.9912 8.75003 14.9921 8.75003 14.9928 8.75003C14.9936 8.75003 14.9943 8.75003 14.9949 8.75003C14.9956 8.75003 14.9962 8.75003 14.9967 8.75003C14.9972 8.75003 14.9976 8.75003 14.998 8.75003C14.9984 8.75003 14.9987 8.75003 14.999 8.75003C14.9992 8.75003 14.9994 8.75003 14.9996 8.75003C14.9997 8.75003 14.9998 8.75003 14.9998 8.00003C14.9998 7.25003 14.9997 7.25003 14.9996 7.25003C14.9994 7.25003 14.9992 7.25003 14.999 7.25003C14.9987 7.25003 14.9984 7.25003 14.998 7.25003C14.9976 7.25003 14.9972 7.25003 14.9967 7.25003C14.9962 7.25003 14.9956 7.25003 14.9949 7.25003C14.9943 7.25003 14.9936 7.25003 14.9928 7.25003C14.9921 7.25003 14.9912 7.25003 14.9903 7.25003C14.9895 7.25003 14.9885 7.25003 14.9875 7.25003C14.9865 7.25003 14.9854 7.25003 14.9842 7.25003C14.9831 7.25003 14.9819 7.25003 14.9806 7.25003C14.9794 7.25003 14.978 7.25003 14.9766 7.25003C14.9753 7.25003 14.9738 7.25003 14.9723 7.25003C14.9708 7.25003 14.9692 7.25003 14.9676 7.25003C14.9659 7.25003 14.9642 7.25003 14.9625 7.25003C14.9607 7.25003 14.9589 7.25003 14.957 7.25003C14.9552 7.25003 14.9532 7.25003 14.9512 7.25003C14.9492 7.25003 14.9472 7.25003 14.945 7.25003C14.9429 7.25003 14.9407 7.25003 14.9385 7.25003C14.9363 7.25003 14.934 7.25003 14.9316 7.25003C14.9292 7.25003 14.9268 7.25003 14.9243 7.25003C14.9219 7.25003 14.9193 7.25003 14.9167 7.25003C14.9141 7.25003 14.9115 7.25003 14.9088 7.25003C14.9061 7.25003 14.9033 7.25003 14.9005 7.25003C14.8976 7.25003 14.8947 7.25003 14.8918 7.25003C14.8889 7.25003 14.8858 7.25003 14.8828 7.25003C14.8797 7.25003 14.8766 7.25003 14.8734 7.25003C14.8703 7.25003 14.867 7.25003 14.8637 7.25003C14.8604 7.25003 14.8571 7.25003 14.8537 7.25003C14.8503 7.25003 14.8468 7.25003 14.8433 7.25003C14.8398 7.25003 14.8362 7.25003 14.8326 7.25003C14.8289 7.25003 14.8252 7.25003 14.8215 7.25003C14.8177 7.25003 14.8139 7.25003 14.8101 7.25003C14.8062 7.25003 14.8023 7.25003 14.7983 7.25003C14.7944 7.25003 14.7903 7.25003 14.7863 7.25003C14.7822 7.25003 14.7781 7.25003 14.7739 7.25003C14.7697 7.25003 14.7654 7.25003 14.7611 7.25003C14.7568 7.25003 14.7525 7.25003 14.7481 7.25003C14.7436 7.25003 14.7392 7.25003 14.7347 7.25003C14.7301 7.25003 14.7256 7.25003 14.7209 7.25003C14.7163 7.25003 14.7116 7.25003 14.7069 7.25003C14.7022 7.25003 14.6974 7.25003 14.6925 7.25003C14.6877 7.25003 14.6828 7.25003 14.6779 7.25003C14.6729 7.25003 14.6679 7.25003 14.6629 7.25003C14.6578 7.25003 14.6527 7.25003 14.6475 7.25003C14.6424 7.25003 14.6372 7.25003 14.6319 7.25003C14.6266 7.25003 14.6213 7.25003 14.616 7.25003C14.6106 7.25003 14.6052 7.25003 14.5997 7.25003C14.5942 7.25003 14.5887 7.25003 14.5831 7.25003C14.5775 7.25003 14.5719 7.25003 14.5662 7.25003C14.5606 7.25003 14.5548 7.25003 14.549 7.25003C14.5433 7.25003 14.5374 7.25003 14.5316 7.25003C14.5257 7.25003 14.5197 7.25003 14.5138 7.25003C14.5078 7.25003 14.5017 7.25003 14.4957 7.25003C14.4896 7.25003 14.4834 7.25003 14.4773 7.25003C14.4711 7.25003 14.4648 7.25003 14.4586 7.25003C14.4523 7.25003 14.4459 7.25003 14.4396 7.25003C14.4332 7.25003 14.4267 7.25003 14.4203 7.25003C14.4138 7.25003 14.4072 7.25003 14.4007 7.25003C14.3941 7.25003 14.3875 7.25003 14.3808 7.25003C14.3741 7.25003 14.3674 7.25003 14.3606 7.25003C14.3538 7.25003 14.347 7.25003 14.3402 7.25003C14.3333 7.25003 14.3264 7.25003 14.3194 7.25003C14.3124 7.25003 14.3054 7.25003 14.2984 7.25003C14.2913 7.25003 14.2842 7.25003 14.2771 7.25003C14.2699 7.25003 14.2627 7.25003 14.2555 7.25003C14.2482 7.25003 14.2409 7.25003 14.2336 7.25003C14.2262 7.25003 14.2189 7.25003 14.2114 7.25003C14.204 7.25003 14.1965 7.25003 14.189 7.25003C14.1815 7.25003 14.1739 7.25003 14.1663 7.25003C14.1586 7.25003 14.151 7.25003 14.1433 7.25003C14.1356 7.25003 14.1278 7.25003 14.12 7.25003C14.1122 7.25003 14.1044 7.25003 14.0965 7.25003C14.0886 7.25003 14.0807 7.25003 14.0727 7.25003C14.0647 7.25003 14.0567 7.25003 14.0486 7.25003C14.0405 7.25003 14.0324 7.25003 14.0243 7.25003C14.0161 7.25003 14.0079 7.25003 13.9997 7.25003C13.9914 7.25003 13.9831 7.25003 13.9748 7.25003C13.9665 7.25003 13.9581 7.25003 13.9497 7.25003C13.9413 7.25003 13.9328 7.25003 13.9243 7.25003C13.9158 7.25003 13.9073 7.25003 13.8987 7.25003C13.8901 7.25003 13.8814 7.25003 13.8728 7.25003C13.8641 7.25003 13.8554 7.25003 13.8466 7.25003C13.8379 7.25003 13.8291 7.25003 13.8202 7.25003C13.8114 7.25003 13.8025 7.25003 13.7936 7.25003C13.7846 7.25003 13.7757 7.25003 13.7667 7.25003C13.7576 7.25003 13.7486 7.25003 13.7395 7.25003C13.7304 7.25003 13.7213 7.25003 13.7121 7.25003C13.7029 7.25003 13.6937 7.25003 13.6845 7.25003C13.6752 7.25003 13.6659 7.25003 13.6566 7.25003C13.6472 7.25003 13.6379 7.25003 13.6284 7.25003C13.619 7.25003 13.6096 7.25003 13.6001 7.25003C13.5906 7.25003 13.581 7.25003 13.5715 7.25003C13.5619 7.25003 13.5523 7.25003 13.5426 7.25003C13.533 7.25003 13.5233 7.25003 13.5135 7.25003C13.5038 7.25003 13.494 7.25003 13.4842 7.25003C13.4744 7.25003 13.4646 7.25003 13.4547 7.25003C13.4448 7.25003 13.4349 7.25003 13.4249 7.25003C13.4149 7.25003 13.4049 7.25003 13.3949 7.25003C13.3849 7.25003 13.3748 7.25003 13.3647 7.25003C13.3546 7.25003 13.3444 7.25003 13.3342 7.25003C13.324 7.25003 13.3138 7.25003 13.3036 7.25003C13.2933 7.25003 13.283 7.25003 13.2727 7.25003C13.2623 7.25003 13.2519 7.25003 13.2415 7.25003C13.2311 7.25003 13.2207 7.25003 13.2102 7.25003C13.1997 7.25003 13.1892 7.25003 13.1787 7.25003C13.1681 7.25003 13.1575 7.25003 13.1469 7.25003C13.1363 7.25003 13.1256 7.25003 13.1149 7.25003C13.1042 7.25003 13.0935 7.25003 13.0827 7.25003C13.0719 7.25003 13.0611 7.25003 13.0503 7.25003C13.0395 7.25003 13.0286 7.25003 13.0177 7.25003C13.0068 7.25003 12.9959 7.25003 12.9849 7.25003C12.9739 7.25003 12.9629 7.25003 12.9519 7.25003C12.9408 7.25003 12.9297 7.25003 12.9186 7.25003C12.9075 7.25003 12.8964 7.25003 12.8852 7.25003C12.874 7.25003 12.8628 7.25003 12.8516 7.25003C12.8403 7.25003 12.8291 7.25003 12.8177 7.25003C12.8064 7.25003 12.7951 7.25003 12.7837 7.25003C12.7724 7.25003 12.7609 7.25003 12.7495 7.25003C12.7381 7.25003 12.7266 7.25003 12.7151 7.25003C12.7036 7.25003 12.6921 7.25003 12.6805 7.25003C12.6689 7.25003 12.6573 7.25003 12.6457 7.25003C12.6341 7.25003 12.6224 7.25003 12.6107 7.25003C12.599 7.25003 12.5873 7.25003 12.5755 7.25003C12.5638 7.25003 12.552 7.25003 12.5402 7.25003C12.5284 7.25003 12.5165 7.25003 12.5046 7.25003C12.4928 7.25003 12.4809 7.25003 12.4689 7.25003C12.457 7.25003 12.445 7.25003 12.433 7.25003C12.421 7.25003 12.409 7.25003 12.3969 7.25003C12.3849 7.25003 12.3728 7.25003 12.3607 7.25003C12.3486 7.25003 12.3364 7.25003 12.3243 7.25003C12.3121 7.25003 12.2999 7.25003 12.2876 7.25003C12.2754 7.25003 12.2632 7.25003 12.2509 7.25003C12.2386 7.25003 12.2263 7.25003 12.2139 7.25003C12.2016 7.25003 12.1892 7.25003 12.1768 7.25003C12.1644 7.25003 12.152 7.25003 12.1395 7.25003C12.1271 7.25003 12.1146 7.25003 12.1021 7.25003C12.0896 7.25003 12.077 7.25003 12.0644 7.25003C12.0519 7.25003 12.0393 7.25003 12.0267 7.25003C12.014 7.25003 12.0014 7.25003 11.9887 7.25003C11.9761 7.25003 11.9634 7.25003 11.9506 7.25003C11.9379 7.25003 11.9252 7.25003 11.9124 7.25003C11.8996 7.25003 11.8868 7.25003 11.874 7.25003C11.8611 7.25003 11.8483 7.25003 11.8354 7.25003C11.8225 7.25003 11.8096 7.25003 11.7967 7.25003C11.7838 7.25003 11.7708 7.25003 11.7578 7.25003C11.7448 7.25003 11.7318 7.25003 11.7188 7.25003C11.7058 7.25003 11.6927 7.25003 11.6796 7.25003C11.6666 7.25003 11.6535 7.25003 11.6403 7.25003C11.6272 7.25003 11.614 7.25003 11.6009 7.25003C11.5877 7.25003 11.5745 7.25003 11.5613 7.25003C11.5481 7.25003 11.5348 7.25003 11.5215 7.25003C11.5083 7.25003 11.495 7.25003 11.4817 7.25003C11.4683 7.25003 11.455 7.25003 11.4417 7.25003C11.4283 7.25003 11.4149 7.25003 11.4015 7.25003C11.3881 7.25003 11.3747 7.25003 11.3612 7.25003C11.3478 7.25003 11.3343 7.25003 11.3208 7.25003C11.3073 7.25003 11.2938 7.25003 11.2803 7.25003C11.2667 7.25003 11.2532 7.25003 11.2396 7.25003C11.226 7.25003 11.2124 7.25003 11.1988 7.25003C11.1851 7.25003 11.1715 7.25003 11.1578 7.25003C11.1442 7.25003 11.1305 7.25003 11.1168 7.25003C11.1031 7.25003 11.0893 7.25003 11.0756 7.25003C11.0619 7.25003 11.0481 7.25003 11.0343 7.25003C11.0205 7.25003 11.0067 7.25003 10.9929 7.25003C10.9791 7.25003 10.9652 7.25003 10.9513 7.25003C10.9375 7.25003 10.9236 7.25003 10.9097 7.25003C10.8958 7.25003 10.8819 7.25003 10.8679 7.25003C10.854 7.25003 10.84 7.25003 10.826 7.25003C10.8121 7.25003 10.7981 7.25003 10.7841 7.25003C10.77 7.25003 10.756 7.25003 10.742 7.25003C10.7279 7.25003 10.7138 7.25003 10.6997 7.25003C10.6857 7.25003 10.6716 7.25003 10.6574 7.25003C10.6433 7.25003 10.6292 7.25003 10.615 7.25003C10.6009 7.25003 10.5867 7.25003 10.5725 7.25003C10.5583 7.25003 10.5441 7.25003 10.5299 7.25003C10.5156 7.25003 10.5014 7.25003 10.4871 7.25003C10.4729 7.25003 10.4586 7.25003 10.4443 7.25003C10.43 7.25003 10.4157 7.25003 10.4014 7.25003C10.3871 7.25003 10.3727 7.25003 10.3584 7.25003C10.344 7.25003 10.3297 7.25003 10.3153 7.25003C10.3009 7.25003 10.2865 7.25003 10.2721 7.25003C10.2577 7.25003 10.2432 7.25003 10.2288 7.25003C10.2144 7.25003 10.1999 7.25003 10.1854 7.25003C10.171 7.25003 10.1565 7.25003 10.142 7.25003C10.1275 7.25003 10.1129 7.25003 10.0984 7.25003C10.0839 7.25003 10.0693 7.25003 10.0548 7.25003C10.0402 7.25003 10.0257 7.25003 10.0111 7.25003C9.9965 7.25003 9.9819 7.25003 9.96729 7.25003C9.95268 7.25003 9.93806 7.25003 9.92342 7.25003C9.90878 7.25003 9.89413 7.25003 9.87947 7.25003C9.86481 7.25003 9.85014 7.25003 9.83545 7.25003C9.82077 7.25003 9.80607 7.25003 9.79136 7.25003C9.77665 7.25003 9.76193 7.25003 9.74719 7.25003C9.73246 7.25003 9.71771 7.25003 9.70296 7.25003C9.6882 7.25003 9.67343 7.25003 9.65865 7.25003C9.64387 7.25003 9.62908 7.25003 9.61428 7.25003C9.59948 7.25003 9.58467 7.25003 9.56985 7.25003C9.55502 7.25003 9.54019 7.25003 9.52535 7.25003C9.5105 7.25003 9.49565 7.25003 9.48079 7.25003C9.46592 7.25003 9.45105 7.25003 9.43616 7.25003C9.42128 7.25003 9.40639 7.25003 9.39148 7.25003C9.37658 7.25003 9.36167 7.25003 9.34675 7.25003C9.33183 7.25003 9.3169 7.25003 9.30196 7.25003C9.28702 7.25003 9.27207 7.25003 9.25711 7.25003C9.24215 7.25003 9.22719 7.25003 9.21221 7.25003C9.19724 7.25003 9.18226 7.25003 9.16727 7.25003C9.15228 7.25003 9.13728 7.25003 9.12227 7.25003C9.10726 7.25003 9.09225 7.25003 9.07723 7.25003C9.06221 7.25003 9.04718 7.25003 9.03214 7.25003C9.0171 7.25003 9.00206 7.25003 8.98701 7.25003C8.97196 7.25003 8.9569 7.25003 8.94183 7.25003C8.92677 7.25003 8.9117 7.25003 8.89662 7.25003C8.88154 7.25003 8.86646 7.25003 8.85137 7.25003C8.83628 7.25003 8.82118 7.25003 8.80608 7.25003C8.79097 7.25003 8.77586 7.25003 8.76075 7.25003C8.74564 7.25003 8.73052 7.25003 8.71539 7.25003C8.70027 7.25003 8.68514 7.25003 8.67 7.25003C8.65486 7.25003 8.63972 7.25003 8.62458 7.25003C8.60943 7.25003 8.59428 7.25003 8.57913 7.25003C8.56397 7.25003 8.54881 7.25003 8.53365 7.25003C8.51849 7.25003 8.50332 7.25003 8.48815 7.25003C8.47297 7.25003 8.4578 7.25003 8.44262 7.25003C8.42744 7.25003 8.41226 7.25003 8.39707 7.25003C8.38188 7.25003 8.36669 7.25003 8.3515 7.25003C8.33631 7.25003 8.32111 7.25003 8.30591 7.25003C8.29071 7.25003 8.27551 7.25003 8.26031 7.25003C8.2451 7.25003 8.22989 7.25003 8.21468 7.25003C8.19947 7.25003 8.18426 7.25003 8.16905 7.25003C8.15383 7.25003 8.13862 7.25003 8.1234 7.25003C8.10818 7.25003 8.09296 7.25003 8.07774 7.25003C8.06252 7.25003 8.0473 7.25003 8.03207 7.25003C8.01685 7.25003 8.00162 7.25003 7.9864 7.25003C7.97117 7.25003 7.95594 7.25003 7.94072 7.25003C7.92549 7.25003 7.91026 7.25003 7.89503 7.25003C7.8798 7.25003 7.86457 7.25003 7.84934 7.25003C7.83411 7.25003 7.81889 7.25003 7.80366 7.25003C7.78843 7.25003 7.7732 7.25003 7.75797 7.25003C7.74274 7.25003 7.72751 7.25003 7.71228 7.25003C7.69706 7.25003 7.68183 7.25003 7.6666 7.25003C7.65138 7.25003 7.63615 7.25003 7.62093 7.25003C7.6057 7.25003 7.59048 7.25003 7.57526 7.25003C7.56004 7.25003 7.54482 7.25003 7.5296 7.25003C7.51438 7.25003 7.49917 7.25003 7.48395 7.25003C7.46874 7.25003 7.45353 7.25003 7.43832 7.25003C7.42311 7.25003 7.4079 7.25003 7.3927 7.25003C7.37749 7.25003 7.36229 7.25003 7.34709 7.25003C7.33189 7.25003 7.3167 7.25003 7.3015 7.25003C7.28631 7.25003 7.27112 7.25003 7.25593 7.25003C7.24075 7.25003 7.22556 7.25003 7.21038 7.25003C7.1952 7.25003 7.18003 7.25003 7.16486 7.25003C7.14969 7.25003 7.13452 7.25003 7.11935 7.25003C7.10419 7.25003 7.08903 7.25003 7.07388 7.25003C7.05872 7.25003 7.04357 7.25003 7.02843 7.25003C7.01328 7.25003 6.99814 7.25003 6.98301 7.25003C6.96787 7.25003 6.95274 7.25003 6.93762 7.25003C6.92249 7.25003 6.90737 7.25003 6.89226 7.25003C6.87714 7.25003 6.86204 7.25003 6.84693 7.25003C6.83183 7.25003 6.81673 7.25003 6.80164 7.25003C6.78655 7.25003 6.77147 7.25003 6.75639 7.25003C6.74131 7.25003 6.72624 7.25003 6.71118 7.25003C6.69611 7.25003 6.68106 7.25003 6.66601 7.25003C6.65095 7.25003 6.63591 7.25003 6.62087 7.25003C6.60584 7.25003 6.59081 7.25003 6.57579 7.25003C6.56077 7.25003 6.54575 7.25003 6.53075 7.25003C6.51574 7.25003 6.50074 7.25003 6.48575 7.25003C6.47076 7.25003 6.45578 7.25003 6.4408 7.25003C6.42583 7.25003 6.41086 7.25003 6.39591 7.25003C6.38095 7.25003 6.366 7.25003 6.35106 7.25003C6.33612 7.25003 6.32119 7.25003 6.30627 7.25003C6.29135 7.25003 6.27644 7.25003 6.26154 7.25003C6.24664 7.25003 6.23174 7.25003 6.21686 7.25003C6.20198 7.25003 6.1871 7.25003 6.17224 7.25003C6.15738 7.25003 6.14252 7.25003 6.12768 7.25003C6.11284 7.25003 6.098 7.25003 6.08318 7.25003C6.06836 7.25003 6.05355 7.25003 6.03875 7.25003C6.02395 7.25003 6.00916 7.25003 5.99438 7.25003C5.9796 7.25003 5.96483 7.25003 5.95008 7.25003C5.93532 7.25003 5.92057 7.25003 5.90584 7.25003C5.89111 7.25003 5.87639 7.25003 5.86168 7.25003C5.84697 7.25003 5.83227 7.25003 5.81758 7.25003C5.8029 7.25003 5.78823 7.25003 5.77357 7.25003C5.75891 7.25003 5.74426 7.25003 5.72962 7.25003C5.71499 7.25003 5.70036 7.25003 5.68575 7.25003C5.67114 7.25003 5.65655 7.25003 5.64196 7.25003C5.62738 7.25003 5.61281 7.25003 5.59826 7.25003C5.5837 7.25003 5.56916 7.25003 5.55463 7.25003C5.5401 7.25003 5.52558 7.25003 5.51108 7.25003C5.49658 7.25003 5.4821 7.25003 5.46762 7.25003C5.45315 7.25003 5.43869 7.25003 5.42425 7.25003C5.40981 7.25003 5.39538 7.25003 5.38097 7.25003C5.36655 7.25003 5.35215 7.25003 5.33777 7.25003C5.32339 7.25003 5.30902 7.25003 5.29467 7.25003C5.28032 7.25003 5.26598 7.25003 5.25166 7.25003C5.23734 7.25003 5.22303 7.25003 5.20874 7.25003C5.19445 7.25003 5.18018 7.25003 5.16592 7.25003C5.15167 7.25003 5.13742 7.25003 5.1232 7.25003C5.10898 7.25003 5.09477 7.25003 5.08058 7.25003C5.06639 7.25003 5.05222 7.25003 5.03806 7.25003C5.0239 7.25003 5.00976 7.25003 4.99564 7.25003C4.98152 7.25003 4.96742 7.25003 4.95333 7.25003C4.93924 7.25003 4.92517 7.25003 4.91112 7.25003C4.89707 7.25003 4.88304 7.25003 4.86903 7.25003C4.85501 7.25003 4.84101 7.25003 4.82704 7.25003C4.81306 7.25003 4.7991 7.25003 4.78516 7.25003C4.77122 7.25003 4.7573 7.25003 4.74339 7.25003C4.72949 7.25003 4.71561 7.25003 4.70174 7.25003C4.68788 7.25003 4.67404 7.25003 4.66021 7.25003C4.64639 7.25003 4.63258 7.25003 4.61879 7.25003C4.60501 7.25003 4.59124 7.25003 4.5775 7.25003C4.56375 7.25003 4.55003 7.25003 4.53632 7.25003C4.52262 7.25003 4.50893 7.25003 4.49527 7.25003C4.48161 7.25003 4.46796 7.25003 4.45434 7.25003C4.44072 7.25003 4.42712 7.25003 4.41354 7.25003C4.39996 7.25003 4.3864 7.25003 4.37287 7.25003C4.35933 7.25003 4.34581 7.25003 4.33232 7.25003C4.31883 7.25003 4.30536 7.25003 4.29191 7.25003C4.27846 7.25003 4.26503 7.25003 4.25163 7.25003C4.23822 7.25003 4.22484 7.25003 4.21148 7.25003C4.19812 7.25003 4.18478 7.25003 4.17147 7.25003C4.15815 7.25003 4.14486 7.25003 4.13159 7.25003C4.11833 7.25003 4.10508 7.25003 4.09186 7.25003C4.07864 7.25003 4.06544 7.25003 4.05227 7.25003C4.03909 7.25003 4.02594 7.25003 4.01282 7.25003C3.99969 7.25003 3.98659 7.25003 3.97351 7.25003C3.96043 7.25003 3.94738 7.25003 3.93435 7.25003C3.92132 7.25003 3.90832 7.25003 3.89534 7.25003C3.88236 7.25003 3.8694 7.25003 3.85647 7.25003C3.84354 7.25003 3.83064 7.25003 3.81776 7.25003C3.80488 7.25003 3.79203 7.25003 3.7792 7.25003C3.76637 7.25003 3.75357 7.25003 3.74079 7.25003C3.72801 7.25003 3.71526 7.25003 3.70254 7.25003C3.68982 7.25003 3.67712 7.25003 3.66445 7.25003C3.65178 7.25003 3.63913 7.25003 3.62651 7.25003C3.61389 7.25003 3.6013 7.25003 3.58874 7.25003C3.57617 7.25003 3.56364 7.25003 3.55113 7.25003C3.53862 7.25003 3.52613 7.25003 3.51368 7.25003C3.50122 7.25003 3.4888 7.25003 3.4764 7.25003C3.464 7.25003 3.45163 7.25003 3.43928 7.25003C3.42694 7.25003 3.41462 7.25003 3.40234 7.25003C3.39005 7.25003 3.37779 7.25003 3.36556 7.25003C3.35333 7.25003 3.34113 7.25003 3.32896 7.25003C3.31679 7.25003 3.30464 7.25003 3.29253 7.25003C3.28042 7.25003 3.26833 7.25003 3.25628 7.25003C3.24422 7.25003 3.23219 7.25003 3.2202 7.25003C3.2082 7.25003 3.19624 7.25003 3.1843 7.25003C3.17237 7.25003 3.16046 7.25003 3.14858 7.25003C3.13671 7.25003 3.12486 7.25003 3.11305 7.25003C3.10123 7.25003 3.08945 7.25003 3.0777 7.25003C3.06594 7.25003 3.05422 7.25003 3.04253 7.25003C3.03084 7.25003 3.01918 7.25003 3.00755 7.25003C2.99592 7.25003 2.98433 7.25003 2.97276 7.25003C2.9612 7.25003 2.94966 7.25003 2.93816 7.25003C2.92666 7.25003 2.91519 7.25003 2.90375 7.25003C2.89232 7.25003 2.88091 7.25003 2.86954 7.25003C2.85817 7.25003 2.84683 7.25003 2.83552 7.25003C2.82421 7.25003 2.81294 7.25003 2.8017 7.25003C2.79046 7.25003 2.77925 7.25003 2.76808 7.25003C2.7569 7.25003 2.74576 7.25003 2.73465 7.25003C2.72354 7.25003 2.71247 7.25003 2.70143 7.25003C2.69039 7.25003 2.67938 7.25003 2.66841 7.25003C2.65744 7.25003 2.6465 7.25003 2.6356 7.25003C2.6247 7.25003 2.61383 7.25003 2.60299 7.25003C2.59216 7.25003 2.58136 7.25003 2.5706 7.25003C2.55983 7.25003 2.5491 7.25003 2.53841 7.25003C2.52772 7.25003 2.51706 7.25003 2.50643 7.25003C2.49581 7.25003 2.48522 7.25003 2.47467 7.25003C2.46412 7.25003 2.4536 7.25003 2.44312 7.25003C2.43264 7.25003 2.4222 7.25003 2.41179 7.25003C2.40139 7.25003 2.39102 7.25003 2.38068 7.25003C2.37035 7.25003 2.36005 7.25003 2.34979 7.25003C2.33953 7.25003 2.32931 7.25003 2.31912 7.25003C2.30893 7.25003 2.29878 7.25003 2.28867 7.25003C2.27856 7.25003 2.26849 7.25003 2.25845 7.25003C2.24841 7.25003 2.23841 7.25003 2.22845 7.25003C2.21849 7.25003 2.20857 7.25003 2.19869 7.25003C2.1888 7.25003 2.17896 7.25003 2.16915 7.25003C2.15934 7.25003 2.14957 7.25003 2.13984 7.25003C2.13011 7.25003 2.12042 7.25003 2.11077 7.25003C2.10112 7.25003 2.09151 7.25003 2.08193 7.25003C2.07236 7.25003 2.06283 7.25003 2.05333 7.25003C2.04384 7.25003 2.03438 7.25003 2.02497 7.25003C2.01555 7.25003 2.00618 7.25003 1.99684 7.25003C1.98751 7.25003 1.97822 7.25003 1.96896 7.25003C1.95971 7.25003 1.95049 7.25003 1.94132 7.25003C1.93215 7.25003 1.92302 7.25003 1.91393 7.25003C1.90484 7.25003 1.89579 7.25003 1.88678 7.25003C1.87777 7.25003 1.86881 7.25003 1.85988 7.25003C1.85095 7.25003 1.84207 7.25003 1.83323 7.25003C1.82439 7.25003 1.81559 7.25003 1.80683 7.25003C1.79807 7.25003 1.78936 7.25003 1.78068 7.25003C1.77201 7.25003 1.76338 7.25003 1.75479 7.25003C1.7462 7.25003 1.73766 7.25003 1.72916 7.25003C1.72066 7.25003 1.7122 7.25003 1.70378 7.25003C1.69536 7.25003 1.68699 7.25003 1.67866 7.25003C1.67033 7.25003 1.66205 7.25003 1.65381 7.25003C1.64556 7.25003 1.63737 7.25003 1.62921 7.25003C1.62106 7.25003 1.61295 7.25003 1.60488 7.25003C1.59682 7.25003 1.5888 7.25003 1.58082 7.25003C1.57284 7.25003 1.56491 7.25003 1.55702 7.25003C1.54914 7.25003 1.54129 7.25003 1.5335 7.25003C1.5257 7.25003 1.51795 7.25003 1.51024 7.25003C1.50254 7.25003 1.49488 7.25003 1.48726 7.25003C1.47965 7.25003 1.47208 7.25003 1.46455 7.25003C1.45703 7.25003 1.44955 7.25003 1.44212 7.25003C1.43469 7.25003 1.4273 7.25003 1.41997 7.25003C1.41263 7.25003 1.40534 7.25003 1.39809 7.25003C1.39085 7.25003 1.38365 7.25003 1.3765 7.25003C1.36935 7.25003 1.36224 7.25003 1.35519 7.25003C1.34813 7.25003 1.34112 7.25003 1.33416 7.25003C1.3272 7.25003 1.32028 7.25003 1.31342 7.25003C1.30655 7.25003 1.29973 7.25003 1.29297 7.25003C1.2862 7.25003 1.27947 7.25003 1.2728 7.25003C1.26613 7.25003 1.2595 7.25003 1.25293 7.25003C1.24635 7.25003 1.23982 7.25003 1.23335 7.25003C1.22687 7.25003 1.22044 7.25003 1.21406 7.25003C1.20768 7.25003 1.20135 7.25003 1.19507 7.25003C1.18879 7.25003 1.18256 7.25003 1.17637 7.25003C1.17019 7.25003 1.16406 7.25003 1.15798 7.25003C1.1519 7.25003 1.14587 7.25003 1.13989 7.25003C1.13391 7.25003 1.12798 7.25003 1.1221 7.25003C1.11622 7.25003 1.11039 7.25003 1.10461 7.25003C1.09883 7.25003 1.0931 7.25003 1.08743 7.25003C1.08175 7.25003 1.07613 7.25003 1.07055 7.25003C1.06498 7.25003 1.05946 7.25003 1.05399 7.25003C1.04852 7.25003 1.0431 7.25003 1.03773 7.25003C1.03237 7.25003 1.02705 7.25003 1.02179 7.25003C1.01653 7.25003 1.01132 7.25003 1.00616 7.25003C1.001 7.25003 0.995899 7.25003 0.990848 7.25003C0.985796 7.25003 0.980797 7.25003 0.975852 7.25003C0.970906 7.25003 0.966014 7.25003 0.961175 7.25003C0.956336 7.25003 0.95155 7.25003 0.946819 7.25003C0.942087 7.25003 0.937409 7.25003 0.932784 7.25003C0.92816 7.25003 0.92359 7.25003 0.919074 7.25003C0.914558 7.25003 0.910096 7.25003 0.905689 7.25003C0.901282 7.25003 0.896929 7.25003 0.892631 7.25003C0.888333 7.25003 0.88409 7.25003 0.879902 7.25003C0.875714 7.25003 0.871581 7.25003 0.867503 7.25003C0.863425 7.25003 0.859403 7.25003 0.855436 7.25003C0.85147 7.25003 0.847559 7.25003 0.843703 7.25003C0.839848 7.25003 0.836049 7.25003 0.832306 7.25003C0.828563 7.25003 0.824876 7.25003 0.821245 7.25003C0.817615 7.25003 0.814041 7.25003 0.810523 7.25003C0.807006 7.25003 0.803545 7.25003 0.800141 7.25003C0.796738 7.25003 0.793391 7.25003 0.790102 7.25003C0.786812 7.25003 0.78358 7.25003 0.780405 7.25003C0.777231 7.25003 0.774114 7.25003 0.771054 7.25003C0.767995 7.25003 0.764994 7.25003 0.76205 7.25003C0.759107 7.25003 0.756221 7.25003 0.753395 7.25003C0.750568 7.25003 0.747799 7.25003 0.745089 7.25003C0.742379 7.25003 0.739728 7.25003 0.737135 7.25003C0.734543 7.25003 0.73201 7.25003 0.729535 7.25003C0.727061 7.25003 0.724646 7.25003 0.72229 7.25003C0.719935 7.25003 0.717638 7.25003 0.715402 7.25003C0.713166 7.25003 0.710989 7.25003 0.708872 7.25003C0.706755 7.25003 0.704699 7.25003 0.702702 7.25003C0.700706 7.25003 0.69877 7.25003 0.696894 7.25003C0.695019 7.25003 0.693204 7.25003 0.691449 7.25003C0.689695 7.25003 0.688002 7.25003 0.68637 7.25003C0.684737 7.25003 0.683166 7.25003 0.681657 7.25003C0.680147 7.25003 0.678698 7.25003 0.677312 7.25003C0.675925 7.25003 0.6746 7.25003 0.673337 7.25003C0.672074 7.25003 0.670873 7.25003 0.669734 7.25003C0.668595 7.25003 0.667518 7.25003 0.666504 7.25003C0.665489 7.25003 0.664537 7.25003 0.663648 7.25003C0.662759 7.25003 0.661933 7.25003 0.66117 7.25003C0.660406 7.25003 0.659706 7.25003 0.659069 7.25003C0.658432 7.25003 0.657859 7.25003 0.657349 7.25003C0.656839 7.25003 0.656392 7.25003 0.65601 7.25003C0.655627 7.25003 0.655308 7.25003 0.655054 7.25003C0.654799 7.25003 0.654608 7.25003 0.654482 7.25003C0.654356 7.25003 0.654295 8.00003 0.654298 8.75003C0.654301 8.75003 0.654368 8.75003 0.654501 8.75003C0.654633 8.75003 0.654831 8.75003 0.655094 8.75003C0.655357 8.75003 0.655685 8.75003 0.656078 8.75003C0.656472 8.75003 0.656931 8.75003 0.657455 8.75003C0.65798 8.75003 0.658571 8.75003 0.659227 8.75003C0.659884 8.75003 0.660607 8.75003 0.661396 8.75003C0.662185 8.75003 0.66304 8.75003 0.663962 8.75003C0.664884 8.75003 0.665873 8.75003 0.666928 8.75003C0.667983 8.75003 0.669106 8.75003 0.670295 8.75003C0.671484 8.75003 0.672741 8.75003 0.674065 8.75003C0.675389 8.75003 0.676781 8.75003 0.67824 8.75003C0.679699 8.75003 0.681226 8.75003 0.68282 8.75003C0.684415 8.75003 0.686078 8.75003 0.687809 8.75003C0.68954 8.75003 0.691339 8.75003 0.693207 8.75003C0.695075 8.75003 0.697011 8.75003 0.699016 8.75003C0.701021 8.75003 0.703095 8.75003 0.705238 8.75003C0.707381 8.75003 0.709593 8.75003 0.711875 8.75003C0.714156 8.75003 0.716507 8.75003 0.718927 8.75003C0.721348 8.75003 0.723838 8.75003 0.726398 8.75003C0.728958 8.75003 0.731587 8.75003 0.734287 8.75003C0.736987 8.75003 0.739757 8.75003 0.742598 8.75003C0.745439 8.75003 0.74835 8.75003 0.751331 8.75003C0.754313 8.75003 0.757366 8.75003 0.760489 8.75003C0.763612 8.75003 0.766807 8.75003 0.770073 8.75003C0.773338 8.75003 0.776675 8.75003 0.780084 8.75003C0.783492 8.75003 0.786972 8.75003 0.790524 8.75003C0.794076 8.75003 0.7977 8.75003 0.801396 8.75003C0.805092 8.75003 0.808859 8.75003 0.8127 8.75003C0.81654 8.75003 0.820453 8.75003 0.824438 8.75003C0.828423 8.75003 0.832481 8.75003 0.836612 8.75003C0.840743 8.75003 0.844947 8.75003 0.849224 8.75003C0.8535 8.75003 0.857851 8.75003 0.862274 8.75003C0.866698 8.75003 0.871195 8.75003 0.875766 8.75003C0.880336 8.75003 0.884981 8.75003 0.8897 8.75003C0.894418 8.75003 0.899211 8.75003 0.904078 8.75003C0.908945 8.75003 0.913886 8.75003 0.918901 8.75003C0.923917 8.75003 0.929007 8.75003 0.934173 8.75003C0.939338 8.75003 0.944578 8.75003 0.949893 8.75003C0.955208 8.75003 0.960598 8.75003 0.966064 8.75003C0.971529 8.75003 0.97707 8.75003 0.982687 8.75003C0.988303 8.75003 0.993996 8.75003 0.999764 8.75003V7.25003Z" fill="#333333"/>
</svg>
