<svg width="18" height="18" viewBox="0 0 18 18" fill="none" xmlns="http://www.w3.org/2000/svg">
<path d="M1 1H3.90909L5.85818 11.177C5.92469 11.5269 6.10684 11.8412 6.37276 12.065C6.63868 12.2887 6.97142 12.4075 7.31273 12.4007H14.3818C14.7231 12.4075 15.0559 12.2887 15.3218 12.065C15.5877 11.8412 15.7699 11.5269 15.8364 11.177L17 4.80022H4.63636M9.1828 15.7335C9.1828 16.433 8.61428 17 7.91296 17C7.21165 17 6.64312 16.433 6.64312 15.7335C6.64312 15.034 7.21165 14.467 7.91296 14.467C8.61428 14.467 9.1828 15.034 9.1828 15.7335ZM15.9553 15.7335C15.9553 16.433 15.3868 17 14.6855 17C13.9841 17 13.4156 16.433 13.4156 15.7335C13.4156 15.034 13.9841 14.467 14.6855 14.467C15.3868 14.467 15.9553 15.034 15.9553 15.7335Z" stroke="#333333" stroke-width="1.2" stroke-linecap="round" stroke-linejoin="round"/>
</svg>
