<svg width="27" height="26" viewBox="0 0 27 26" fill="none" xmlns="http://www.w3.org/2000/svg">
<path d="M1.5 1H5.86364L8.78727 16.2655C8.88703 16.7904 9.16026 17.2619 9.55914 17.5974C9.95802 17.933 10.4571 18.1113 10.9691 18.101H21.5727C22.0847 18.1113 22.5838 17.933 22.9827 17.5974C23.3816 17.2619 23.6548 16.7904 23.7545 16.2655L25.5 6.70034H6.95455M13.7742 23.1003C13.7742 24.1495 12.9214 25 11.8694 25C10.8175 25 9.96468 24.1495 9.96468 23.1003C9.96468 22.0511 10.8175 21.2005 11.8694 21.2005C12.9214 21.2005 13.7742 22.0511 13.7742 23.1003ZM23.9329 23.1003C23.9329 24.1495 23.0801 25 22.0282 25C20.9762 25 20.1234 24.1495 20.1234 23.1003C20.1234 22.0511 20.9762 21.2005 22.0282 21.2005C23.0801 21.2005 23.9329 22.0511 23.9329 23.1003Z" stroke="white" stroke-width="1.5" stroke-linecap="round" stroke-linejoin="round"/>
</svg>
