<svg width="18" height="18" viewBox="0 0 18 18" fill="none" xmlns="http://www.w3.org/2000/svg">
<path d="M7.67896 1H1.37484C1.17038 1 1 1.17021 1 1.37447V7.65532C1 7.85957 1.17038 8.02979 1.37484 8.02979H7.66192C7.86637 8.02979 8.03676 7.85957 8.03676 7.65532V1.37447C8.05379 1.17021 7.88341 1 7.67896 1ZM7.28708 7.28085H1.76672V1.76596H7.30412V7.28085H7.28708Z" fill="#333333" stroke="#333333" stroke-width="0.55"/>
<path d="M16.717 1H10.4129C10.2085 1 10.0381 1.17021 10.0381 1.37447V7.65532C10.0381 7.85957 10.2085 8.02979 10.4129 8.02979H16.7C16.9045 8.02979 17.0748 7.85957 17.0748 7.65532V1.37447C17.0919 1.17021 16.9215 1 16.717 1ZM16.3252 7.28085H10.8048V1.76596H16.3422L16.3252 7.28085Z" fill="#333333" stroke="#333333" stroke-width="0.55"/>
<path d="M7.67896 10.0298H1.37484C1.17038 10.0298 1 10.2 1 10.4043V16.6851C1 16.9064 1.17038 17.0766 1.37484 17.0766H7.66192C7.86637 17.0766 8.03676 16.9064 8.03676 16.7021V10.4043C8.05379 10.2 7.88341 10.0298 7.67896 10.0298ZM7.28708 16.3106H1.76672V10.7957H7.30412V16.3106H7.28708Z" fill="#333333" stroke="#333333" stroke-width="0.55"/>
<path d="M16.717 10.0298H10.4129C10.2085 10.0298 10.0381 10.2 10.0381 10.4043V16.6851C10.0381 16.8894 10.2085 17.0596 10.4129 17.0596H16.7C16.9045 17.0596 17.0748 16.8894 17.0748 16.6851V10.4043C17.0919 10.2 16.9215 10.0298 16.717 10.0298ZM16.3252 16.3106H10.8048V10.7957H16.3422L16.3252 16.3106Z" fill="#333333" stroke="#333333" stroke-width="0.55"/>
</svg>
