<svg width="16" height="16" viewBox="0 0 16 16" fill="none" xmlns="http://www.w3.org/2000/svg">
<path d="M8.6113 16H7.28239C6.48505 16 5.79402 15.36 5.79402 14.5067V14.0267C5.58139 13.9733 5.36877 13.8667 5.15615 13.76L4.78405 14.1333C4.19934 14.72 3.29568 14.72 2.71096 14.1333L1.75415 13.1733C1.16944 12.5867 1.16944 11.68 1.75415 11.0933L2.12625 10.72C2.12625 10.56 2.01993 10.3467 1.96678 10.1333H1.48837C0.637874 10.1333 0 9.49333 0 8.64V7.30667C0 6.50667 0.637874 5.86667 1.48837 5.86667H1.96678C2.01993 5.65333 2.12625 5.44 2.23256 5.22667L1.86047 4.90667C1.27575 4.32 1.27575 3.41333 1.86047 2.82667L2.81728 1.86667C3.40199 1.28 4.30565 1.28 4.89037 1.86667L5.26246 2.24C5.42193 2.13333 5.63455 2.02667 5.84718 1.97333V1.49333C5.84718 0.64 6.48505 0 7.33555 0H8.50498C9.40864 0 10.0997 0.693333 10.0997 1.6V1.97333C10.3123 2.02667 10.5249 2.13333 10.7375 2.24L11.1096 1.86667C11.6944 1.28 12.598 1.28 13.1827 1.86667L14.1395 2.82667C14.7243 3.41333 14.7243 4.32 14.1395 4.90667L13.7674 5.28C13.8738 5.49333 13.9269 5.70667 14.0332 5.92H14.5116C15.309 5.92 16 6.56 16 7.41333V8.74667C16 9.54667 15.3621 10.24 14.5116 10.24H14.0332C13.9801 10.4533 13.8738 10.6667 13.7674 10.88L14.1395 11.2533C14.7243 11.84 14.7243 12.7467 14.1395 13.3333L13.1827 14.2933C12.598 14.88 11.6944 14.88 11.1096 14.2933L10.7375 13.92C10.5249 14.0267 10.3123 14.08 10.0997 14.1867V14.6667C10.0997 15.36 9.46179 16 8.6113 16ZM5.15615 12.64C5.26246 12.64 5.36877 12.6933 5.47508 12.7467C5.79402 12.9067 6.11296 13.0133 6.43189 13.12C6.75083 13.2267 6.9103 13.4933 6.9103 13.76V14.56C6.9103 14.7733 7.06977 14.9333 7.33555 14.9867H8.66445C8.87708 14.9867 9.03654 14.8267 9.0897 14.56V13.76C9.0897 13.44 9.30233 13.1733 9.56811 13.12C9.88704 13.0133 10.206 12.9067 10.5249 12.7467C10.7907 12.5867 11.1096 12.64 11.3223 12.8533L11.8538 13.3867C12.0133 13.5467 12.2791 13.5467 12.4385 13.3867L13.3953 12.4267C13.5548 12.2667 13.5548 12 13.3953 11.84L12.8638 11.3067C12.6512 11.0933 12.598 10.7733 12.7575 10.5067C12.9169 10.1867 13.0233 9.86667 13.1296 9.54667C13.2359 9.28 13.5017 9.06667 13.7674 9.06667H14.5648C14.7774 9.06667 14.9369 8.90667 14.99 8.64V7.30667C14.99 7.09333 14.8306 6.93333 14.5648 6.88H13.7674C13.4485 6.88 13.1827 6.66667 13.1296 6.4C13.0233 6.08 12.9169 5.76 12.7575 5.44C12.598 5.17333 12.6512 4.85333 12.8638 4.64L13.3953 4.10667C13.5548 3.94667 13.5548 3.68 13.3953 3.52L12.4385 2.56C12.2791 2.4 12.0133 2.4 11.8538 2.56L11.3223 3.09333C11.1096 3.30667 10.7907 3.36 10.5249 3.2C10.206 3.04 9.88704 2.93333 9.56811 2.82667C9.24917 2.82667 9.03654 2.56 9.03654 2.24V1.6C9.03654 1.28 8.82392 1.06667 8.50498 1.06667H7.33555C7.06977 1.06667 6.9103 1.22667 6.9103 1.49333V2.24C6.9103 2.56 6.69767 2.82667 6.43189 2.88C6.11296 2.98667 5.79402 3.09333 5.47508 3.25333C5.2093 3.41333 4.89037 3.36 4.67774 3.14667L4.14618 2.61333C3.98671 2.50667 3.72093 2.50667 3.56146 2.61333L2.60465 3.57333C2.44518 3.73333 2.44518 4 2.60465 4.16L3.13621 4.69333C3.34884 4.90667 3.40199 5.22667 3.24252 5.49333C3.08306 5.81333 2.97674 6.13333 2.87043 6.45333C2.81728 6.72 2.55149 6.93333 2.23256 6.93333H1.48837C1.22259 6.93333 1.06312 7.09333 1.06312 7.36V8.69333C1.06312 8.90667 1.22259 9.06667 1.48837 9.06667H2.23256C2.55149 9.06667 2.81728 9.28 2.87043 9.54667C2.97674 9.86667 3.08306 10.1867 3.24252 10.5067C3.40199 10.7733 3.34884 11.0933 3.13621 11.3067L2.60465 11.84C2.44518 12 2.44518 12.2667 2.60465 12.4267L3.56146 13.3867C3.72093 13.5467 3.98671 13.5467 4.14618 13.3867L4.67774 12.8533C4.78405 12.6933 4.94352 12.64 5.15615 12.64Z" fill="#333333"/>
<path d="M7.97337 11.7333C5.90028 11.7333 4.25244 10.08 4.25244 8C4.25244 5.92 5.90028 4.26666 7.97337 4.26666C10.0465 4.26666 11.6943 5.92 11.6943 8C11.6943 10.08 10.0465 11.7333 7.97337 11.7333ZM7.97337 5.33333C6.485 5.33333 5.31556 6.50666 5.31556 8C5.31556 9.49333 6.485 10.6667 7.97337 10.6667C9.46174 10.6667 10.6312 9.49333 10.6312 8C10.6312 6.50666 9.46174 5.33333 7.97337 5.33333Z" fill="#333333"/>
</svg>
