<svg width="274" height="16" viewBox="0 0 274 16" fill="none" xmlns="http://www.w3.org/2000/svg">
<circle cx="266" cy="8" r="7.25" stroke="#333333" stroke-width="1.5"/>
<path d="M266.227 9.28669C266.227 8.16669 268.047 8.16669 268.047 6.58002C268.047 5.55335 267.16 4.66669 265.713 4.66669C264.771 4.66669 264.201 5.05869 263.819 5.44135C263.604 5.66535 263.445 5.91735 263.333 6.20669L264.547 6.76669C264.612 6.62669 264.705 6.50535 264.817 6.39335C265.004 6.20669 265.293 6.02002 265.713 6.02002C266.227 6.02002 266.553 6.34669 266.553 6.67335C266.553 7.42935 264.92 7.59735 264.92 8.86669C264.92 8.98802 264.939 9.08135 264.967 9.16535C264.976 9.21202 264.995 9.24935 265.013 9.28669H266.227ZM264.827 10.64C264.827 11.06 265.153 11.3867 265.573 11.3867C265.993 11.3867 266.32 11.06 266.32 10.64C266.32 10.22 265.993 9.89335 265.573 9.89335C265.153 9.89335 264.827 10.22 264.827 10.64Z" fill="#333333"/>
</svg>
